SplineFontDB: 2.0
FontName: ArundinaSansMono-Oblique
FullName: Arundina Sans Mono Oblique
FamilyName: Arundina Sans Mono
Weight: Book
Copyright: Copyright (c) 2003 by Bitstream, Inc. All Rights Reserved.\nCopyright (c) 2007 by Software Industry Promotion Agency (Public Organization). All Rights Reserved.
Version: 1.20
ItalicAngle: -12
UnderlinePosition: -436
UnderlineWidth: 288
Ascent: 1638
Descent: 410
Order2: 1
NeedsXUIDChange: 1
XUID: [1021 375 425136265 10294789]
FSType: 4
OS2Version: 2
OS2_WeightWidthSlopeOnly: 0
OS2_UseTypoMetrics: 1
CreationTime: -25200
ModificationTime: 1195286329
PfmFamily: 49
TTFWeight: 400
TTFWidth: 5
LineGap: 25
VLineGap: 0
Panose: 2 11 3 0 2 2 2 2 2 4
OS2TypoAscent: 0
OS2TypoAOffset: 1
OS2TypoDescent: -410
OS2TypoDOffset: 1
OS2TypoLinegap: 0
OS2WinAscent: -379
OS2WinAOffset: 1
OS2WinDescent: 96
OS2WinDOffset: 1
HheadAscent: -379
HheadAOffset: 1
HheadDescent: -96
HheadDOffset: 1
OS2SubXSize: 1434
OS2SubYSize: 1331
OS2SubXOff: 0
OS2SubYOff: 287
OS2SupXSize: 1434
OS2SupYSize: 1331
OS2SupXOff: 0
OS2SupYOff: 977
OS2StrikeYSize: 102
OS2StrikeYPos: 512
OS2FamilyClass: 1285
OS2Vendor: 'Bits'
Lookup: 4 0 0 "'frac' Diagonal Fractions in Latin lookup 0"  {"'frac' Diagonal Fractions in Latin lookup 0 subtable"  } ['frac' ('latn' <'dflt' > ) ]
Lookup: 6 0 0 "'liga' Standard Ligatures in Latin lookup 1"  {"'liga' Standard Ligatures in Latin lookup 1 subtable"  } ['liga' ('latn' <'dflt' > ) ]
Lookup: 6 0 0 "'liga' Standard Ligatures in Latin lookup 2"  {"'liga' Standard Ligatures in Latin lookup 2 subtable"  } ['liga' ('latn' <'dflt' > ) ]
Lookup: 6 0 0 "'liga' Standard Ligatures in Latin lookup 3"  {"'liga' Standard Ligatures in Latin lookup 3 subtable"  } ['liga' ('latn' <'dflt' > ) ]
Lookup: 6 0 0 "'liga' Standard Ligatures in Latin lookup 4"  {"'liga' Standard Ligatures in Latin lookup 4 subtable"  } ['liga' ('latn' <'dflt' > ) ]

StartChar: .notdef
Encoding: 65536 -1 0
Width: 1234
VWidth: 3393
Flags: W
HStem: -363 114<167 961> 1331 114<503 1297>
Fore
411 1445 m 1,0,-1
 1437 1445 l 1,1,-1
 1053 -363 l 1,2,-1
 27 -363 l 1,3,-1
 411 1445 l 1,0,-1
961 -249 m 1,4,-1
 1297 1331 l 1,5,-1
 503 1331 l 1,6,-1
 167 -249 l 1,7,-1
 961 -249 l 1,4,-1
EndSplineSet
EndChar
StartChar: exclam
Encoding: 33 33 4
Width: 1234
VWidth: 3393
Flags: W
HStem: 0 255<421 573> 1473 20G<657.214 865>
VStem: 370 495<0 1493 -111.154 666.616>
Fore
865 1493 m 1,0,-1
 736 838 l 1,1,-1
 648 482 l 1,2,-1
 486 482 l 1,3,-1
 537 838 l 1,4,-1
 661 1493 l 1,5,-1
 865 1493 l 1,0,-1
625 255 m 1,6,-1
 573 0 l 1,7,-1
 370 0 l 1,8,-1
 421 255 l 1,9,-1
 625 255 l 1,6,-1
EndSplineSet
EndChar
StartChar: quotedbl
Encoding: 34 34 5
Width: 1234
VWidth: 3393
Flags: W
HStem: 1473 20G<340 512 722 896>
VStem: 340 172<940 1493> 722 174<940 1493 940 1493 940 940>
Fore
896 940 m 1,0,-1
 722 940 l 1,1,-1
 722 1493 l 1,2,-1
 896 1493 l 1,3,-1
 896 940 l 1,0,-1
512 940 m 1,4,-1
 340 940 l 1,5,-1
 340 1493 l 1,6,-1
 512 1493 l 1,7,-1
 512 940 l 1,4,-1
EndSplineSet
EndChar
StartChar: numbersign
Encoding: 35 35 6
Width: 1234
VWidth: 3393
Flags: W
HStem: 0 21G<146 310.121 553 717.928> 414 153<33 252 447 655 855 1075> 903 153<152 373 570 780 978 1195>
Fore
534 903 m 1,0,-1
 447 567 l 1,1,-1
 696 567 l 1,2,-1
 780 903 l 1,3,-1
 534 903 l 1,0,-1
570 1056 m 1,4,-1
 819 1056 l 1,5,-1
 923 1473 l 1,6,-1
 1082 1473 l 1,7,-1
 978 1056 l 1,8,-1
 1234 1056 l 1,9,-1
 1195 903 l 1,10,-1
 940 903 l 1,11,-1
 855 567 l 1,12,-1
 1114 567 l 1,13,-1
 1075 414 l 1,14,-1
 815 414 l 1,15,-1
 713 0 l 1,16,-1
 553 0 l 1,17,-1
 655 414 l 1,18,-1
 411 414 l 1,19,-1
 305 0 l 1,20,-1
 146 0 l 1,21,-1
 252 414 l 1,22,-1
 -7 414 l 1,23,-1
 33 567 l 1,24,-1
 288 567 l 1,25,-1
 373 903 l 1,26,-1
 116 903 l 1,27,-1
 152 1056 l 1,28,-1
 414 1056 l 1,29,-1
 515 1473 l 1,30,-1
 676 1473 l 1,31,-1
 570 1056 l 1,4,-1
EndSplineSet
EndChar
StartChar: dollar
Encoding: 36 36 7
Width: 1234
VWidth: 3393
Flags: W
HStem: 0 143<223.976 414 543 716.218> 608 166<406.362 563> 1185 139<492.248 645 771 938.103> 1538 20G<714.641 819>
VStem: 197 176<835.457 1074.58> 832 182<255.281 525.704>
Fore
543 146 m 1,0,1
 673 146 673 146 754 217 c 0,2,3
 832 288 832 288 832 408 c 0,4,5
 832 486 832 486 785.5 528 c 128,-1,6
 739 570 739 570 631 587 c 1,7,-1
 543 146 l 1,0,1
645 1185 m 1,8,9
 529 1181 529 1181 447 1110 c 0,10,11
 373 1039 373 1039 373 940 c 0,12,13
 373 872 373 872 414 835 c 0,14,15
 462 797 462 797 563 774 c 1,16,-1
 645 1185 l 1,8,9
353 -302 m 1,17,-1
 414 0 l 1,18,19
 224 3 224 3 30 91 c 1,20,-1
 65 272 l 1,21,22
 230 152 230 152 441 143 c 1,23,-1
 529 608 l 1,24,25
 353 645 353 645 275 714.5 c 128,-1,26
 197 784 197 784 197 913 c 0,27,28
 197 1082 197 1082 326 1201 c 0,29,30
 466 1314 466 1314 668 1324 c 1,31,-1
 719 1558 l 1,32,-1
 819 1558 l 1,33,-1
 771 1324 l 1,34,35
 940 1306 940 1306 1082 1263 c 1,36,-1
 1052 1089 l 1,37,38
 923 1163 923 1163 744 1185 c 1,39,-1
 661 757 l 1,40,41
 1014 689 1014 689 1014 428 c 0,42,43
 1014 244 1014 244 878 123 c 0,44,45
 747 3 747 3 525 3 c 2,46,-1
 515 3 l 1,47,-1
 454 -302 l 1,48,-1
 353 -302 l 1,17,-1
EndSplineSet
EndChar
StartChar: percent
Encoding: 37 37 8
Width: 1234
VWidth: 3393
Flags: W
HStem: 0 136<757.523 1004.13> 505 136<761.682 998.729> 794 136<227.432 474.856> 1296 136<227.783 472.239>
VStem: 33 136<988.248 1238.64> 537 136<992.94 1231.51> 560 136<198.628 439.193> 1065 136<198.477 439.202>
Fore
696 320 m 0,0,1
 696 240 696 240 751 187 c 0,2,3
 800 136 800 136 878 136 c 256,4,5
 958 136 958 136 1011 187 c 0,6,7
 1065 249 1065 249 1065 320 c 256,8,9
 1065 391 1065 391 1011 451 c 0,10,11
 949 505 949 505 878 505 c 0,12,13
 804 505 804 505 751 451 c 0,14,15
 696 401 696 401 696 320 c 0,0,1
560 320 m 0,16,17
 560 451 560 451 655 547 c 256,18,19
 751 641 751 641 878 641 c 0,20,21
 1011 641 1011 641 1107 547 c 0,22,23
 1201 444 1201 444 1201 320 c 0,24,25
 1201 191 1201 191 1110 91 c 0,26,27
 1014 0 1014 0 878 0 c 256,28,29
 744 0 744 0 651 91 c 256,30,31
 560 184 560 184 560 320 c 0,16,17
85 560 m 1,32,-1
 1130 981 l 1,33,-1
 1171 882 l 1,34,-1
 123 466 l 1,35,-1
 85 560 l 1,32,-1
169 1114 m 0,36,37
 169 1032 169 1032 220 981 c 256,38,39
 272 930 272 930 353 930 c 0,40,41
 431 930 431 930 482 981 c 0,42,43
 537 1036 537 1036 537 1114 c 256,44,45
 537 1191 537 1191 482 1243 c 0,46,47
 431 1296 431 1296 353 1296 c 0,48,49
 278 1296 278 1296 220 1246 c 0,50,51
 169 1191 169 1191 169 1114 c 0,36,37
33 1114 m 256,52,53
 33 1249 33 1249 126 1341 c 256,54,55
 217 1432 217 1432 353 1432 c 256,56,57
 489 1432 489 1432 580 1341 c 0,58,59
 673 1243 673 1243 673 1114 c 0,60,61
 673 978 673 978 580 886 c 256,62,63
 489 794 489 794 353 794 c 256,64,65
 217 794 217 794 126 886 c 256,66,67
 33 978 33 978 33 1114 c 256,52,53
EndSplineSet
EndChar
StartChar: ampersand
Encoding: 38 38 9
Width: 1234
VWidth: 3393
Flags: W
HStem: -30 159<292.757 632.89> 1367 154<570.228 878.357>
VStem: -20 179<257.055 575.731> 308 174<1047.59 1284.79> 1021 170<498.586 761>
Fore
875 350 m 1,0,1
 1001 486 1001 486 1021 761 c 1,2,-1
 1191 761 l 1,3,4
 1175 590 1175 590 1113.5 456.5 c 128,-1,5
 1052 323 1052 323 943 220 c 1,6,-1
 1069 0 l 1,7,-1
 868 0 l 1,8,-1
 810 113 l 1,9,10
 618 -30 618 -30 411 -30 c 0,11,12
 217 -30 217 -30 98 78 c 256,13,14
 -20 187 -20 187 -20 360 c 0,15,16
 -20 529 -20 529 78 674 c 128,-1,17
 176 819 176 819 366 920 c 1,18,19
 308 1029 308 1029 308 1137 c 0,20,21
 308 1311 308 1311 431 1415 c 0,22,23
 557 1521 557 1521 764 1521 c 0,24,25
 900 1521 900 1521 1007 1476 c 1,26,-1
 974 1292 l 1,27,28
 933 1331 933 1331 871.5 1349 c 128,-1,29
 810 1367 810 1367 732 1367 c 0,30,31
 621 1367 621 1367 553 1311 c 0,32,33
 482 1256 482 1256 482 1157 c 0,34,35
 482 1110 482 1110 505.5 1045.5 c 128,-1,36
 529 981 529 981 567 910 c 2,37,-1
 875 350 l 1,0,1
431 797 m 1,38,39
 159 648 159 648 159 408 c 0,40,41
 159 285 159 285 244 210 c 0,42,43
 333 129 333 129 457 129 c 0,44,45
 593 129 593 129 744 240 c 1,46,-1
 431 797 l 1,38,39
EndSplineSet
EndChar
StartChar: quotesingle
Encoding: 39 39 10
Width: 1234
VWidth: 3393
Flags: W
HStem: 1473 20G<529 703>
VStem: 529 174<940 1493 940 1493 940 940>
Fore
703 940 m 1,0,-1
 529 940 l 1,1,-1
 529 1493 l 1,2,-1
 703 1493 l 1,3,-1
 703 940 l 1,0,-1
EndSplineSet
EndChar
StartChar: parenleft
Encoding: 40 40 11
Width: 1234
VWidth: 3393
Flags: W
VStem: 373 194<64.4358 705.165>
Fore
1042 1554 m 1,0,1
 567 949 567 949 567 340 c 0,2,3
 567 58 567 58 686 -272 c 1,4,-1
 525 -272 l 1,5,6
 447 -78 447 -78 410 78 c 128,-1,7
 373 234 373 234 373 376 c 0,8,9
 373 683 373 683 500.5 981 c 128,-1,10
 628 1279 628 1279 882 1554 c 1,11,-1
 1042 1554 l 1,0,1
EndSplineSet
EndChar
StartChar: parenright
Encoding: 41 41 12
Width: 1234
VWidth: 3393
Flags: W
VStem: 625 197<575.013 1214.9>
Fore
149 -272 m 1,0,1
 625 333 625 333 625 943 c 0,2,3
 625 1243 625 1243 505 1554 c 1,4,-1
 664 1554 l 1,5,6
 744 1364 744 1364 783 1208 c 128,-1,7
 822 1052 822 1052 822 910 c 0,8,9
 822 605 822 605 692.5 306 c 128,-1,10
 563 7 563 7 308 -272 c 1,11,-1
 149 -272 l 1,0,1
EndSplineSet
EndChar
StartChar: asterisk
Encoding: 42 42 13
Width: 1234
VWidth: 3393
Flags: W
HStem: 1501 20G<560 676>
VStem: 560 116<587 964 1143 1521 587 1521 587 587>
Fore
709 1056 m 1,0,-1
 1069 858 l 1,1,-1
 1011 761 l 1,2,-1
 676 964 l 1,3,-1
 676 587 l 1,4,-1
 560 587 l 1,5,-1
 560 964 l 1,6,-1
 224 761 l 1,7,-1
 166 858 l 1,8,-1
 525 1056 l 1,9,-1
 166 1249 l 1,10,-1
 224 1347 l 1,11,-1
 560 1143 l 1,12,-1
 560 1521 l 1,13,-1
 676 1521 l 1,14,-1
 676 1143 l 1,15,-1
 1011 1347 l 1,16,-1
 1069 1249 l 1,17,-1
 709 1056 l 1,0,-1
EndSplineSet
EndChar
StartChar: plus
Encoding: 43 43 14
Width: 1234
VWidth: 3393
Flags: W
HStem: 557 169<88 534 703 1147>
VStem: 534 169<113 557 726 1171>
Fore
703 726 m 1,0,-1
 1147 726 l 1,1,-1
 1147 557 l 1,2,-1
 703 557 l 1,3,-1
 703 113 l 1,4,-1
 534 113 l 1,5,-1
 534 557 l 1,6,-1
 88 557 l 1,7,-1
 88 726 l 1,8,-1
 534 726 l 1,9,-1
 534 1171 l 1,10,-1
 703 1171 l 1,11,-1
 703 726 l 1,0,-1
EndSplineSet
EndChar
StartChar: comma
Encoding: 44 44 15
Width: 1234
VWidth: 3393
Flags: W
HStem: -288 590<356 668 668 668>
Fore
668 302 m 1,0,-1
 628 94 l 1,1,-1
 356 -288 l 1,2,-1
 204 -288 l 1,3,-1
 376 94 l 1,4,-1
 418 302 l 1,5,-1
 668 302 l 1,0,-1
EndSplineSet
EndChar
StartChar: hyphen
Encoding: 45 45 16
Width: 1234
VWidth: 3393
Flags: W
HStem: 479 166<336 825 302 858 336 336>
Fore
858 645 m 1,0,-1
 825 479 l 1,1,-1
 302 479 l 1,2,-1
 336 645 l 1,3,-1
 858 645 l 1,0,-1
EndSplineSet
EndChar
StartChar: period
Encoding: 46 46 17
Width: 1234
VWidth: 3393
Flags: W
HStem: 0 302<414 608 353 664 414 414>
Fore
664 302 m 1,0,-1
 608 0 l 1,1,-1
 353 0 l 1,2,-1
 414 302 l 1,3,-1
 664 302 l 1,0,-1
EndSplineSet
EndChar
StartChar: slash
Encoding: 47 47 18
Width: 1234
VWidth: 3393
Flags: W
HStem: 1473 20G<857.893 1059>
Fore
868 1493 m 1,0,-1
 1059 1493 l 1,1,-1
 204 -191 l 1,2,-1
 17 -191 l 1,3,-1
 868 1493 l 1,0,-1
EndSplineSet
EndChar
StartChar: zero
Encoding: 48 48 19
Width: 1234
VWidth: 3393
Flags: W
HStem: -30 166<378.23 645.639> 618 268<523.408 707.963> 1357 164<586.946 859.815>
VStem: 98 200<219.65 796.359> 482 269<656.377 843.716> 933 204<790.224 1278.95>
Fore
482 751 m 256,0,1
 482 804 482 804 522 845 c 256,2,3
 563 886 563 886 618 886 c 0,4,5
 676 886 676 886 709 845 c 0,6,7
 751 804 751 804 751 751 c 0,8,9
 751 699 751 699 713 655 c 1,10,11
 668 618 668 618 618 618 c 256,12,13
 567 618 567 618 522 655 c 0,14,15
 482 696 482 696 482 751 c 256,0,1
1137 1021 m 0,16,17
 1137 923 1137 923 1122 821 c 128,-1,18
 1107 719 1107 719 1079 608 c 0,19,20
 1021 383 1021 383 936 249 c 0,21,22
 771 -30 771 -30 482 -30 c 0,23,24
 98 -30 98 -30 98 476 c 0,25,26
 98 661 98 661 156 886 c 256,27,28
 214 1110 214 1110 298 1246 c 0,29,30
 383 1389 383 1389 491.5 1455 c 128,-1,31
 600 1521 600 1521 751 1521 c 0,32,33
 946 1521 946 1521 1041.5 1398.5 c 128,-1,34
 1137 1276 1137 1276 1137 1021 c 0,16,17
505 136 m 0,35,36
 676 136 676 136 771 336 c 0,37,38
 838 469 838 469 886 683 c 0,39,40
 933 893 933 893 933 1065 c 0,41,42
 933 1218 933 1218 884 1287.5 c 128,-1,43
 835 1357 835 1357 726 1357 c 0,44,45
 648 1357 648 1357 578.5 1306.5 c 128,-1,46
 509 1256 509 1256 462 1160 c 0,47,48
 394 1021 394 1021 346 810 c 0,49,50
 298 593 298 593 298 414 c 0,51,52
 298 136 298 136 505 136 c 0,35,36
EndSplineSet
EndChar
StartChar: one
Encoding: 49 49 20
Width: 1234
VWidth: 3393
Flags: W
HStem: 0 169<156 469 673 946 123 981 156 156> 1294 20G<604.75 689.087> 1473 20G<626.563 930>
Fore
469 169 m 1,0,-1
 693 1314 l 1,1,-1
 340 1234 l 1,2,-1
 373 1422 l 1,3,-1
 726 1493 l 1,4,-1
 930 1493 l 1,5,-1
 673 169 l 1,6,-1
 981 169 l 1,7,-1
 946 0 l 1,8,-1
 123 0 l 1,9,-1
 156 169 l 1,10,-1
 469 169 l 1,0,-1
EndSplineSet
EndChar
StartChar: two
Encoding: 50 50 21
Width: 1234
VWidth: 3393
Flags: W
HStem: 0 169<268 920> 1354 167<456.287 852.867>
VStem: 926 201<1017.12 1282.88>
Fore
953 169 m 1,0,-1
 920 0 l 1,1,-1
 7 0 l 1,2,-1
 41 169 l 1,3,-1
 350 444 l 1,4,-1
 391 479 l 2,5,6
 926 953 926 953 926 1153 c 0,7,8
 926 1249 926 1249 863 1301.5 c 128,-1,9
 800 1354 800 1354 686 1354 c 0,10,11
 502 1354 502 1354 255 1218 c 1,12,-1
 295 1422 l 1,13,14
 522 1521 522 1521 713 1521 c 0,15,16
 900 1521 900 1521 1014 1425 c 0,17,18
 1127 1331 1127 1331 1127 1171 c 0,19,20
 1127 1075 1127 1075 1092 988 c 0,21,22
 1056 903 1056 903 974 800 c 0,23,24
 958 777 958 777 929 748 c 128,-1,25
 900 719 900 719 855 679 c 256,26,27
 810 638 810 638 744.5 580 c 128,-1,28
 679 522 679 522 587 444 c 2,29,-1
 268 169 l 1,30,-1
 953 169 l 1,0,-1
EndSplineSet
EndChar
StartChar: three
Encoding: 51 51 22
Width: 1234
VWidth: 3393
Flags: W
HStem: -30 173<152.143 617.722> 716 166<404 710.75> 1350 171<472.849 831.227>
VStem: 804 200<312.818 628.194> 903 201<1011.34 1282.06>
Fore
764 800 m 1,0,1
 878 780 878 780 941 699 c 128,-1,2
 1004 618 1004 618 1004 489 c 0,3,4
 1004 255 1004 255 838 113 c 256,5,6
 673 -30 673 -30 391 -30 c 0,7,8
 181 -30 181 -30 -17 45 c 1,9,-1
 20 249 l 1,10,11
 200 143 200 143 401 143 c 0,12,13
 580 143 580 143 693 234 c 256,14,15
 804 326 804 326 804 479 c 0,16,17
 804 716 804 716 525 716 c 2,18,-1
 370 716 l 1,19,-1
 404 882 l 1,20,-1
 557 882 l 2,21,22
 719 882 719 882 807 958 c 0,23,24
 903 1032 903 1032 903 1157 c 0,25,26
 903 1350 903 1350 648 1350 c 0,27,28
 489 1350 489 1350 262 1273 c 1,29,-1
 298 1460 l 1,30,31
 421 1493 421 1493 518 1507 c 128,-1,32
 615 1521 615 1521 699 1521 c 0,33,34
 893 1521 893 1521 994 1432 c 0,35,36
 1104 1344 1104 1344 1104 1195 c 0,37,38
 1104 1042 1104 1042 1014 936 c 256,39,40
 926 832 926 832 764 800 c 1,0,1
EndSplineSet
EndChar
StartChar: four
Encoding: 52 52 23
Width: 1234
VWidth: 3393
Flags: W
HStem: 0 21G<590 790.989> 356 163<217 658 890 1059> 1473 20G<831.362 1079>
Fore
217 519 m 1,0,-1
 693 519 l 1,1,-1
 842 1283 l 1,2,-1
 217 519 l 1,0,-1
1079 1493 m 1,3,-1
 890 519 l 1,4,-1
 1089 519 l 1,5,-1
 1059 356 l 1,6,-1
 858 356 l 1,7,-1
 787 0 l 1,8,-1
 590 0 l 1,9,-1
 658 356 l 1,10,-1
 23 356 l 1,11,-1
 61 547 l 1,12,-1
 848 1493 l 1,13,-1
 1079 1493 l 1,3,-1
EndSplineSet
EndChar
StartChar: five
Encoding: 53 53 24
Width: 1234
VWidth: 3393
Flags: W
HStem: -30 169<162.325 600.36> 822 166<481.611 712.71> 1324 169<505 1075>
VStem: 832 200<364.058 706.251>
Fore
1110 1493 m 1,0,-1
 1075 1324 l 1,1,-1
 505 1324 l 1,2,-1
 431 958 l 1,3,4
 529 988 529 988 615 988 c 0,5,6
 800 988 800 988 916 875 c 0,7,8
 1032 761 1032 761 1032 577 c 0,9,10
 1032 447 1032 447 978 336 c 0,11,12
 926 217 926 217 832 133 c 0,13,14
 655 -30 655 -30 370 -30 c 0,15,16
 159 -30 159 -30 3 33 c 1,17,-1
 45 240 l 1,18,19
 214 139 214 139 401 139 c 0,20,21
 583 139 583 139 709 258 c 0,22,23
 832 379 832 379 832 547 c 0,24,25
 832 676 832 676 751 751 c 0,26,27
 668 822 668 822 525 822 c 0,28,29
 363 822 363 822 207 744 c 1,30,-1
 353 1493 l 1,31,-1
 1110 1493 l 1,0,-1
EndSplineSet
EndChar
StartChar: six
Encoding: 54 54 25
Width: 1234
VWidth: 3393
Flags: W
HStem: -30 159<380.38 671.901> 832 156<501.681 783.773> 1350 171<635.376 1035.52>
VStem: 91 201<221.406 609.142> 862 203<365.015 753.739>
Fore
862 593 m 0,0,1
 862 709 862 709 804.5 770.5 c 128,-1,2
 747 832 747 832 638 832 c 0,3,4
 492 832 492 832 394 703 c 0,5,6
 292 580 292 580 292 386 c 0,7,8
 292 268 292 268 353 198.5 c 128,-1,9
 414 129 414 129 522 129 c 0,10,11
 668 129 668 129 764 265 c 0,12,13
 862 401 862 401 862 593 c 0,0,1
1092 1276 m 1,14,15
 971 1350 971 1350 825 1350 c 0,16,17
 434 1350 434 1350 326 780 c 1,18,19
 462 988 462 988 693 988 c 0,20,21
 872 988 872 988 968.5 887.5 c 128,-1,22
 1065 787 1065 787 1065 605 c 0,23,24
 1065 486 1065 486 1024 366 c 0,25,26
 984 255 984 255 916 162 c 0,27,28
 761 -30 761 -30 515 -30 c 0,29,30
 312 -30 312 -30 201.5 87 c 128,-1,31
 91 204 91 204 91 421 c 0,32,33
 91 590 91 590 133 767 c 0,34,35
 149 855 149 855 176.5 936 c 128,-1,36
 204 1017 204 1017 237 1092 c 0,37,38
 437 1521 437 1521 848 1521 c 0,39,40
 998 1521 998 1521 1130 1463 c 1,41,-1
 1092 1276 l 1,14,15
EndSplineSet
EndChar
StartChar: seven
Encoding: 55 55 26
Width: 1234
VWidth: 3393
Flags: W
HStem: 0 21G<172 402.512> 1324 169<275 953>
Fore
1215 1493 m 1,0,-1
 1198 1402 l 1,1,-1
 391 0 l 1,2,-1
 172 0 l 1,3,-1
 953 1324 l 1,4,-1
 244 1324 l 1,5,-1
 275 1493 l 1,6,-1
 1215 1493 l 1,0,-1
EndSplineSet
EndChar
StartChar: eight
Encoding: 56 56 27
Width: 1234
VWidth: 3393
Flags: W
HStem: -30 156<339.746 668.466> 709 156<494.08 729.948> 1364 157<546.582 855.882>
VStem: 41 208<211.941 549.125> 214 204<938.102 1239.8> 822 207<282.9 616.17> 926 201<1011.04 1294.22>
Fore
822 462 m 0,0,1
 822 580 822 580 755.5 644.5 c 128,-1,2
 689 709 689 709 570 709 c 0,3,4
 428 709 428 709 336 611 c 0,5,6
 249 519 249 519 249 360 c 0,7,8
 249 252 249 252 312 191 c 0,9,10
 386 126 386 126 492 126 c 0,11,12
 641 126 641 126 729 220 c 0,13,14
 822 312 822 312 822 462 c 0,0,1
431 794 m 1,15,16
 214 872 214 872 214 1082 c 0,17,18
 214 1263 214 1263 363 1392 c 0,19,20
 505 1521 505 1521 726 1521 c 0,21,22
 906 1521 906 1521 1014 1432 c 0,23,24
 1127 1341 1127 1341 1127 1195 c 0,25,26
 1127 1052 1127 1052 1032 936 c 0,27,28
 930 825 930 825 774 784 c 1,29,30
 1029 722 1029 722 1029 454 c 0,31,32
 1029 240 1029 240 875 109 c 0,33,34
 719 -30 719 -30 486 -30 c 0,35,36
 275 -30 275 -30 159 75 c 0,37,38
 41 176 41 176 41 353 c 0,39,40
 41 522 41 522 146 638 c 0,41,42
 249 757 249 757 431 794 c 1,15,16
709 1364 m 0,43,44
 580 1364 580 1364 499 1283 c 0,45,46
 418 1208 418 1208 418 1079 c 0,47,48
 418 981 418 981 476 923 c 128,-1,49
 534 865 534 865 635 865 c 0,50,51
 761 865 761 865 842 953 c 0,52,53
 926 1039 926 1039 926 1168 c 0,54,55
 926 1259 926 1259 865 1311 c 0,56,57
 810 1364 810 1364 709 1364 c 0,43,44
EndSplineSet
EndChar
StartChar: nine
Encoding: 57 57 28
Width: 1234
VWidth: 3393
Flags: W
HStem: -30 173<156.278 557> 505 156<405.44 689.469> 1364 157<520.296 813.498>
VStem: 126 204<738.663 1128.05> 900 204<884.632 1274.94>
Fore
330 900 m 0,0,1
 330 784 330 784 387 722.5 c 128,-1,2
 444 661 444 661 553 661 c 0,3,4
 699 661 699 661 797 787 c 0,5,6
 900 916 900 916 900 1107 c 0,7,8
 900 1228 900 1228 840 1296 c 128,-1,9
 780 1364 780 1364 673 1364 c 0,10,11
 522 1364 522 1364 428 1228 c 0,12,13
 330 1092 330 1092 330 900 c 0,0,1
98 217 m 1,14,15
 220 143 220 143 366 143 c 0,16,17
 757 143 757 143 865 713 c 1,18,19
 729 505 729 505 499 505 c 0,20,21
 320 505 320 505 223 604 c 128,-1,22
 126 703 126 703 126 890 c 0,23,24
 126 1011 126 1011 166 1127 c 256,25,26
 207 1243 207 1243 275 1327 c 0,27,28
 434 1521 434 1521 676 1521 c 0,29,30
 882 1521 882 1521 988 1405 c 0,31,32
 1104 1289 1104 1289 1104 1072 c 0,33,34
 1104 906 1104 906 1062 726 c 0,35,36
 1042 638 1042 638 1016.5 557 c 128,-1,37
 991 476 991 476 953 401 c 0,38,39
 761 -30 761 -30 343 -30 c 0,40,41
 194 -30 194 -30 65 30 c 1,42,-1
 98 217 l 1,14,15
EndSplineSet
EndChar
StartChar: colon
Encoding: 58 58 29
Width: 1234
VWidth: 3393
Flags: W
HStem: 0 21G<343 600.841>
VStem: 343 461<0 1062 49.2634 307.117>
Fore
804 1062 m 1,0,-1
 744 761 l 1,1,-1
 492 761 l 1,2,-1
 553 1062 l 1,3,-1
 804 1062 l 1,0,-1
655 302 m 1,4,-1
 597 0 l 1,5,-1
 343 0 l 1,6,-1
 404 302 l 1,7,-1
 655 302 l 1,4,-1
EndSplineSet
EndChar
StartChar: semicolon
Encoding: 59 59 30
Width: 1234
VWidth: 3393
Flags: W
VStem: 204 600<-288 1065 438.949 701.409>
Fore
655 302 m 1,0,-1
 615 94 l 1,1,-1
 356 -288 l 1,2,-1
 204 -288 l 1,3,-1
 363 94 l 1,4,-1
 404 302 l 1,5,-1
 655 302 l 1,0,-1
804 1065 m 1,6,-1
 744 761 l 1,7,-1
 492 761 l 1,8,-1
 553 1065 l 1,9,-1
 804 1065 l 1,6,-1
EndSplineSet
EndChar
StartChar: less
Encoding: 60 60 31
Width: 1234
VWidth: 3393
Flags: W
HStem: 143 1000<1147 1147 1147 1147>
Fore
295 641 m 1,0,-1
 1147 326 l 1,1,-1
 1147 143 l 1,2,-1
 88 560 l 1,3,-1
 88 726 l 1,4,-1
 1147 1143 l 1,5,-1
 1147 961 l 1,6,-1
 295 641 l 1,0,-1
EndSplineSet
EndChar
StartChar: equal
Encoding: 61 61 32
Width: 1234
VWidth: 3393
Flags: W
HStem: 353 172<88 1147> 761 169<88 1147>
Fore
1147 525 m 1,0,-1
 1147 353 l 1,1,-1
 88 353 l 1,2,-1
 88 525 l 1,3,-1
 1147 525 l 1,0,-1
1147 930 m 1,4,-1
 1147 761 l 1,5,-1
 88 761 l 1,6,-1
 88 930 l 1,7,-1
 1147 930 l 1,4,-1
EndSplineSet
EndChar
StartChar: greater
Encoding: 62 62 33
Width: 1234
VWidth: 3393
Flags: W
HStem: 143 1000<88 88 88 88>
Fore
88 1143 m 1,0,-1
 1147 726 l 1,1,-1
 1147 560 l 1,2,-1
 88 143 l 1,3,-1
 88 326 l 1,4,-1
 940 641 l 1,5,-1
 88 961 l 1,6,-1
 88 1143 l 1,0,-1
EndSplineSet
EndChar
StartChar: question
Encoding: 63 63 34
Width: 1234
VWidth: 3393
Flags: W
HStem: 0 255<383 537> 1357 164<529.021 863.585>
VStem: 920 200<1122.99 1306.29>
Fore
418 401 m 1,0,-1
 447 557 l 2,1,2
 454 605 454 605 470 642 c 128,-1,3
 486 679 486 679 502 713 c 0,4,5
 547 777 547 777 655 872 c 2,6,-1
 764 961 l 2,7,8
 848 1036 848 1036 884 1089.5 c 128,-1,9
 920 1143 920 1143 920 1201 c 0,10,11
 920 1276 920 1276 863.5 1316.5 c 128,-1,12
 807 1357 807 1357 709 1357 c 0,13,14
 631 1357 631 1357 531 1323 c 128,-1,15
 431 1289 431 1289 326 1221 c 1,16,-1
 363 1408 l 1,17,18
 583 1521 583 1521 774 1521 c 0,19,20
 930 1521 930 1521 1024 1438 c 256,21,22
 1120 1357 1120 1357 1120 1231 c 0,23,24
 1120 1185 1120 1185 1110 1141 c 128,-1,25
 1100 1097 1100 1097 1072 1059 c 0,26,27
 1024 978 1024 978 893 868 c 2,28,-1
 787 784 l 2,29,30
 706 713 706 713 676 661 c 0,31,32
 658 635 658 635 648 601 c 128,-1,33
 638 567 638 567 631 525 c 2,34,-1
 608 401 l 1,35,-1
 418 401 l 1,0,-1
587 255 m 1,36,-1
 537 0 l 1,37,-1
 333 0 l 1,38,-1
 383 255 l 1,39,-1
 587 255 l 1,36,-1
EndSplineSet
EndChar
StartChar: at
Encoding: 64 64 35
Width: 1234
VWidth: 3393
Flags: W
HStem: -320 144<392.341 835.844> 116 146<582.867 836.63> 832 146<678.049 947.612> 1256 143<585.47 968.108>
VStem: -30 156<114.043 589.98> 366 159<321.2 661.736> 1072 138<905.176 970.608 970.608 979.638 975.123 1150.32>
Fore
709 262 m 0,0,1
 838 262 838 262 923 366 c 256,2,3
 1007 472 1007 472 1007 625 c 0,4,5
 1007 722 1007 722 958.5 777 c 128,-1,6
 910 832 910 832 822 832 c 0,7,8
 699 832 699 832 611 726 c 0,9,10
 525 621 525 621 525 469 c 0,11,12
 525 370 525 370 573 316 c 128,-1,13
 621 262 621 262 709 262 c 0,0,1
916 136 m 1,14,-1
 936 249 l 1,15,16
 832 116 832 116 661 116 c 0,17,18
 529 116 529 116 447 207 c 256,19,20
 366 298 366 298 366 444 c 0,21,22
 366 664 366 664 499 822 c 256,23,24
 631 978 631 978 810 978 c 0,25,26
 896 978 896 978 960 942 c 128,-1,27
 1024 906 1024 906 1056 845 c 1,28,-1
 1062 890 l 2,29,30
 1069 926 1069 926 1072 950 c 128,-1,31
 1075 974 1075 974 1075 991 c 0,32,33
 1075 1117 1075 1117 1000.5 1186.5 c 128,-1,34
 926 1256 926 1256 797 1256 c 0,35,36
 648 1256 648 1256 522 1178 c 0,37,38
 391 1097 391 1097 298 958 c 0,39,40
 214 832 214 832 170 683 c 128,-1,41
 126 534 126 534 126 376 c 0,42,43
 126 119 126 119 255 -30 c 0,44,45
 383 -176 383 -176 608 -176 c 0,46,47
 719 -176 719 -176 852 -126 c 1,48,-1
 900 -258 l 1,49,50
 767 -320 767 -320 608 -320 c 0,51,52
 323 -320 323 -320 143 -126 c 0,53,54
 -30 68 -30 68 -30 379 c 0,55,56
 -30 479 -30 479 -11.5 581 c 128,-1,57
 7 683 7 683 41 780 c 0,58,59
 119 984 119 984 237 1127 c 0,60,61
 353 1259 353 1259 495 1327 c 0,62,63
 645 1399 645 1399 800 1399 c 0,64,65
 994 1399 994 1399 1104 1292 c 0,66,67
 1215 1191 1215 1191 1215 1014 c 0,68,69
 1215 984 1215 984 1210 945 c 128,-1,70
 1205 906 1205 906 1198 858 c 2,71,-1
 1059 136 l 1,72,-1
 916 136 l 1,14,-1
EndSplineSet
EndChar
StartChar: A
Encoding: 65 65 36
Width: 1234
VWidth: 3393
Flags: W
HStem: 0 21G<-104 122.309 850.107 1052> 391 162<370 800> 1473 20G<631.02 888.224>
Fore
370 553 m 1,0,-1
 800 553 l 1,1,-1
 736 1327 l 1,2,-1
 370 553 l 1,0,-1
886 1493 m 1,3,-1
 1052 0 l 1,4,-1
 852 0 l 1,5,-1
 815 391 l 1,6,-1
 295 391 l 1,7,-1
 113 0 l 1,8,-1
 -104 0 l 1,9,-1
 641 1493 l 1,10,-1
 886 1493 l 1,3,-1
EndSplineSet
EndChar
StartChar: B
Encoding: 66 66 37
Width: 1234
VWidth: 3393
Flags: W
HStem: 0 166<258 726.937> 713 165<398 802.858> 1327 166<482 907.011>
VStem: 886 199<314.1 636.733> 964 204<995.207 1274.65>
Fore
258 166 m 1,0,-1
 505 166 l 2,1,2
 886 166 886 166 886 505 c 0,3,4
 886 713 886 713 608 713 c 2,5,-1
 366 713 l 1,6,-1
 258 166 l 1,0,-1
398 878 m 1,7,-1
 641 878 l 2,8,9
 794 878 794 878 875 949 c 0,10,11
 964 1017 964 1017 964 1150 c 0,12,13
 964 1246 964 1246 909.5 1286.5 c 128,-1,14
 855 1327 855 1327 726 1327 c 2,15,-1
 482 1327 l 1,16,-1
 398 878 l 1,7,-1
757 1493 m 2,17,18
 1168 1493 1168 1493 1168 1181 c 0,19,20
 1168 1024 1168 1024 1075 923 c 256,21,22
 984 822 984 822 828 800 c 1,23,24
 953 777 953 777 1019 697.5 c 128,-1,25
 1085 618 1085 618 1085 495 c 0,26,27
 1085 262 1085 262 926 129 c 0,28,29
 767 0 767 0 476 0 c 2,30,-1
 23 0 l 1,31,-1
 312 1493 l 1,32,-1
 757 1493 l 2,17,18
EndSplineSet
EndChar
StartChar: C
Encoding: 67 67 38
Width: 1234
VWidth: 3393
Flags: W
HStem: -30 166<461.281 837.429> 1357 164<703.451 1064.17>
VStem: 116 210<279.79 812.576>
Fore
943 55 m 1,0,1
 777 -30 777 -30 597 -30 c 0,2,3
 366 -30 366 -30 240 104 c 0,4,5
 116 234 116 234 116 479 c 0,6,7
 116 699 116 699 187 913 c 0,8,9
 255 1133 255 1133 370 1266 c 0,10,11
 479 1399 479 1399 605.5 1460 c 128,-1,12
 732 1521 732 1521 900 1521 c 0,13,14
 1062 1521 1062 1521 1215 1438 c 1,15,-1
 1171 1231 l 1,16,17
 1046 1357 1046 1357 886 1357 c 0,18,19
 699 1357 699 1357 557 1195 c 0,20,21
 505 1130 505 1130 463 1052 c 128,-1,22
 421 974 421 974 391 878 c 0,23,24
 326 689 326 689 326 492 c 0,25,26
 326 320 326 320 404 228 c 128,-1,27
 482 136 482 136 631 136 c 0,28,29
 800 136 800 136 984 262 c 1,30,-1
 943 55 l 1,0,1
EndSplineSet
EndChar
StartChar: D
Encoding: 68 68 39
Width: 1234
VWidth: 3393
Flags: W
HStem: 0 166<227 585.078> 1327 166<454 798.579>
VStem: 926 204<775.777 1201.62>
Fore
326 166 m 1,0,1
 509 166 509 166 621 227 c 0,2,3
 736 295 736 295 800 431 c 0,4,5
 828 489 828 489 850 558.5 c 128,-1,6
 872 628 872 628 890 706 c 0,7,8
 906 787 906 787 916 860 c 128,-1,9
 926 933 926 933 926 1001 c 0,10,11
 926 1178 926 1178 842 1253 c 0,12,13
 764 1327 764 1327 567 1327 c 2,14,-1
 454 1327 l 1,15,-1
 227 166 l 1,16,-1
 326 166 l 1,0,1
587 1493 m 1,17,18
 1130 1493 1130 1493 1130 994 c 0,19,20
 1130 832 1130 832 1089 658 c 0,21,22
 1069 570 1069 570 1040 495.5 c 128,-1,23
 1011 421 1011 421 978 353 c 0,24,25
 868 159 868 159 716 81 c 0,26,27
 563 0 563 0 295 0 c 2,28,-1
 -7 0 l 1,29,-1
 282 1493 l 1,30,-1
 587 1493 l 1,17,18
EndSplineSet
EndChar
StartChar: E
Encoding: 69 69 40
Width: 1234
VWidth: 3393
Flags: W
HStem: 0 169<288 961> 713 169<428 1049> 1324 169<512 1198>
Fore
1231 1493 m 1,0,-1
 1198 1324 l 1,1,-1
 512 1324 l 1,2,-1
 428 882 l 1,3,-1
 1079 882 l 1,4,-1
 1049 713 l 1,5,-1
 394 713 l 1,6,-1
 288 169 l 1,7,-1
 991 169 l 1,8,-1
 961 0 l 1,9,-1
 55 0 l 1,10,-1
 343 1493 l 1,11,-1
 1231 1493 l 1,0,-1
EndSplineSet
EndChar
StartChar: F
Encoding: 70 70 41
Width: 1234
VWidth: 3393
Flags: W
HStem: 0 21G<91 298.899> 713 169<469 1049> 1324 169<553 1231>
Fore
1263 1493 m 1,0,-1
 1231 1324 l 1,1,-1
 553 1324 l 1,2,-1
 469 882 l 1,3,-1
 1079 882 l 1,4,-1
 1049 713 l 1,5,-1
 434 713 l 1,6,-1
 295 0 l 1,7,-1
 91 0 l 1,8,-1
 383 1493 l 1,9,-1
 1263 1493 l 1,0,-1
EndSplineSet
EndChar
StartChar: G
Encoding: 71 71 42
Width: 1234
VWidth: 3393
Flags: W
HStem: -30 166<422.941 767.488> 600 167<693 878> 1357 164<656.691 1026.76>
VStem: 78 210<278.894 705.727>
Fore
971 94 m 1,0,1
 794 -30 794 -30 560 -30 c 256,2,3
 326 -30 326 -30 202 103.5 c 128,-1,4
 78 237 78 237 78 489 c 0,5,6
 78 580 78 580 95.5 682 c 128,-1,7
 113 784 113 784 143 893 c 0,8,9
 214 1130 214 1130 330 1266 c 0,10,11
 437 1399 437 1399 566.5 1460 c 128,-1,12
 696 1521 696 1521 862 1521 c 0,13,14
 1024 1521 1024 1521 1178 1438 c 1,15,-1
 1137 1231 l 1,16,17
 1007 1357 1007 1357 848 1357 c 0,18,19
 648 1357 648 1357 509 1195 c 0,20,21
 421 1089 421 1089 356 890 c 0,22,23
 288 655 288 655 288 492 c 0,24,25
 288 320 288 320 366 228 c 128,-1,26
 444 136 444 136 590 136 c 0,27,28
 729 136 729 136 804 207 c 1,29,-1
 878 600 l 1,30,-1
 661 600 l 1,31,-1
 693 767 l 1,32,-1
 1104 767 l 1,33,-1
 971 94 l 1,0,1
EndSplineSet
EndChar
StartChar: H
Encoding: 72 72 43
Width: 1234
VWidth: 3393
Flags: W
HStem: 0 21G<-7 200.815 751 952.938> 713 169<366 890> 1473 20G<278.129 486 1035.1 1243>
Fore
486 1493 m 1,0,-1
 366 882 l 1,1,-1
 920 882 l 1,2,-1
 1039 1493 l 1,3,-1
 1243 1493 l 1,4,-1
 949 0 l 1,5,-1
 751 0 l 1,6,-1
 890 713 l 1,7,-1
 333 713 l 1,8,-1
 197 0 l 1,9,-1
 -7 0 l 1,10,-1
 282 1493 l 1,11,-1
 486 1493 l 1,0,-1
EndSplineSet
EndChar
StartChar: I
Encoding: 73 73 44
Width: 1234
VWidth: 3393
Flags: W
HStem: 0 169<91 404 608 890> 1324 169<346 628 832 1143>
Fore
1178 1493 m 1,0,-1
 1143 1324 l 1,1,-1
 832 1324 l 1,2,-1
 608 169 l 1,3,-1
 920 169 l 1,4,-1
 890 0 l 1,5,-1
 58 0 l 1,6,-1
 91 169 l 1,7,-1
 404 169 l 1,8,-1
 628 1324 l 1,9,-1
 312 1324 l 1,10,-1
 346 1493 l 1,11,-1
 1178 1493 l 1,0,-1
EndSplineSet
EndChar
StartChar: J
Encoding: 74 74 45
Width: 1234
VWidth: 3393
Flags: W
HStem: -30 166<219.91 555.007> 1324 169<519 865>
Fore
20 298 m 1,0,1
 166 136 166 136 379 136 c 0,2,3
 519 136 519 136 590 207 c 0,4,5
 661 285 661 285 703 489 c 2,6,-1
 865 1324 l 1,7,-1
 486 1324 l 1,8,-1
 519 1493 l 1,9,-1
 1104 1493 l 1,10,-1
 906 489 l 2,11,12
 848 194 848 194 729 85 c 0,13,14
 605 -30 605 -30 370 -30 c 0,15,16
 272 -30 272 -30 173.5 -6.5 c 128,-1,17
 75 17 75 17 -23 61 c 1,18,-1
 20 298 l 1,0,1
EndSplineSet
EndChar
StartChar: K
Encoding: 75 75 46
Width: 1234
VWidth: 3393
Flags: W
HStem: 0 21G<-7 200.874 852.323 1079> 1473 20G<278.129 486 1080.93 1354>
Fore
486 1493 m 1,0,-1
 360 848 l 1,1,-1
 1104 1493 l 1,2,-1
 1354 1493 l 1,3,-1
 651 875 l 1,4,-1
 1079 0 l 1,5,-1
 862 0 l 1,6,-1
 502 744 l 1,7,-1
 308 573 l 1,8,-1
 197 0 l 1,9,-1
 -7 0 l 1,10,-1
 282 1493 l 1,11,-1
 486 1493 l 1,0,-1
EndSplineSet
EndChar
StartChar: L
Encoding: 76 76 47
Width: 1234
VWidth: 3393
Flags: W
HStem: 0 169<312 1001 78 1036 312 312> 1473 20G<366.088 570>
Fore
570 1493 m 1,0,-1
 312 169 l 1,1,-1
 1036 169 l 1,2,-1
 1001 0 l 1,3,-1
 78 0 l 1,4,-1
 370 1493 l 1,5,-1
 570 1493 l 1,0,-1
EndSplineSet
EndChar
StartChar: M
Encoding: 77 77 48
Width: 1234
VWidth: 3393
Flags: W
HStem: 0 21G<-58 129.873 815 1004.9> 1307 20G<1064.05 1071.08> 1473 20G<226.142 501.88 1010.09 1292>
Fore
499 1493 m 1,0,-1
 608 736 l 1,1,-1
 1021 1493 l 1,2,-1
 1292 1493 l 1,3,-1
 1001 0 l 1,4,-1
 815 0 l 1,5,-1
 1075 1327 l 1,6,-1
 641 534 l 1,7,-1
 499 534 l 1,8,-1
 383 1327 l 1,9,-1
 126 0 l 1,10,-1
 -58 0 l 1,11,-1
 230 1493 l 1,12,-1
 499 1493 l 1,0,-1
EndSplineSet
EndChar
StartChar: N
Encoding: 78 78 49
Width: 1234
VWidth: 3393
Flags: W
HStem: 0 21G<-7 190.916 688.695 952.938> 1473 20G<281.088 547.251 1042.06 1243>
Fore
543 1493 m 1,0,-1
 804 265 l 1,1,-1
 1046 1493 l 1,2,-1
 1243 1493 l 1,3,-1
 949 0 l 1,4,-1
 693 0 l 1,5,-1
 428 1231 l 1,6,-1
 187 0 l 1,7,-1
 -7 0 l 1,8,-1
 285 1493 l 1,9,-1
 543 1493 l 1,0,-1
EndSplineSet
EndChar
StartChar: O
Encoding: 79 79 50
Width: 1234
VWidth: 3393
Flags: W
HStem: -30 166<371.2 651.674> 1357 164<582.407 864.636>
VStem: 81 207<219.65 800.244> 943 210<792.906 1272.71>
Fore
502 136 m 0,0,1
 587 136 587 136 659.5 185 c 128,-1,2
 732 234 732 234 780 333 c 0,3,4
 819 408 819 408 847 494 c 128,-1,5
 875 580 875 580 900 683 c 0,6,7
 943 882 943 882 943 1079 c 0,8,9
 943 1357 943 1357 729 1357 c 0,10,11
 645 1357 645 1357 573.5 1306.5 c 128,-1,12
 502 1256 502 1256 454 1160 c 0,13,14
 379 1014 379 1014 333 807 c 0,15,16
 288 611 288 611 288 414 c 0,17,18
 288 136 288 136 502 136 c 0,0,1
1153 1021 m 0,19,20
 1153 913 1153 913 1130 784 c 128,-1,21
 1107 655 1107 655 1065 515 c 0,22,23
 1007 340 1007 340 930 220 c 0,24,25
 842 91 842 91 733.5 30.5 c 128,-1,26
 625 -30 625 -30 479 -30 c 0,27,28
 81 -30 81 -30 81 476 c 0,29,30
 81 696 81 696 169 978 c 0,31,32
 197 1069 197 1069 231 1142 c 128,-1,33
 265 1215 265 1215 302 1273 c 0,34,35
 391 1402 391 1402 499.5 1461.5 c 128,-1,36
 608 1521 608 1521 754 1521 c 0,37,38
 958 1521 958 1521 1055.5 1398.5 c 128,-1,39
 1153 1276 1153 1276 1153 1021 c 0,19,20
EndSplineSet
EndChar
StartChar: P
Encoding: 80 80 51
Width: 1234
VWidth: 3393
Flags: W
HStem: 0 21G<51 258.833> 600 167<404 832.83> 1327 166<512 925.036>
VStem: 1001 204<934.688 1254.4>
Fore
404 767 m 1,0,-1
 638 767 l 2,1,2
 804 767 804 767 903 862 c 0,3,4
 1001 961 1001 961 1001 1117 c 0,5,6
 1001 1327 1001 1327 747 1327 c 2,7,-1
 512 1327 l 1,8,-1
 404 767 l 1,0,-1
784 1493 m 2,9,10
 991 1493 991 1493 1098 1402 c 128,-1,11
 1205 1311 1205 1311 1205 1137 c 0,12,13
 1205 882 1205 882 1046 744 c 0,14,15
 882 600 882 600 605 600 c 2,16,-1
 370 600 l 1,17,-1
 255 0 l 1,18,-1
 51 0 l 1,19,-1
 343 1493 l 1,20,-1
 784 1493 l 2,9,10
EndSplineSet
EndChar
StartChar: Q
Encoding: 81 81 52
Width: 1234
VWidth: 3393
Flags: W
HStem: -27 163<367.466 505> 1357 164<582.407 864.636>
VStem: 81 207<218.356 800.244> 943 210<684.262 1272.71>
Fore
495 -27 m 2,0,1
 282 -27 282 -27 181 91 c 0,2,3
 81 210 81 210 81 476 c 0,4,5
 81 696 81 696 169 978 c 0,6,7
 197 1069 197 1069 231 1142 c 128,-1,8
 265 1215 265 1215 302 1273 c 0,9,10
 391 1402 391 1402 499.5 1461.5 c 128,-1,11
 608 1521 608 1521 754 1521 c 0,12,13
 958 1521 958 1521 1055.5 1398.5 c 128,-1,14
 1153 1276 1153 1276 1153 1021 c 0,15,16
 1153 855 1153 855 1097 631 c 0,17,18
 1036 401 1036 401 964 275 c 0,19,20
 855 78 855 78 693 10 c 1,21,-1
 845 -181 l 1,22,-1
 693 -272 l 1,23,-1
 505 -27 l 1,24,-1
 495 -27 l 2,0,1
502 136 m 0,25,26
 587 136 587 136 659.5 185 c 128,-1,27
 732 234 732 234 780 333 c 0,28,29
 819 408 819 408 847 494 c 128,-1,30
 875 580 875 580 900 683 c 0,31,32
 943 882 943 882 943 1079 c 0,33,34
 943 1357 943 1357 729 1357 c 0,35,36
 645 1357 645 1357 573.5 1306.5 c 128,-1,37
 502 1256 502 1256 454 1160 c 0,38,39
 379 1014 379 1014 333 807 c 0,40,41
 288 611 288 611 288 414 c 0,42,43
 288 136 288 136 502 136 c 0,25,26
EndSplineSet
EndChar
StartChar: R
Encoding: 82 82 53
Width: 1234
VWidth: 3393
Flags: W
HStem: 0 21G<13 217.994 894.362 1104> 631 166<370 691.842> 1327 166<476 871.756>
VStem: 949 204<945.599 1256.4>
Fore
767 706 m 1,0,1
 838 689 838 689 882 638 c 0,2,3
 926 583 926 583 981 408 c 2,4,-1
 1104 0 l 1,5,-1
 900 0 l 1,6,-1
 794 376 l 2,7,8
 747 537 747 537 696 583 c 0,9,10
 638 631 638 631 529 631 c 2,11,-1
 340 631 l 1,12,-1
 214 0 l 1,13,-1
 13 0 l 1,14,-1
 302 1493 l 1,15,-1
 719 1493 l 2,16,17
 926 1493 926 1493 1039.5 1405 c 128,-1,18
 1153 1317 1153 1317 1153 1153 c 0,19,20
 1153 974 1153 974 1049 848 c 0,21,22
 943 726 943 726 767 706 c 1,0,1
370 797 m 1,23,-1
 590 797 l 2,24,25
 757 797 757 797 852 882 c 0,26,27
 949 971 949 971 949 1110 c 0,28,29
 949 1221 949 1221 887 1274 c 128,-1,30
 825 1327 825 1327 686 1327 c 2,31,-1
 476 1327 l 1,32,-1
 370 797 l 1,23,-1
EndSplineSet
EndChar
StartChar: S
Encoding: 83 83 54
Width: 1234
VWidth: 3393
Flags: W
HStem: -30 166<240.477 679.985> 1357 164<549.442 977.397>
VStem: 197 189<955.721 1212.49> 848 201<291.759 571.948>
Fore
1110 1239 m 1,0,1
 943 1357 943 1357 761 1357 c 0,2,3
 593 1357 593 1357 492 1276 c 0,4,5
 386 1195 386 1195 386 1065 c 0,6,7
 386 998 386 998 437 949 c 0,8,9
 489 906 489 906 615 865 c 2,10,-1
 736 828 l 2,11,12
 900 777 900 777 974.5 694 c 128,-1,13
 1049 611 1049 611 1049 482 c 0,14,15
 1049 244 1049 244 882 109 c 0,16,17
 716 -30 716 -30 431 -30 c 0,18,19
 227 -30 227 -30 23 61 c 1,20,-1
 65 272 l 1,21,22
 262 136 262 136 479 136 c 0,23,24
 645 136 645 136 747 224 c 256,25,26
 848 312 848 312 848 447 c 0,27,28
 848 529 848 529 804 573 c 0,29,30
 767 615 767 615 628 658 c 2,31,-1
 525 693 l 2,32,33
 434 722 434 722 369.5 754.5 c 128,-1,34
 305 787 305 787 268 825 c 0,35,36
 197 896 197 896 197 1017 c 0,37,38
 197 1239 197 1239 360 1382 c 0,39,40
 522 1521 522 1521 790 1521 c 0,41,42
 953 1521 953 1521 1147 1442 c 1,43,-1
 1110 1239 l 1,0,1
EndSplineSet
EndChar
StartChar: T
Encoding: 84 84 55
Width: 1234
VWidth: 3393
Flags: W
HStem: 0 21G<370 580.852> 1324 169<194 631 832 1302>
Fore
1334 1493 m 1,0,-1
 1302 1324 l 1,1,-1
 832 1324 l 1,2,-1
 577 0 l 1,3,-1
 370 0 l 1,4,-1
 631 1324 l 1,5,-1
 159 1324 l 1,6,-1
 194 1493 l 1,7,-1
 1334 1493 l 1,0,-1
EndSplineSet
EndChar
StartChar: U
Encoding: 85 85 56
Width: 1234
VWidth: 3393
Flags: W
HStem: -30 166<336.658 660.919> 1473 20G<288.174 495 1025.15 1231>
VStem: 81 197<194.366 402.264>
Fore
292 1493 m 1,0,-1
 495 1493 l 1,1,-1
 320 573 l 1,2,3
 315 567 315 567 313.5 558.5 c 128,-1,4
 312 550 312 550 308 534 c 0,5,6
 278 379 278 379 278 320 c 0,7,8
 278 136 278 136 499 136 c 0,9,10
 587 136 587 136 648 163.5 c 128,-1,11
 709 191 709 191 757 255 c 0,12,13
 780 285 780 285 802.5 359.5 c 128,-1,14
 825 434 825 434 852 573 c 2,15,-1
 1029 1493 l 1,16,-1
 1231 1493 l 1,17,-1
 1056 573 l 2,18,19
 1032 466 1032 466 1011.5 384 c 128,-1,20
 991 302 991 302 964 252 c 0,21,22
 920 149 920 149 838 85 c 0,23,24
 693 -30 693 -30 479 -30 c 0,25,26
 285 -30 285 -30 183 59.5 c 128,-1,27
 81 149 81 149 81 320 c 0,28,29
 81 394 81 394 116 573 c 2,30,-1
 292 1493 l 1,0,-1
EndSplineSet
EndChar
StartChar: V
Encoding: 86 86 57
Width: 1234
VWidth: 3393
Flags: W
HStem: 0 21G<344.044 614.632> 1473 20G<200 399.705 1100.77 1324>
Fore
1110 1493 m 1,0,-1
 1324 1493 l 1,1,-1
 605 0 l 1,2,-1
 346 0 l 1,3,-1
 200 1493 l 1,4,-1
 398 1493 l 1,5,-1
 509 191 l 1,6,-1
 1110 1493 l 1,0,-1
EndSplineSet
EndChar
StartChar: W
Encoding: 87 87 58
Width: 1234
VWidth: 3393
Flags: W
HStem: 0 21G<81 280.463 672.266 871.859> 1473 20G<145.129 336 1174.71 1377>
VStem: 146 190<1393.22 1493> 641 146<676.672 872> 673 127<0 282>
Fore
336 1493 m 1,0,-1
 249 282 l 1,1,-1
 577 1082 l 1,2,-1
 787 1082 l 1,3,-1
 800 282 l 1,4,-1
 1181 1493 l 1,5,-1
 1377 1493 l 1,6,-1
 865 0 l 1,7,-1
 673 0 l 1,8,-1
 641 872 l 1,9,-1
 272 0 l 1,10,-1
 81 0 l 1,11,-1
 146 1493 l 1,12,-1
 336 1493 l 1,0,-1
EndSplineSet
EndChar
StartChar: X
Encoding: 88 88 59
Width: 1234
VWidth: 3393
Flags: W
HStem: 0 21G<-126 120.488 856.74 1065> 1473 20G<240 449.383 1090.35 1337>
Fore
441 1493 m 1,0,-1
 664 961 l 1,1,-1
 1107 1493 l 1,2,-1
 1337 1493 l 1,3,-1
 744 774 l 1,4,-1
 1065 0 l 1,5,-1
 865 0 l 1,6,-1
 611 615 l 1,7,-1
 104 0 l 1,8,-1
 -126 0 l 1,9,-1
 529 797 l 1,10,-1
 240 1493 l 1,11,-1
 441 1493 l 1,0,-1
EndSplineSet
EndChar
StartChar: Y
Encoding: 89 89 60
Width: 1234
VWidth: 3393
Flags: W
HStem: 0 21G<376 586.863> 1473 20G<197 405.281 1114.79 1350>
Fore
398 1493 m 1,0,-1
 635 842 l 1,1,-1
 1130 1493 l 1,2,-1
 1350 1493 l 1,3,-1
 713 673 l 1,4,-1
 583 0 l 1,5,-1
 376 0 l 1,6,-1
 509 673 l 1,7,-1
 197 1493 l 1,8,-1
 398 1493 l 1,0,-1
EndSplineSet
EndChar
StartChar: Z
Encoding: 90 90 61
Width: 1234
VWidth: 3393
Flags: W
HStem: 0 169<265 1007> 1324 169<305 1001>
Fore
1276 1493 m 1,0,-1
 1246 1341 l 1,1,-1
 265 169 l 1,2,-1
 1042 169 l 1,3,-1
 1007 0 l 1,4,-1
 -7 0 l 1,5,-1
 23 152 l 1,6,-1
 1001 1324 l 1,7,-1
 272 1324 l 1,8,-1
 305 1493 l 1,9,-1
 1276 1493 l 1,0,-1
EndSplineSet
EndChar
StartChar: bracketleft
Encoding: 91 91 62
Width: 1234
VWidth: 3393
Flags: W
HStem: -272 146<479 693> 1415 143<777 1017>
VStem: 265 781<-272 1558 -333.442 -272>
Fore
1046 1558 m 1,0,-1
 1017 1415 l 1,1,-1
 777 1415 l 1,2,-1
 479 -126 l 1,3,-1
 719 -126 l 1,4,-1
 693 -272 l 1,5,-1
 265 -272 l 1,6,-1
 621 1558 l 1,7,-1
 1046 1558 l 1,0,-1
EndSplineSet
EndChar
StartChar: backslash
Encoding: 92 92 63
Width: 1234
VWidth: 3393
Flags: W
HStem: 1473 20G<356 527.387>
VStem: 356 370<-191 1493 1493 1493>
Fore
557 -191 m 1,0,-1
 356 1493 l 1,1,-1
 525 1493 l 1,2,-1
 726 -191 l 1,3,-1
 557 -191 l 1,0,-1
EndSplineSet
EndChar
StartChar: bracketright
Encoding: 93 93 64
Width: 1234
VWidth: 3393
Flags: W
HStem: -272 146<176 418> 1415 143<505 716>
VStem: 146 784<-272 1558 1344.25 1443.84>
Fore
570 -272 m 1,0,-1
 146 -272 l 1,1,-1
 176 -126 l 1,2,-1
 418 -126 l 1,3,-1
 716 1415 l 1,4,-1
 476 1415 l 1,5,-1
 505 1558 l 1,6,-1
 930 1558 l 1,7,-1
 570 -272 l 1,0,-1
EndSplineSet
EndChar
StartChar: asciicircum
Encoding: 94 94 65
Width: 1234
VWidth: 3393
Flags: W
HStem: 936 557<529 1160 529 529>
Fore
1160 936 m 1,0,-1
 984 936 l 1,1,-1
 618 1334 l 1,2,-1
 252 936 l 1,3,-1
 71 936 l 1,4,-1
 529 1493 l 1,5,-1
 706 1493 l 1,6,-1
 1160 936 l 1,0,-1
EndSplineSet
EndChar
StartChar: underscore
Encoding: 95 95 66
Width: 1234
VWidth: 3393
Flags: W
HStem: -482 78<0 1024>
VStem: 0 1024<-482 -404 -482 -404 -482 -482>
Fore
1024 -482 m 1,0,-1
 0 -482 l 1,1,-1
 0 -404 l 1,2,-1
 1024 -404 l 1,3,-1
 1024 -482 l 1,0,-1
EndSplineSet
EndChar
StartChar: grave
Encoding: 96 96 67
Width: 1234
VWidth: 3393
Flags: W
HStem: 1263 376<454 848 454 454>
Fore
848 1263 m 1,0,-1
 706 1263 l 1,1,-1
 454 1639 l 1,2,-1
 651 1639 l 1,3,-1
 848 1263 l 1,0,-1
EndSplineSet
EndChar
StartChar: a
Encoding: 97 97 68
Width: 1234
VWidth: 3393
Flags: W
HStem: -30 156<322.007 603.903> 563 146<515.879 640.815 640.815 865> 991 156<413.792 846.166>
VStem: 71 194<181.923 441.691> 908 174<771.188 796.823 796.823 800.877 798.85 930.758>
Fore
693 563 m 1,0,1
 635 563 635 563 589 561.5 c 128,-1,2
 543 560 543 560 515 557 c 0,3,4
 451 547 451 547 414 529 c 0,5,6
 346 502 346 502 305 441 c 256,7,8
 265 379 265 379 265 308 c 0,9,10
 265 224 265 224 315.5 175 c 128,-1,11
 366 126 366 126 454 126 c 0,12,13
 608 126 608 126 709 230 c 0,14,15
 819 333 819 333 858 522 c 2,16,-1
 865 563 l 1,17,-1
 693 563 l 1,0,1
940 0 m 1,18,-1
 754 0 l 1,19,-1
 787 166 l 1,20,21
 716 71 716 71 617.5 20.5 c 128,-1,22
 519 -30 519 -30 408 -30 c 0,23,24
 258 -30 258 -30 162 55 c 0,25,26
 71 136 71 136 71 275 c 0,27,28
 71 476 71 476 227 590 c 0,29,30
 383 709 383 709 645 709 c 2,31,-1
 893 709 l 1,32,-1
 903 771 l 1,33,34
 906 777 906 777 908 787 c 128,-1,35
 910 797 910 797 910 815 c 0,36,37
 910 903 910 903 847 947 c 128,-1,38
 784 991 784 991 664 991 c 0,39,40
 492 991 492 991 268 890 c 1,41,-1
 302 1069 l 1,42,43
 512 1147 512 1147 696 1147 c 0,44,45
 882 1147 882 1147 984 1065 c 0,46,47
 1089 981 1089 981 1089 838 c 0,48,49
 1089 807 1089 807 1082 755 c 128,-1,50
 1075 703 1075 703 1065 641 c 2,51,-1
 940 0 l 1,18,-1
EndSplineSet
Substitution2: "Single Substitution lookup 22 subtable" uni0E38
Substitution2: "Single Substitution lookup 22 subtable" uni0E38
EndChar
StartChar: b
Encoding: 98 98 69
Width: 1234
VWidth: 3393
Flags: W
HStem: -30 156<410.449 690.007> 994 153<577.739 840.822> 1538 20G<359.085 547>
VStem: 913 197<493.077 920.593>
Fore
540 126 m 0,0,1
 709 126 709 126 804 302 c 0,2,3
 858 404 858 404 882 512 c 0,4,5
 913 631 913 631 913 736 c 0,6,7
 913 994 913 994 709 994 c 0,8,9
 543 994 543 994 437 815 c 0,10,11
 391 722 391 722 360 611 c 0,12,13
 346 553 346 553 339.5 497 c 128,-1,14
 333 441 333 441 333 383 c 0,15,16
 333 262 333 262 387 194 c 128,-1,17
 441 126 441 126 540 126 c 0,0,1
434 978 m 1,18,19
 563 1147 563 1147 764 1147 c 0,20,21
 926 1147 926 1147 1017 1046 c 0,22,23
 1110 940 1110 940 1110 754 c 0,24,25
 1110 608 1110 608 1069 466 c 0,26,27
 1024 315 1024 315 953 214 c 0,28,29
 878 98 878 98 769.5 34 c 128,-1,30
 661 -30 661 -30 537 -30 c 0,31,32
 340 -30 340 -30 272 143 c 1,33,-1
 244 0 l 1,34,-1
 58 0 l 1,35,-1
 363 1558 l 1,36,-1
 547 1558 l 1,37,-1
 434 978 l 1,18,19
EndSplineSet
Substitution2: "Single Substitution lookup 22 subtable" uni0E39
Substitution2: "Single Substitution lookup 22 subtable" uni0E39
EndChar
StartChar: c
Encoding: 99 99 70
Width: 1234
VWidth: 3393
Flags: W
HStem: -30 156<454.245 757.586> 991 156<615.789 1002.62>
VStem: 156 194<233.52 643.513>
Fore
940 51 m 1,0,1
 868 13 868 13 783.5 -8.5 c 128,-1,2
 699 -30 699 -30 611 -30 c 0,3,4
 156 -30 156 -30 156 418 c 0,5,6
 156 570 156 570 210 709 c 0,7,8
 262 855 262 855 353 949 c 0,9,10
 540 1147 540 1147 804 1147 c 0,11,12
 981 1147 981 1147 1137 1062 c 1,13,-1
 1104 878 l 1,14,15
 978 991 978 991 810 991 c 0,16,17
 590 991 590 991 469 815 c 0,18,19
 441 774 441 774 419.5 726.5 c 128,-1,20
 398 679 398 679 379 625 c 0,21,22
 350 522 350 522 350 418 c 0,23,24
 350 126 350 126 625 126 c 0,25,26
 722 126 722 126 809 158.5 c 128,-1,27
 896 191 896 191 981 252 c 1,28,-1
 940 51 l 1,0,1
EndSplineSet
Substitution2: "Single Substitution lookup 22 subtable" uni0E3A
Substitution2: "Single Substitution lookup 22 subtable" uni0E3A
EndChar
StartChar: d
Encoding: 100 100 71
Width: 1234
VWidth: 3393
Flags: W
HStem: -30 156<386.022 644.079> 991 156<531.926 815.873> 1538 20G<1065 1256>
VStem: 119 196<198.596 631.922>
Fore
686 991 m 0,0,1
 509 991 509 991 418 819 c 0,2,3
 370 729 370 729 342.5 614 c 128,-1,4
 315 499 315 499 315 383 c 0,5,6
 315 126 315 126 519 126 c 0,7,8
 696 126 696 126 787 305 c 0,9,10
 842 398 842 398 865 509 c 0,11,12
 882 567 882 567 887.5 623 c 128,-1,13
 893 679 893 679 893 736 c 0,14,15
 893 858 893 858 838.5 924.5 c 128,-1,16
 784 991 784 991 686 991 c 0,0,1
1069 1558 m 1,17,-1
 1256 1558 l 1,18,-1
 949 0 l 1,19,-1
 767 0 l 1,20,-1
 794 143 l 1,21,22
 658 -30 658 -30 466 -30 c 0,23,24
 305 -30 305 -30 210 75 c 0,25,26
 119 184 119 184 119 370 c 0,27,28
 119 512 119 512 159 658 c 0,29,30
 181 729 181 729 205.5 792 c 128,-1,31
 230 855 230 855 268 910 c 0,32,33
 424 1147 424 1147 673 1147 c 0,34,35
 872 1147 872 1147 953 978 c 1,36,-1
 1069 1558 l 1,17,-1
EndSplineSet
EndChar
StartChar: e
Encoding: 101 101 72
Width: 1234
VWidth: 3393
Flags: W
HStem: -30 156<398.97 749.089> 515 143<333 940> 991 159<543.395 860.497>
VStem: 98 187<236.753 500.761> 947.5 174.5<659.739 693.291 693.291 719.242 706.267 898.967>
Fore
940 658 m 1,0,1
 946 686 946 686 947.5 702.5 c 128,-1,2
 949 719 949 719 949 736 c 0,3,4
 949 858 949 858 885.5 924.5 c 128,-1,5
 822 991 822 991 703 991 c 256,6,7
 583 991 583 991 479 903 c 0,8,9
 373 807 373 807 333 658 c 1,10,-1
 940 658 l 1,0,1
961 58 m 1,11,12
 855 13 855 13 756.5 -8.5 c 128,-1,13
 658 -30 658 -30 553 -30 c 0,14,15
 330 -30 330 -30 214 82 c 128,-1,16
 98 194 98 194 98 408 c 0,17,18
 98 563 98 563 159 716 c 0,19,20
 217 865 217 865 326 974 c 0,21,22
 492 1150 492 1150 719 1150 c 0,23,24
 903 1150 903 1150 1014 1036 c 0,25,26
 1127 923 1127 923 1127 729 c 0,27,28
 1127 696 1127 696 1122 644.5 c 128,-1,29
 1117 593 1117 593 1107 515 c 1,30,-1
 298 515 l 1,31,32
 285 462 285 462 285 414 c 0,33,34
 285 126 285 126 587 126 c 0,35,36
 761 126 761 126 998 240 c 1,37,-1
 961 58 l 1,11,12
EndSplineSet
EndChar
StartChar: f
Encoding: 102 102 73
Width: 1234
VWidth: 3393
Flags: W
HStem: 0 21G<373 560.967> 978 142<292 563 774 1133> 1405 153<863.996 1215>
VStem: 265 981<978 1558 978 1337>
Fore
1215 1405 m 1,0,-1
 1007 1405 l 2,1,2
 910 1405 910 1405 862.5 1363 c 128,-1,3
 815 1321 815 1321 797 1221 c 2,4,-1
 774 1120 l 1,5,-1
 1160 1120 l 1,6,-1
 1133 978 l 1,7,-1
 751 978 l 1,8,-1
 557 0 l 1,9,-1
 373 0 l 1,10,-1
 563 978 l 1,11,-1
 265 978 l 1,12,-1
 292 1120 l 1,13,-1
 590 1120 l 1,14,-1
 608 1198 l 2,15,16
 641 1389 641 1389 739 1476 c 0,17,18
 838 1558 838 1558 1024 1558 c 2,19,-1
 1246 1558 l 1,20,-1
 1215 1405 l 1,0,-1
EndSplineSet
EndChar
StartChar: g
Encoding: 103 103 74
Width: 1234
VWidth: 3393
Flags: W
HStem: -441 149<227.567 589.76> -7 153<377.509 634.306> 991 156<517.789 796.789>
VStem: 101 197<229.916 667.882>
Fore
512 146 m 0,0,1
 676 146 676 146 771 320 c 0,2,3
 797 366 797 366 814.5 416 c 128,-1,4
 832 466 832 466 848 522 c 0,5,6
 875 641 875 641 875 739 c 0,7,8
 875 858 875 858 819.5 924.5 c 128,-1,9
 764 991 764 991 661 991 c 0,10,11
 509 991 509 991 404 822 c 0,12,13
 298 655 298 655 298 401 c 0,14,15
 298 282 298 282 354.5 214 c 128,-1,16
 411 146 411 146 512 146 c 0,0,1
943 71 m 1,17,18
 893 -200 893 -200 757 -320 c 0,19,20
 621 -441 621 -441 376 -441 c 0,21,22
 292 -441 292 -441 214 -427.5 c 128,-1,23
 136 -414 136 -414 58 -386 c 1,24,-1
 94 -204 l 1,25,26
 244 -292 244 -292 408 -292 c 0,27,28
 553 -292 553 -292 638 -214 c 0,29,30
 722 -129 722 -129 757 55 c 2,31,-1
 780 169 l 1,32,33
 661 -7 661 -7 437 -7 c 0,34,35
 285 -7 285 -7 194 98 c 0,36,37
 101 207 101 207 101 391 c 0,38,39
 101 534 101 534 143 668 c 0,40,41
 184 807 184 807 255 913 c 0,42,43
 330 1024 330 1024 433.5 1085.5 c 128,-1,44
 537 1147 537 1147 648 1147 c 0,45,46
 751 1147 751 1147 825.5 1099.5 c 128,-1,47
 900 1052 900 1052 936 968 c 1,48,-1
 961 1117 l 1,49,-1
 1147 1117 l 1,50,-1
 943 71 l 1,17,18
EndSplineSet
EndChar
StartChar: h
Encoding: 104 104 75
Width: 1234
VWidth: 3393
Flags: W
HStem: 0 21G<85 271.874 757 943.879> 988 159<628.466 866.642> 1538 20G<382.136 570>
VStem: 85 1012<0 872 1006.05 1586.81> 910 187<771.038 943.762>
Fore
940 0 m 1,0,-1
 757 0 l 1,1,-1
 893 696 l 2,2,3
 893 703 893 703 896 709 c 1,4,5
 910 774 910 774 910 822 c 0,6,7
 910 988 910 988 729 988 c 0,8,9
 600 988 600 988 512 896 c 128,-1,10
 424 804 424 804 391 635 c 2,11,-1
 268 0 l 1,12,-1
 85 0 l 1,13,-1
 386 1558 l 1,14,-1
 570 1558 l 1,15,-1
 454 953 l 1,16,17
 608 1147 608 1147 804 1147 c 0,18,19
 943 1147 943 1147 1020 1074 c 128,-1,20
 1097 1001 1097 1001 1097 872 c 0,21,22
 1097 842 1097 842 1091 794.5 c 128,-1,23
 1085 747 1085 747 1075 696 c 2,24,-1
 940 0 l 1,0,-1
EndSplineSet
EndChar
StartChar: i
Encoding: 105 105 76
Width: 1234
VWidth: 3393
Flags: W
HStem: 0 143<91 454 641 978 61 1004 91 91> 978 142<360 618> 1324 234<729 868>
Fore
832 1120 m 1,0,-1
 641 143 l 1,1,-1
 1004 143 l 1,2,-1
 978 0 l 1,3,-1
 61 0 l 1,4,-1
 91 143 l 1,5,-1
 454 143 l 1,6,-1
 618 978 l 1,7,-1
 330 978 l 1,8,-1
 360 1120 l 1,9,-1
 832 1120 l 1,0,-1
913 1558 m 1,10,-1
 868 1324 l 1,11,-1
 686 1324 l 1,12,-1
 729 1558 l 1,13,-1
 913 1558 l 1,10,-1
EndSplineSet
EndChar
StartChar: j
Encoding: 106 106 77
Width: 1234
VWidth: 3393
Flags: W
HStem: -428 156<33 402.047> 978 142<401 693> 1324 234<804 943>
VStem: 3 985<-428 1558 -40.6533 162.523>
Fore
693 978 m 1,0,-1
 373 978 l 1,1,-1
 401 1120 l 1,2,-1
 903 1120 l 1,3,-1
 683 -20 l 2,4,5
 641 -230 641 -230 540 -330 c 0,6,7
 441 -428 441 -428 258 -428 c 2,8,-1
 3 -428 l 1,9,-1
 33 -272 l 1,10,-1
 268 -272 l 2,11,12
 366 -272 366 -272 419 -212 c 128,-1,13
 472 -152 472 -152 499 -20 c 2,14,-1
 693 978 l 1,0,-1
988 1558 m 1,15,-1
 943 1324 l 1,16,-1
 761 1324 l 1,17,-1
 804 1558 l 1,18,-1
 988 1558 l 1,15,-1
EndSplineSet
EndChar
StartChar: k
Encoding: 107 107 78
Width: 1234
VWidth: 3393
Flags: W
HStem: 0 21G<91 285.937 834.434 1059> 1100 20G<938.828 1205> 1538 20G<390.11 583>
Fore
583 1558 m 1,0,-1
 414 683 l 1,1,-1
 964 1120 l 1,2,-1
 1205 1120 l 1,3,-1
 686 699 l 1,4,-1
 1059 0 l 1,5,-1
 845 0 l 1,6,-1
 537 583 l 1,7,-1
 370 447 l 1,8,-1
 282 0 l 1,9,-1
 91 0 l 1,10,-1
 394 1558 l 1,11,-1
 583 1558 l 1,0,-1
EndSplineSet
EndChar
StartChar: l
Encoding: 108 108 79
Width: 1234
VWidth: 3393
Flags: W
HStem: 0 156<623.958 946> 1425 143<340 628>
VStem: 398 189<195.016 359.758>
Fore
600 408 m 1,0,1
 587 343 587 343 587 302 c 0,2,3
 587 156 587 156 767 156 c 2,4,-1
 978 156 l 1,5,-1
 946 0 l 1,6,-1
 739 0 l 2,7,8
 398 0 398 0 398 258 c 0,9,10
 398 323 398 323 418 414 c 2,11,-1
 628 1425 l 1,12,-1
 312 1425 l 1,13,-1
 340 1568 l 1,14,-1
 842 1568 l 1,15,-1
 600 408 l 1,0,1
EndSplineSet
EndChar
StartChar: m
Encoding: 109 109 80
Width: 1234
VWidth: 3393
Flags: W
HStem: 0 21G<-13 155.931 414 586.931 845 1017.89> 994 153<430.376 645.523 834.604 1035.6>
VStem: 997.5 173<651.396 790 825 839.924 839.924 897.156 868.54 980.346>
Fore
751 1007 m 1,0,1
 828 1147 828 1147 991 1147 c 0,2,3
 1079 1147 1079 1147 1130 1093 c 128,-1,4
 1181 1039 1181 1039 1181 946 c 0,5,6
 1181 893 1181 893 1170.5 825 c 128,-1,7
 1160 757 1160 757 1140 648 c 2,8,-1
 1014 0 l 1,9,-1
 845 0 l 1,10,-1
 971 641 l 2,11,12
 988 732 988 732 997.5 790 c 128,-1,13
 1007 848 1007 848 1007 875 c 0,14,15
 1007 994 1007 994 910 994 c 0,16,17
 838 994 838 994 794 930 c 256,18,19
 751 865 751 865 709 641 c 2,20,-1
 583 0 l 1,21,-1
 414 0 l 1,22,-1
 540 641 l 2,23,24
 557 739 557 739 567 795.5 c 128,-1,25
 577 852 577 852 577 875 c 0,26,27
 577 994 577 994 479 994 c 0,28,29
 404 994 404 994 363 933 c 0,30,31
 326 882 326 882 278 641 c 2,32,-1
 152 0 l 1,33,-1
 -13 0 l 1,34,-1
 204 1120 l 1,35,-1
 370 1120 l 1,36,-1
 353 1024 l 1,37,38
 441 1147 441 1147 570 1147 c 0,39,40
 729 1147 729 1147 751 1007 c 1,0,1
EndSplineSet
EndChar
StartChar: n
Encoding: 110 110 81
Width: 1234
VWidth: 3393
Flags: W
HStem: 0 21G<85 271.874 757 943.879> 988 159<628.466 866.642>
VStem: 85 1012<0 872 -134.774 0> 910 187<771.038 943.762>
Fore
940 0 m 1,0,-1
 757 0 l 1,1,-1
 893 696 l 2,2,3
 893 703 893 703 896 709 c 1,4,5
 910 774 910 774 910 822 c 0,6,7
 910 988 910 988 729 988 c 0,8,9
 600 988 600 988 512 896 c 128,-1,10
 424 804 424 804 391 635 c 2,11,-1
 268 0 l 1,12,-1
 85 0 l 1,13,-1
 302 1120 l 1,14,-1
 489 1120 l 1,15,-1
 454 953 l 1,16,17
 608 1147 608 1147 804 1147 c 0,18,19
 943 1147 943 1147 1020 1074 c 128,-1,20
 1097 1001 1097 1001 1097 872 c 0,21,22
 1097 842 1097 842 1091 794.5 c 128,-1,23
 1085 747 1085 747 1075 696 c 2,24,-1
 940 0 l 1,0,-1
EndSplineSet
EndChar
StartChar: o
Encoding: 111 111 82
Width: 1234
VWidth: 3393
Flags: W
HStem: -30 156<392.006 685.208> 991 156<541.808 841.775>
VStem: 119 193<208.757 668.266> 920 197<448.906 909.463>
Fore
696 991 m 0,0,1
 529 991 529 991 421 822 c 0,2,3
 312 645 312 645 312 386 c 0,4,5
 312 126 312 126 537 126 c 0,6,7
 699 126 699 126 810 298 c 0,8,9
 920 476 920 476 920 732 c 256,10,11
 920 991 920 991 696 991 c 0,0,1
713 1147 m 0,12,13
 910 1147 910 1147 1013.5 1041.5 c 128,-1,14
 1117 936 1117 936 1117 726 c 0,15,16
 1117 590 1117 590 1075 451 c 0,17,18
 1056 383 1056 383 1027 324 c 128,-1,19
 998 265 998 265 961 207 c 0,20,21
 800 -30 800 -30 505 -30 c 0,22,23
 320 -30 320 -30 219.5 80.5 c 128,-1,24
 119 191 119 191 119 394 c 0,25,26
 119 529 119 529 158 663 c 128,-1,27
 197 797 197 797 275 913 c 0,28,29
 437 1147 437 1147 713 1147 c 0,12,13
EndSplineSet
EndChar
StartChar: p
Encoding: 112 112 83
Width: 1234
VWidth: 3393
Flags: W
HStem: -428 21G<-3 187.783> -30 156<432.502 718.062> 991 156<596.627 863.278>
VStem: 936 194<491.577 914.784>
Fore
184 -428 m 1,0,-1
 -3 -428 l 1,1,-1
 298 1120 l 1,2,-1
 482 1120 l 1,3,-1
 454 978 l 1,4,5
 583 1147 583 1147 787 1147 c 0,6,7
 949 1147 949 1147 1039.5 1043.5 c 128,-1,8
 1130 940 1130 940 1130 754 c 0,9,10
 1130 608 1130 608 1089 466 c 0,11,12
 1069 394 1069 394 1043 331 c 128,-1,13
 1017 268 1017 268 981 210 c 0,14,15
 825 -30 825 -30 580 -30 c 0,16,17
 383 -30 383 -30 292 143 c 1,18,-1
 184 -428 l 1,0,-1
570 126 m 0,19,20
 736 126 736 126 832 302 c 0,21,22
 855 350 855 350 874 400.5 c 128,-1,23
 893 451 893 451 906 509 c 0,24,25
 936 628 936 628 936 736 c 0,26,27
 936 991 936 991 729 991 c 0,28,29
 557 991 557 991 457 815 c 0,30,31
 434 767 434 767 416 717.5 c 128,-1,32
 398 668 398 668 383 611 c 0,33,34
 353 499 353 499 353 383 c 0,35,36
 353 262 353 262 409.5 194 c 128,-1,37
 466 126 466 126 570 126 c 0,19,20
EndSplineSet
EndChar
StartChar: q
Encoding: 113 113 84
Width: 1234
VWidth: 3393
Flags: W
HStem: -428 21G<664 851.863> -30 156<365.741 630.762> 991 156<513.508 801.61>
VStem: 98 197<198.391 567.656>
Fore
774 143 m 1,0,1
 648 -30 648 -30 447 -30 c 0,2,3
 282 -30 282 -30 191 75 c 0,4,5
 98 176 98 176 98 366 c 0,6,7
 98 509 98 509 139 651 c 0,8,9
 181 797 181 797 252 910 c 0,10,11
 408 1147 408 1147 664 1147 c 0,12,13
 865 1147 865 1147 936 978 c 1,14,-1
 964 1120 l 1,15,-1
 1147 1120 l 1,16,-1
 848 -428 l 1,17,-1
 664 -428 l 1,18,-1
 774 143 l 1,0,1
668 991 m 0,19,20
 492 991 492 991 401 819 c 0,21,22
 376 771 376 771 358 717.5 c 128,-1,23
 340 664 340 664 323 608 c 0,24,25
 295 482 295 482 295 383 c 0,26,27
 295 126 295 126 499 126 c 0,28,29
 664 126 664 126 771 305 c 0,30,31
 794 350 794 350 813 400.5 c 128,-1,32
 832 451 832 451 845 509 c 0,33,34
 875 628 875 628 875 736 c 0,35,36
 875 991 875 991 668 991 c 0,19,20
EndSplineSet
EndChar
StartChar: r
Encoding: 114 114 85
Width: 1234
VWidth: 3393
Flags: W
HStem: 0 21G<217 404.927> 978 169<783.894 1129.48>
VStem: 217 1004<0 1075 -829.118 -790.528>
Fore
1185 890 m 1,0,1
 1100 978 1100 978 943 978 c 0,2,3
 780 978 780 978 664 862 c 0,4,5
 543 747 543 747 509 550 c 2,6,-1
 401 0 l 1,7,-1
 217 0 l 1,8,-1
 434 1120 l 1,9,-1
 618 1120 l 1,10,-1
 580 903 l 1,11,12
 716 1147 716 1147 994 1147 c 0,13,14
 1140 1147 1140 1147 1221 1075 c 1,15,-1
 1185 890 l 1,0,1
EndSplineSet
EndChar
StartChar: s
Encoding: 115 115 86
Width: 1234
VWidth: 3393
Flags: W
HStem: -30 156<280.309 699.182> 994 153<532.352 952.114>
VStem: 265 182<723.005 917.049> 807 191<220.409 419.252>
Fore
1042 903 m 1,0,1
 893 994 893 994 736 994 c 0,2,3
 597 994 597 994 522 943.5 c 128,-1,4
 447 893 447 893 447 800 c 0,5,6
 447 703 447 703 673 645 c 0,7,8
 683 641 683 641 693 641 c 1,9,-1
 764 621 l 2,10,11
 998 560 998 560 998 376 c 256,12,13
 998 194 998 194 855 81 c 0,14,15
 709 -30 709 -30 472 -30 c 0,16,17
 315 -30 315 -30 116 41 c 1,18,-1
 152 230 l 1,19,20
 340 126 340 126 505 126 c 0,21,22
 638 126 638 126 722 184 c 0,23,24
 807 244 807 244 807 336 c 0,25,26
 807 434 807 434 611 489 c 0,27,28
 605 492 605 492 597.5 492 c 128,-1,29
 590 492 590 492 583 495 c 1,30,-1
 515 512 l 2,31,32
 265 577 265 577 265 777 c 0,33,34
 265 946 265 946 398 1049 c 0,35,36
 534 1147 534 1147 754 1147 c 0,37,38
 936 1147 936 1147 1079 1082 c 1,39,-1
 1042 903 l 1,0,1
EndSplineSet
EndChar
StartChar: t
Encoding: 116 116 87
Width: 1234
VWidth: 3393
Flags: W
HStem: 0 146<587.234 906> 978 142<224 495 709 1097 197 1127 224 224>
VStem: 360 187<172.983 274.408 259.362 289.454 289.454 339.224>
Fore
709 1120 m 1,0,-1
 1127 1120 l 1,1,-1
 1097 978 l 1,2,-1
 679 978 l 1,3,-1
 560 370 l 2,4,5
 553 340 553 340 550 314 c 128,-1,6
 547 288 547 288 547 265 c 0,7,8
 547 200 547 200 586 173 c 128,-1,9
 625 146 625 146 726 146 c 2,10,-1
 936 146 l 1,11,-1
 906 0 l 1,12,-1
 683 0 l 2,13,14
 512 0 512 0 436 56.5 c 128,-1,15
 360 113 360 113 360 230 c 0,16,17
 360 255 360 255 363 289 c 128,-1,18
 366 323 366 323 376 370 c 2,19,-1
 495 978 l 1,20,-1
 197 978 l 1,21,-1
 224 1120 l 1,22,-1
 522 1120 l 1,23,-1
 583 1438 l 1,24,-1
 771 1438 l 1,25,-1
 709 1120 l 1,0,-1
EndSplineSet
EndChar
StartChar: u
Encoding: 117 117 88
Width: 1234
VWidth: 3393
Flags: W
HStem: -27 160<353.058 592.976> 1100 20G<271.185 462 945.07 1133>
VStem: 126 1007<249 1120 7.66425 357.947> 126 186<173.881 308.846 290.331 327.362 327.362 391.531>
Fore
275 1120 m 1,0,-1
 462 1120 l 1,1,-1
 326 428 l 2,2,3
 320 391 320 391 316 357 c 128,-1,4
 312 323 312 323 312 298 c 0,5,6
 312 133 312 133 489 133 c 0,7,8
 618 133 618 133 704 224 c 128,-1,9
 790 315 790 315 825 489 c 2,10,-1
 949 1120 l 1,11,-1
 1133 1120 l 1,12,-1
 916 0 l 1,13,-1
 732 0 l 1,14,-1
 764 169 l 1,15,16
 621 -27 621 -27 408 -27 c 0,17,18
 275 -27 275 -27 200 48 c 0,19,20
 126 119 126 119 126 249 c 0,21,22
 126 285 126 285 131 332 c 128,-1,23
 136 379 136 379 143 428 c 2,24,-1
 275 1120 l 1,0,-1
EndSplineSet
EndChar
StartChar: v
Encoding: 118 118 89
Width: 1234
VWidth: 3393
Flags: W
HStem: 0 21G<359.804 610.982> 1100 20G<184 363.236 1006.52 1215>
Fore
360 1120 m 1,0,-1
 515 162 l 1,1,-1
 1017 1120 l 1,2,-1
 1215 1120 l 1,3,-1
 600 0 l 1,4,-1
 363 0 l 1,5,-1
 184 1120 l 1,6,-1
 360 1120 l 1,0,-1
EndSplineSet
EndChar
StartChar: w
Encoding: 119 119 90
Width: 1234
VWidth: 3393
Flags: W
HStem: 0 21G<142.071 317.504 662.112 840.661> 1100 20G<91 268.309 1118.99 1317>
VStem: 91 177<965.612 1120>
Fore
268 1120 m 1,0,-1
 282 214 l 1,1,-1
 553 794 l 1,2,-1
 713 794 l 1,3,-1
 764 214 l 1,4,-1
 1127 1120 l 1,5,-1
 1317 1120 l 1,6,-1
 832 0 l 1,7,-1
 664 0 l 1,8,-1
 605 625 l 1,9,-1
 308 0 l 1,10,-1
 143 0 l 1,11,-1
 91 1120 l 1,12,-1
 268 1120 l 1,0,-1
EndSplineSet
EndChar
StartChar: x
Encoding: 120 120 91
Width: 1234
VWidth: 3393
Flags: W
HStem: 0 21G<-71 174.784 807.919 1014> 1100 20G<200 409.015 965.269 1208>
Fore
696 573 m 1,0,-1
 1014 0 l 1,1,-1
 819 0 l 1,2,-1
 573 444 l 1,3,-1
 156 0 l 1,4,-1
 -71 0 l 1,5,-1
 495 597 l 1,6,-1
 200 1120 l 1,7,-1
 398 1120 l 1,8,-1
 615 726 l 1,9,-1
 984 1120 l 1,10,-1
 1208 1120 l 1,11,-1
 696 573 l 1,0,-1
EndSplineSet
EndChar
StartChar: y
Encoding: 121 121 92
Width: 1234
VWidth: 3393
Flags: W
HStem: -428 156<-10 230.312> 1100 20G<184 369.968 1009.77 1225>
Fore
787 360 m 1,0,1
 757 305 757 305 716.5 233.5 c 128,-1,2
 676 162 676 162 621 71 c 0,3,4
 543 -68 543 -68 492 -152.5 c 128,-1,5
 441 -237 441 -237 414 -275 c 0,6,7
 298 -428 298 -428 109 -428 c 2,8,-1
 -41 -428 l 1,9,-1
 -10 -272 l 1,10,-1
 98 -272 l 2,11,12
 181 -272 181 -272 237 -224 c 0,13,14
 298 -172 298 -172 356 -65 c 2,15,-1
 401 17 l 1,16,-1
 184 1120 l 1,17,-1
 366 1120 l 1,18,-1
 537 258 l 1,19,-1
 1021 1120 l 1,20,-1
 1225 1120 l 1,21,-1
 787 360 l 1,0,1
EndSplineSet
EndChar
StartChar: z
Encoding: 122 122 93
Width: 1234
VWidth: 3393
Flags: W
HStem: 0 146<315 916> 974 146<320 896>
Fore
1133 1120 m 1,0,-1
 1104 953 l 1,1,-1
 315 146 l 1,2,-1
 943 146 l 1,3,-1
 916 0 l 1,4,-1
 78 0 l 1,5,-1
 113 169 l 1,6,-1
 896 974 l 1,7,-1
 292 974 l 1,8,-1
 320 1120 l 1,9,-1
 1133 1120 l 1,0,-1
EndSplineSet
EndChar
StartChar: braceleft
Encoding: 123 123 94
Width: 1234
VWidth: 3393
Flags: W
HStem: -336 145<620.327 807> 537 149<214 406.969> 1415 143<938.116 1147>
VStem: 386 191<-161.866 -8.86279> 457 191<325.84 497.853>
Fore
1147 1415 m 1,0,-1
 1069 1415 l 2,1,2
 936 1415 936 1415 886 1374 c 0,3,4
 842 1334 842 1334 810 1185 c 2,5,-1
 761 933 l 2,6,7
 726 774 726 774 664 699 c 0,8,9
 605 628 605 628 495 608 c 1,10,11
 567 590 567 590 607.5 538 c 128,-1,12
 648 486 648 486 648 411 c 0,13,14
 648 383 648 383 644.5 353 c 128,-1,15
 641 323 641 323 635 282 c 2,16,-1
 587 41 l 2,17,18
 577 -27 577 -27 577 -71 c 0,19,20
 577 -133 577 -133 619 -162 c 128,-1,21
 661 -191 661 -191 761 -191 c 2,22,-1
 838 -191 l 1,23,-1
 807 -336 l 1,24,-1
 736 -336 l 2,25,26
 553 -336 553 -336 466 -278 c 0,27,28
 386 -227 386 -227 386 -101 c 0,29,30
 386 -71 386 -71 390 -37 c 128,-1,31
 394 -3 394 -3 401 33 c 2,32,-1
 444 272 l 1,33,34
 447 272 447 272 447 275 c 2,35,-1
 447 282 l 1,36,37
 457 333 457 333 457 376 c 0,38,39
 457 466 457 466 408.5 501.5 c 128,-1,40
 360 537 360 537 249 537 c 2,41,-1
 184 537 l 1,42,-1
 214 686 l 1,43,-1
 275 686 l 2,44,45
 424 686 424 686 482 739 c 0,46,47
 547 794 547 794 577 943 c 2,48,-1
 625 1188 l 2,49,50
 651 1314 651 1314 686.5 1385.5 c 128,-1,51
 722 1457 722 1457 777 1493 c 0,52,53
 822 1528 822 1528 893 1544 c 0,54,55
 958 1558 958 1558 1097 1558 c 2,56,-1
 1178 1558 l 1,57,-1
 1147 1415 l 1,0,-1
EndSplineSet
EndChar
StartChar: bar
Encoding: 124 124 95
Width: 1234
VWidth: 3393
Flags: W
VStem: 529 174<-482 1568>
Fore
703 -482 m 1,0,-1
 529 -482 l 1,1,-1
 529 1568 l 1,2,-1
 703 1568 l 1,3,-1
 703 -482 l 1,0,-1
EndSplineSet
EndChar
StartChar: braceright
Encoding: 125 125 96
Width: 1234
VWidth: 3393
Flags: W
HStem: -336 145<13 210.98> 540 146<756.547 949> 1415 143<353 543.158>
VStem: 515 191<727.068 897.82> 587 190<1232.54 1385.85>
Fore
13 -191 m 1,0,-1
 91 -191 l 2,1,2
 230 -191 230 -191 275 -149 c 0,3,4
 323 -113 323 -113 353 41 c 2,5,-1
 404 292 l 2,6,7
 434 444 434 444 495 522 c 0,8,9
 557 597 557 597 668 618 c 1,10,11
 515 655 515 655 515 815 c 0,12,13
 515 838 515 838 518.5 870.5 c 128,-1,14
 522 903 522 903 529 940 c 2,15,-1
 577 1185 l 2,16,17
 587 1253 587 1253 587 1292 c 0,18,19
 587 1357 587 1357 544.5 1386 c 128,-1,20
 502 1415 502 1415 404 1415 c 2,21,-1
 326 1415 l 1,22,-1
 353 1558 l 1,23,-1
 428 1558 l 2,24,25
 618 1558 618 1558 696 1503 c 0,26,27
 777 1448 777 1448 777 1327 c 0,28,29
 777 1292 777 1292 774 1258.5 c 128,-1,30
 771 1225 771 1225 764 1188 c 2,31,-1
 719 953 l 1,32,33
 716 949 716 949 716 940 c 2,34,35
 706 896 706 896 706 848 c 0,36,37
 706 761 706 761 755 723.5 c 128,-1,38
 804 686 804 686 916 686 c 2,39,-1
 978 686 l 1,40,-1
 949 540 l 1,41,-1
 890 540 l 2,42,43
 744 540 744 540 679 486 c 0,44,45
 615 424 615 424 583 278 c 2,46,-1
 537 33 l 2,47,48
 509 -88 509 -88 475 -159 c 128,-1,49
 441 -230 441 -230 386 -272 c 0,50,51
 360 -288 360 -288 332.5 -300 c 128,-1,52
 305 -312 305 -312 268 -320 c 0,53,54
 194 -336 194 -336 68 -336 c 2,55,-1
 -13 -336 l 1,56,-1
 13 -191 l 1,0,-1
EndSplineSet
EndChar
StartChar: asciitilde
Encoding: 126 126 97
Width: 1234
VWidth: 3393
Flags: W
HStem: 492 166<679.41 1012.64> 615 165<222.907 476.849>
Fore
1147 608 m 1,0,1
 1069 547 1069 547 997.5 519.5 c 128,-1,2
 926 492 926 492 848 492 c 0,3,4
 757 492 757 492 645 543 c 0,5,6
 635 550 635 550 628 551.5 c 128,-1,7
 621 553 621 553 615 557 c 0,8,9
 573 573 573 573 541 585 c 128,-1,10
 509 597 509 597 482 605 c 0,11,12
 431 615 431 615 379 615 c 0,13,14
 230 615 230 615 88 492 c 1,15,-1
 88 664 l 1,16,17
 166 726 166 726 239 753 c 128,-1,18
 312 780 312 780 398 780 c 0,19,20
 447 780 447 780 499 771 c 0,21,22
 557 761 557 761 621 726 c 1,23,24
 628 726 628 726 655 713 c 0,25,26
 767 658 767 658 865 658 c 0,27,28
 1001 658 1001 658 1147 780 c 1,29,-1
 1147 608 l 1,0,1
EndSplineSet
EndChar
StartChar: Adieresis
Encoding: 196 196 98
Width: 1234
VWidth: 3393
Flags: W
HStem: 0 21G<-104 122.309 850.107 1052> 391 162<370 800> 1473 20G<631.02 888.224> 1670 202<505 668 900 1062>
Fore
370 553 m 1,0,-1
 800 553 l 1,1,-1
 736 1327 l 1,2,-1
 370 553 l 1,0,-1
886 1493 m 1,3,-1
 1052 0 l 1,4,-1
 852 0 l 1,5,-1
 815 391 l 1,6,-1
 295 391 l 1,7,-1
 113 0 l 1,8,-1
 -104 0 l 1,9,-1
 641 1493 l 1,10,-1
 886 1493 l 1,3,-1
1104 1872 m 1,11,-1
 1062 1670 l 1,12,-1
 858 1670 l 1,13,-1
 900 1872 l 1,14,-1
 1104 1872 l 1,11,-1
709 1872 m 1,15,-1
 668 1670 l 1,16,-1
 469 1670 l 1,17,-1
 505 1872 l 1,18,-1
 709 1872 l 1,15,-1
EndSplineSet
EndChar
StartChar: Aring
Encoding: 197 197 99
Width: 1234
VWidth: 3393
Flags: W
HStem: 0 21G<-104 122.309 850.107 1052> 391 162<370 800> 1781 123<664.546 876.103>
VStem: 499 122<1521.75 1737.31> 926 123<1523.97 1731.66>
Fore
926 1629 m 0,0,1
 926 1693 926 1693 878 1735 c 1,2,3
 838 1781 838 1781 774 1781 c 256,4,5
 709 1781 709 1781 664 1738 c 256,6,7
 621 1693 621 1693 621 1629 c 256,8,9
 621 1564 621 1564 664 1521 c 256,10,11
 709 1476 709 1476 774 1476 c 0,12,13
 835 1476 835 1476 878 1521 c 0,14,15
 926 1568 926 1568 926 1629 c 0,0,1
370 553 m 1,16,-1
 800 553 l 1,17,-1
 736 1327 l 1,18,-1
 370 553 l 1,16,-1
600 1415 m 1,19,20
 499 1486 499 1486 499 1629 c 0,21,22
 499 1738 499 1738 577 1823 c 0,23,24
 658 1904 658 1904 774 1904 c 0,25,26
 886 1904 886 1904 968 1823 c 256,27,28
 1049 1742 1049 1742 1049 1629 c 0,29,30
 1049 1548 1049 1548 1008.5 1485 c 128,-1,31
 968 1422 968 1422 900 1389 c 1,32,-1
 1052 0 l 1,33,-1
 852 0 l 1,34,-1
 815 391 l 1,35,-1
 295 391 l 1,36,-1
 113 0 l 1,37,-1
 -104 0 l 1,38,-1
 600 1415 l 1,19,20
EndSplineSet
EndChar
StartChar: Ccedilla
Encoding: 199 199 100
Width: 1234
VWidth: 3393
Flags: W
HStem: -398 123<305.886 576.194> -30 30<540.891 658> 1357 164<703.451 1064.17>
VStem: 116 210<279.79 812.576> 597 135<-251.981 -54.6438>
Fore
943 55 m 1,0,1
 777 -30 777 -30 597 -30 c 0,2,3
 366 -30 366 -30 240 104 c 0,4,5
 116 234 116 234 116 479 c 0,6,7
 116 699 116 699 187 913 c 0,8,9
 255 1133 255 1133 370 1266 c 0,10,11
 479 1399 479 1399 605.5 1460 c 128,-1,12
 732 1521 732 1521 900 1521 c 0,13,14
 1062 1521 1062 1521 1215 1438 c 1,15,-1
 1171 1231 l 1,16,17
 1046 1357 1046 1357 886 1357 c 0,18,19
 699 1357 699 1357 557 1195 c 0,20,21
 505 1130 505 1130 463 1052 c 128,-1,22
 421 974 421 974 391 878 c 0,23,24
 326 689 326 689 326 492 c 0,25,26
 326 320 326 320 404 228 c 128,-1,27
 482 136 482 136 631 136 c 0,28,29
 800 136 800 136 984 262 c 1,30,-1
 943 55 l 1,0,1
658 0 m 1,31,32
 732 -126 732 -126 732 -194 c 0,33,34
 732 -288 732 -288 661 -340 c 0,35,36
 587 -398 587 -398 472 -398 c 0,37,38
 383 -398 383 -398 285 -366 c 1,39,-1
 312 -237 l 1,40,41
 394 -275 394 -275 457 -275 c 0,42,43
 597 -275 597 -275 597 -159 c 0,44,45
 597 -101 597 -101 540 0 c 1,46,-1
 658 0 l 1,31,32
EndSplineSet
EndChar
StartChar: Eacute
Encoding: 201 201 101
Width: 1234
VWidth: 3393
Flags: W
HStem: 0 169<288 961> 713 169<428 1049> 1324 169<512 1198>
Fore
1231 1493 m 1,0,-1
 1198 1324 l 1,1,-1
 512 1324 l 1,2,-1
 428 882 l 1,3,-1
 1079 882 l 1,4,-1
 1049 713 l 1,5,-1
 394 713 l 1,6,-1
 288 169 l 1,7,-1
 991 169 l 1,8,-1
 961 0 l 1,9,-1
 55 0 l 1,10,-1
 343 1493 l 1,11,-1
 1231 1493 l 1,0,-1
1140 1901 m 1,12,-1
 832 1635 l 1,13,-1
 673 1635 l 1,14,-1
 930 1901 l 1,15,-1
 1140 1901 l 1,12,-1
EndSplineSet
EndChar
StartChar: Ntilde
Encoding: 209 209 102
Width: 1234
VWidth: 3393
Flags: W
HStem: 0 21G<-7 190.916 688.695 952.938> 1473 20G<281.088 547.251 1042.06 1243> 1670 118<838.585 1006.75> 1670 217<509 563 1029 1085> 1771 116<592.942 758.119>
VStem: 1029 124<1785.35 1887>
Fore
543 1493 m 1,0,-1
 804 265 l 1,1,-1
 1046 1493 l 1,2,-1
 1243 1493 l 1,3,-1
 949 0 l 1,4,-1
 693 0 l 1,5,-1
 428 1231 l 1,6,-1
 187 0 l 1,7,-1
 -7 0 l 1,8,-1
 285 1493 l 1,9,-1
 543 1493 l 1,0,-1
754 1738 m 1,10,-1
 751 1738 l 1,11,12
 706 1771 706 1771 673 1771 c 0,13,14
 600 1771 600 1771 563 1670 c 1,15,-1
 437 1670 l 1,16,17
 509 1887 509 1887 683 1887 c 0,18,19
 747 1887 747 1887 815 1843 c 2,20,-1
 848 1816 l 2,21,22
 878 1788 878 1788 923 1788 c 0,23,24
 1007 1788 1007 1788 1029 1887 c 1,25,-1
 1153 1887 l 1,26,27
 1085 1670 1085 1670 903 1670 c 0,28,29
 848 1670 848 1670 787 1710 c 2,30,-1
 754 1738 l 1,10,-1
EndSplineSet
EndChar
StartChar: Odieresis
Encoding: 214 214 103
Width: 1234
VWidth: 3393
Flags: W
HStem: -30 166<371.2 651.674> 1357 164<582.407 864.636> 1670 202<499 661 890 1056>
VStem: 81 207<219.65 800.244> 943 210<792.906 1272.71>
Fore
502 136 m 0,0,1
 587 136 587 136 659.5 185 c 128,-1,2
 732 234 732 234 780 333 c 0,3,4
 819 408 819 408 847 494 c 128,-1,5
 875 580 875 580 900 683 c 0,6,7
 943 882 943 882 943 1079 c 0,8,9
 943 1357 943 1357 729 1357 c 0,10,11
 645 1357 645 1357 573.5 1306.5 c 128,-1,12
 502 1256 502 1256 454 1160 c 0,13,14
 379 1014 379 1014 333 807 c 0,15,16
 288 611 288 611 288 414 c 0,17,18
 288 136 288 136 502 136 c 0,0,1
1153 1021 m 0,19,20
 1153 913 1153 913 1130 784 c 128,-1,21
 1107 655 1107 655 1065 515 c 0,22,23
 1007 340 1007 340 930 220 c 0,24,25
 842 91 842 91 733.5 30.5 c 128,-1,26
 625 -30 625 -30 479 -30 c 0,27,28
 81 -30 81 -30 81 476 c 0,29,30
 81 696 81 696 169 978 c 0,31,32
 197 1069 197 1069 231 1142 c 128,-1,33
 265 1215 265 1215 302 1273 c 0,34,35
 391 1402 391 1402 499.5 1461.5 c 128,-1,36
 608 1521 608 1521 754 1521 c 0,37,38
 958 1521 958 1521 1055.5 1398.5 c 128,-1,39
 1153 1276 1153 1276 1153 1021 c 0,19,20
1092 1872 m 1,40,-1
 1056 1670 l 1,41,-1
 852 1670 l 1,42,-1
 890 1872 l 1,43,-1
 1092 1872 l 1,40,-1
703 1872 m 1,44,-1
 661 1670 l 1,45,-1
 457 1670 l 1,46,-1
 499 1872 l 1,47,-1
 703 1872 l 1,44,-1
EndSplineSet
EndChar
StartChar: Udieresis
Encoding: 220 220 104
Width: 1234
VWidth: 3393
Flags: W
HStem: -30 166<336.658 660.919> 1473 20G<288.174 495 1025.15 1231> 1670 202<509 676 903 1065>
VStem: 81 197<194.366 402.264>
Fore
292 1493 m 1,0,-1
 495 1493 l 1,1,-1
 320 573 l 1,2,3
 315 567 315 567 313.5 558.5 c 128,-1,4
 312 550 312 550 308 534 c 0,5,6
 278 379 278 379 278 320 c 0,7,8
 278 136 278 136 499 136 c 0,9,10
 587 136 587 136 648 163.5 c 128,-1,11
 709 191 709 191 757 255 c 0,12,13
 780 285 780 285 802.5 359.5 c 128,-1,14
 825 434 825 434 852 573 c 2,15,-1
 1029 1493 l 1,16,-1
 1231 1493 l 1,17,-1
 1056 573 l 2,18,19
 1032 466 1032 466 1011.5 384 c 128,-1,20
 991 302 991 302 964 252 c 0,21,22
 920 149 920 149 838 85 c 0,23,24
 693 -30 693 -30 479 -30 c 0,25,26
 285 -30 285 -30 183 59.5 c 128,-1,27
 81 149 81 149 81 320 c 0,28,29
 81 394 81 394 116 573 c 2,30,-1
 292 1493 l 1,0,-1
1107 1872 m 1,31,-1
 1065 1670 l 1,32,-1
 862 1670 l 1,33,-1
 903 1872 l 1,34,-1
 1107 1872 l 1,31,-1
716 1872 m 1,35,-1
 676 1670 l 1,36,-1
 472 1670 l 1,37,-1
 509 1872 l 1,38,-1
 716 1872 l 1,35,-1
EndSplineSet
EndChar
StartChar: aacute
Encoding: 225 225 105
Width: 1234
VWidth: 3393
Flags: W
HStem: -30 156<322.007 603.903> 563 146<515.879 640.815 640.815 865> 991 156<413.792 846.166>
VStem: 71 194<181.923 441.691> 908 174<771.188 796.823 796.823 800.877 798.85 930.758>
Fore
693 563 m 1,0,1
 635 563 635 563 589 561.5 c 128,-1,2
 543 560 543 560 515 557 c 0,3,4
 451 547 451 547 414 529 c 0,5,6
 346 502 346 502 305 441 c 256,7,8
 265 379 265 379 265 308 c 0,9,10
 265 224 265 224 315.5 175 c 128,-1,11
 366 126 366 126 454 126 c 0,12,13
 608 126 608 126 709 230 c 0,14,15
 819 333 819 333 858 522 c 2,16,-1
 865 563 l 1,17,-1
 693 563 l 1,0,1
940 0 m 1,18,-1
 754 0 l 1,19,-1
 787 166 l 1,20,21
 716 71 716 71 617.5 20.5 c 128,-1,22
 519 -30 519 -30 408 -30 c 0,23,24
 258 -30 258 -30 162 55 c 0,25,26
 71 136 71 136 71 275 c 0,27,28
 71 476 71 476 227 590 c 0,29,30
 383 709 383 709 645 709 c 2,31,-1
 893 709 l 1,32,-1
 903 771 l 1,33,34
 906 777 906 777 908 787 c 128,-1,35
 910 797 910 797 910 815 c 0,36,37
 910 903 910 903 847 947 c 128,-1,38
 784 991 784 991 664 991 c 0,39,40
 492 991 492 991 268 890 c 1,41,-1
 302 1069 l 1,42,43
 512 1147 512 1147 696 1147 c 0,44,45
 882 1147 882 1147 984 1065 c 0,46,47
 1089 981 1089 981 1089 838 c 0,48,49
 1089 807 1089 807 1082 755 c 128,-1,50
 1075 703 1075 703 1065 641 c 2,51,-1
 940 0 l 1,18,-1
1130 1639 m 1,52,-1
 736 1263 l 1,53,-1
 580 1263 l 1,54,-1
 913 1639 l 1,55,-1
 1130 1639 l 1,52,-1
EndSplineSet
EndChar
StartChar: agrave
Encoding: 224 224 106
Width: 1234
VWidth: 3393
Flags: W
HStem: -30 156<322.007 603.903> 563 146<515.879 640.815 640.815 865> 991 156<413.792 846.166>
VStem: 71 194<181.923 441.691> 908 174<771.188 796.823 796.823 800.877 798.85 930.758>
Fore
693 563 m 1,0,1
 635 563 635 563 589 561.5 c 128,-1,2
 543 560 543 560 515 557 c 0,3,4
 451 547 451 547 414 529 c 0,5,6
 346 502 346 502 305 441 c 256,7,8
 265 379 265 379 265 308 c 0,9,10
 265 224 265 224 315.5 175 c 128,-1,11
 366 126 366 126 454 126 c 0,12,13
 608 126 608 126 709 230 c 0,14,15
 819 333 819 333 858 522 c 2,16,-1
 865 563 l 1,17,-1
 693 563 l 1,0,1
940 0 m 1,18,-1
 754 0 l 1,19,-1
 787 166 l 1,20,21
 716 71 716 71 617.5 20.5 c 128,-1,22
 519 -30 519 -30 408 -30 c 0,23,24
 258 -30 258 -30 162 55 c 0,25,26
 71 136 71 136 71 275 c 0,27,28
 71 476 71 476 227 590 c 0,29,30
 383 709 383 709 645 709 c 2,31,-1
 893 709 l 1,32,-1
 903 771 l 1,33,34
 906 777 906 777 908 787 c 128,-1,35
 910 797 910 797 910 815 c 0,36,37
 910 903 910 903 847 947 c 128,-1,38
 784 991 784 991 664 991 c 0,39,40
 492 991 492 991 268 890 c 1,41,-1
 302 1069 l 1,42,43
 512 1147 512 1147 696 1147 c 0,44,45
 882 1147 882 1147 984 1065 c 0,46,47
 1089 981 1089 981 1089 838 c 0,48,49
 1089 807 1089 807 1082 755 c 128,-1,50
 1075 703 1075 703 1065 641 c 2,51,-1
 940 0 l 1,18,-1
852 1263 m 1,52,-1
 709 1263 l 1,53,-1
 457 1639 l 1,54,-1
 655 1639 l 1,55,-1
 852 1263 l 1,52,-1
EndSplineSet
EndChar
StartChar: acircumflex
Encoding: 226 226 107
Width: 1234
VWidth: 3393
Flags: W
HStem: -30 156<322.007 603.903> 563 146<515.879 640.815 640.815 865> 991 156<413.792 846.166>
VStem: 71 194<181.923 441.691> 908 174<771.188 796.823 796.823 800.877 798.85 930.758>
Fore
693 563 m 1,0,1
 635 563 635 563 589 561.5 c 128,-1,2
 543 560 543 560 515 557 c 0,3,4
 451 547 451 547 414 529 c 0,5,6
 346 502 346 502 305 441 c 256,7,8
 265 379 265 379 265 308 c 0,9,10
 265 224 265 224 315.5 175 c 128,-1,11
 366 126 366 126 454 126 c 0,12,13
 608 126 608 126 709 230 c 0,14,15
 819 333 819 333 858 522 c 2,16,-1
 865 563 l 1,17,-1
 693 563 l 1,0,1
940 0 m 1,18,-1
 754 0 l 1,19,-1
 787 166 l 1,20,21
 716 71 716 71 617.5 20.5 c 128,-1,22
 519 -30 519 -30 408 -30 c 0,23,24
 258 -30 258 -30 162 55 c 0,25,26
 71 136 71 136 71 275 c 0,27,28
 71 476 71 476 227 590 c 0,29,30
 383 709 383 709 645 709 c 2,31,-1
 893 709 l 1,32,-1
 903 771 l 1,33,34
 906 777 906 777 908 787 c 128,-1,35
 910 797 910 797 910 815 c 0,36,37
 910 903 910 903 847 947 c 128,-1,38
 784 991 784 991 664 991 c 0,39,40
 492 991 492 991 268 890 c 1,41,-1
 302 1069 l 1,42,43
 512 1147 512 1147 696 1147 c 0,44,45
 882 1147 882 1147 984 1065 c 0,46,47
 1089 981 1089 981 1089 838 c 0,48,49
 1089 807 1089 807 1082 755 c 128,-1,50
 1075 703 1075 703 1065 641 c 2,51,-1
 940 0 l 1,18,-1
868 1639 m 1,52,-1
 1032 1263 l 1,53,-1
 900 1263 l 1,54,-1
 784 1503 l 1,55,-1
 557 1263 l 1,56,-1
 401 1263 l 1,57,-1
 722 1639 l 1,58,-1
 868 1639 l 1,52,-1
EndSplineSet
EndChar
StartChar: adieresis
Encoding: 228 228 108
Width: 1234
VWidth: 3393
Flags: W
HStem: -30 156<322.007 603.903> 563 146<515.879 640.815 640.815 865> 991 156<413.792 846.166> 1350 204<479 645 872 1036>
VStem: 71 194<181.923 441.691> 908 174<771.188 796.823 796.823 800.877 798.85 930.758>
Fore
693 563 m 1,0,1
 635 563 635 563 589 561.5 c 128,-1,2
 543 560 543 560 515 557 c 0,3,4
 451 547 451 547 414 529 c 0,5,6
 346 502 346 502 305 441 c 256,7,8
 265 379 265 379 265 308 c 0,9,10
 265 224 265 224 315.5 175 c 128,-1,11
 366 126 366 126 454 126 c 0,12,13
 608 126 608 126 709 230 c 0,14,15
 819 333 819 333 858 522 c 2,16,-1
 865 563 l 1,17,-1
 693 563 l 1,0,1
940 0 m 1,18,-1
 754 0 l 1,19,-1
 787 166 l 1,20,21
 716 71 716 71 617.5 20.5 c 128,-1,22
 519 -30 519 -30 408 -30 c 0,23,24
 258 -30 258 -30 162 55 c 0,25,26
 71 136 71 136 71 275 c 0,27,28
 71 476 71 476 227 590 c 0,29,30
 383 709 383 709 645 709 c 2,31,-1
 893 709 l 1,32,-1
 903 771 l 1,33,34
 906 777 906 777 908 787 c 128,-1,35
 910 797 910 797 910 815 c 0,36,37
 910 903 910 903 847 947 c 128,-1,38
 784 991 784 991 664 991 c 0,39,40
 492 991 492 991 268 890 c 1,41,-1
 302 1069 l 1,42,43
 512 1147 512 1147 696 1147 c 0,44,45
 882 1147 882 1147 984 1065 c 0,46,47
 1089 981 1089 981 1089 838 c 0,48,49
 1089 807 1089 807 1082 755 c 128,-1,50
 1075 703 1075 703 1065 641 c 2,51,-1
 940 0 l 1,18,-1
683 1554 m 1,52,-1
 645 1350 l 1,53,-1
 441 1350 l 1,54,-1
 479 1554 l 1,55,-1
 683 1554 l 1,52,-1
1075 1554 m 1,56,-1
 1036 1350 l 1,57,-1
 832 1350 l 1,58,-1
 872 1554 l 1,59,-1
 1075 1554 l 1,56,-1
EndSplineSet
EndChar
StartChar: atilde
Encoding: 227 227 109
Width: 1234
VWidth: 3393
Flags: W
HStem: -30 156<322.007 603.903> 563 146<515.879 640.815 640.815 865> 991 156<413.792 846.166> 1311 127<835.2 961.26> 1463 129<561.19 685.985>
VStem: 71 194<181.923 441.691> 404 125<1327.32 1475.2> 908 174<771.188 796.823 796.823 800.877 798.85 930.758> 991 126<1445.98 1592>
Fore
693 563 m 1,0,1
 635 563 635 563 589 561.5 c 128,-1,2
 543 560 543 560 515 557 c 0,3,4
 451 547 451 547 414 529 c 0,5,6
 346 502 346 502 305 441 c 256,7,8
 265 379 265 379 265 308 c 0,9,10
 265 224 265 224 315.5 175 c 128,-1,11
 366 126 366 126 454 126 c 0,12,13
 608 126 608 126 709 230 c 0,14,15
 819 333 819 333 858 522 c 2,16,-1
 865 563 l 1,17,-1
 693 563 l 1,0,1
940 0 m 1,18,-1
 754 0 l 1,19,-1
 787 166 l 1,20,21
 716 71 716 71 617.5 20.5 c 128,-1,22
 519 -30 519 -30 408 -30 c 0,23,24
 258 -30 258 -30 162 55 c 0,25,26
 71 136 71 136 71 275 c 0,27,28
 71 476 71 476 227 590 c 0,29,30
 383 709 383 709 645 709 c 2,31,-1
 893 709 l 1,32,-1
 903 771 l 1,33,34
 906 777 906 777 908 787 c 128,-1,35
 910 797 910 797 910 815 c 0,36,37
 910 903 910 903 847 947 c 128,-1,38
 784 991 784 991 664 991 c 0,39,40
 492 991 492 991 268 890 c 1,41,-1
 302 1069 l 1,42,43
 512 1147 512 1147 696 1147 c 0,44,45
 882 1147 882 1147 984 1065 c 0,46,47
 1089 981 1089 981 1089 838 c 0,48,49
 1089 807 1089 807 1082 755 c 128,-1,50
 1075 703 1075 703 1065 641 c 2,51,-1
 940 0 l 1,18,-1
699 1425 m 2,52,53
 664 1463 664 1463 628 1463 c 0,54,55
 550 1463 550 1463 529 1311 c 1,56,-1
 404 1311 l 1,57,58
 441 1592 441 1592 625 1592 c 0,59,60
 668 1592 668 1592 702 1576.5 c 128,-1,61
 736 1561 736 1561 774 1524 c 2,62,-1
 822 1476 l 2,63,64
 858 1438 858 1438 893 1438 c 0,65,66
 978 1438 978 1438 991 1592 c 1,67,-1
 1117 1592 l 1,68,69
 1079 1311 1079 1311 896 1311 c 0,70,71
 852 1311 852 1311 818 1324 c 128,-1,72
 784 1337 784 1337 747 1377 c 2,73,-1
 699 1425 l 2,52,53
EndSplineSet
EndChar
StartChar: aring
Encoding: 229 229 110
Width: 1234
VWidth: 3393
Flags: W
HStem: -30 156<322.007 603.903> 563 146<515.879 640.815 640.815 865> 991 156<413.792 846.166> 1324 121<677.548 891.795> 1748 124<677.003 891.795>
VStem: 71 194<181.923 441.691> 509 122<1490.73 1701.39> 908 174<771.188 796.823 796.823 800.877 798.85 930.758> 936 123<1490.14 1702.06>
Fore
693 563 m 1,0,1
 635 563 635 563 589 561.5 c 128,-1,2
 543 560 543 560 515 557 c 0,3,4
 451 547 451 547 414 529 c 0,5,6
 346 502 346 502 305 441 c 256,7,8
 265 379 265 379 265 308 c 0,9,10
 265 224 265 224 315.5 175 c 128,-1,11
 366 126 366 126 454 126 c 0,12,13
 608 126 608 126 709 230 c 0,14,15
 819 333 819 333 858 522 c 2,16,-1
 865 563 l 1,17,-1
 693 563 l 1,0,1
940 0 m 1,18,-1
 754 0 l 1,19,-1
 787 166 l 1,20,21
 716 71 716 71 617.5 20.5 c 128,-1,22
 519 -30 519 -30 408 -30 c 0,23,24
 258 -30 258 -30 162 55 c 0,25,26
 71 136 71 136 71 275 c 0,27,28
 71 476 71 476 227 590 c 0,29,30
 383 709 383 709 645 709 c 2,31,-1
 893 709 l 1,32,-1
 903 771 l 1,33,34
 906 777 906 777 908 787 c 128,-1,35
 910 797 910 797 910 815 c 0,36,37
 910 903 910 903 847 947 c 128,-1,38
 784 991 784 991 664 991 c 0,39,40
 492 991 492 991 268 890 c 1,41,-1
 302 1069 l 1,42,43
 512 1147 512 1147 696 1147 c 0,44,45
 882 1147 882 1147 984 1065 c 0,46,47
 1089 981 1089 981 1089 838 c 0,48,49
 1089 807 1089 807 1082 755 c 128,-1,50
 1075 703 1075 703 1065 641 c 2,51,-1
 940 0 l 1,18,-1
936 1599 m 0,52,53
 936 1659 936 1659 893 1703 c 256,54,55
 848 1748 848 1748 784 1748 c 0,56,57
 716 1748 716 1748 676 1703 c 0,58,59
 631 1664 631 1664 631 1599 c 0,60,61
 631 1531 631 1531 676 1490 c 0,62,63
 716 1445 716 1445 784 1445 c 0,64,65
 848 1445 848 1445 893 1490 c 0,66,67
 936 1541 936 1541 936 1599 c 0,52,53
1059 1599 m 0,68,69
 1059 1483 1059 1483 978 1402 c 0,70,71
 903 1324 903 1324 784 1324 c 256,72,73
 664 1324 664 1324 587 1402 c 0,74,75
 509 1486 509 1486 509 1599 c 0,76,77
 509 1707 509 1707 587 1791 c 0,78,79
 668 1872 668 1872 784 1872 c 0,80,81
 903 1872 903 1872 978 1791 c 0,82,83
 1059 1710 1059 1710 1059 1599 c 0,68,69
EndSplineSet
EndChar
StartChar: ccedilla
Encoding: 231 231 111
Width: 1234
VWidth: 3393
Flags: W
HStem: -398 123<319.638 583.41> -30 30<569.344 676> 991 156<615.789 1002.62>
VStem: 156 194<233.52 643.513> 615 132<-246.095 -52.0938>
Fore
940 51 m 1,0,1
 868 13 868 13 783.5 -8.5 c 128,-1,2
 699 -30 699 -30 611 -30 c 0,3,4
 156 -30 156 -30 156 418 c 0,5,6
 156 570 156 570 210 709 c 0,7,8
 262 855 262 855 353 949 c 0,9,10
 540 1147 540 1147 804 1147 c 0,11,12
 981 1147 981 1147 1137 1062 c 1,13,-1
 1104 878 l 1,14,15
 978 991 978 991 810 991 c 0,16,17
 590 991 590 991 469 815 c 0,18,19
 441 774 441 774 419.5 726.5 c 128,-1,20
 398 679 398 679 379 625 c 0,21,22
 350 522 350 522 350 418 c 0,23,24
 350 126 350 126 625 126 c 0,25,26
 722 126 722 126 809 158.5 c 128,-1,27
 896 191 896 191 981 252 c 1,28,-1
 940 51 l 1,0,1
676 0 m 1,29,30
 747 -129 747 -129 747 -194 c 0,31,32
 747 -288 747 -288 676 -340 c 0,33,34
 600 -398 600 -398 486 -398 c 0,35,36
 394 -398 394 -398 302 -366 c 1,37,-1
 326 -237 l 1,38,39
 411 -275 411 -275 472 -275 c 0,40,41
 540 -275 540 -275 577.5 -244.5 c 128,-1,42
 615 -214 615 -214 615 -159 c 0,43,44
 615 -109 615 -109 557 0 c 1,45,-1
 676 0 l 1,29,30
EndSplineSet
EndChar
StartChar: eacute
Encoding: 233 233 112
Width: 1234
VWidth: 3393
Flags: W
HStem: -30 156<398.97 749.089> 515 143<333 940> 991 159<543.395 860.497>
VStem: 98 187<236.753 500.761> 947.5 174.5<659.739 693.291 693.291 719.242 706.267 898.967>
Fore
940 658 m 1,0,1
 946 686 946 686 947.5 702.5 c 128,-1,2
 949 719 949 719 949 736 c 0,3,4
 949 858 949 858 885.5 924.5 c 128,-1,5
 822 991 822 991 703 991 c 256,6,7
 583 991 583 991 479 903 c 0,8,9
 373 807 373 807 333 658 c 1,10,-1
 940 658 l 1,0,1
961 58 m 1,11,12
 855 13 855 13 756.5 -8.5 c 128,-1,13
 658 -30 658 -30 553 -30 c 0,14,15
 330 -30 330 -30 214 82 c 128,-1,16
 98 194 98 194 98 408 c 0,17,18
 98 563 98 563 159 716 c 0,19,20
 217 865 217 865 326 974 c 0,21,22
 492 1150 492 1150 719 1150 c 0,23,24
 903 1150 903 1150 1014 1036 c 0,25,26
 1127 923 1127 923 1127 729 c 0,27,28
 1127 696 1127 696 1122 644.5 c 128,-1,29
 1117 593 1117 593 1107 515 c 1,30,-1
 298 515 l 1,31,32
 285 462 285 462 285 414 c 0,33,34
 285 126 285 126 587 126 c 0,35,36
 761 126 761 126 998 240 c 1,37,-1
 961 58 l 1,11,12
1127 1639 m 1,38,-1
 732 1263 l 1,39,-1
 577 1263 l 1,40,-1
 910 1639 l 1,41,-1
 1127 1639 l 1,38,-1
EndSplineSet
EndChar
StartChar: egrave
Encoding: 232 232 113
Width: 1234
VWidth: 3393
Flags: W
HStem: -30 156<398.97 749.089> 515 143<333 940> 991 159<543.395 860.497>
VStem: 98 187<236.753 500.761> 947.5 174.5<659.739 693.291 693.291 719.242 706.267 898.967>
Fore
940 658 m 1,0,1
 946 686 946 686 947.5 702.5 c 128,-1,2
 949 719 949 719 949 736 c 0,3,4
 949 858 949 858 885.5 924.5 c 128,-1,5
 822 991 822 991 703 991 c 256,6,7
 583 991 583 991 479 903 c 0,8,9
 373 807 373 807 333 658 c 1,10,-1
 940 658 l 1,0,1
961 58 m 1,11,12
 855 13 855 13 756.5 -8.5 c 128,-1,13
 658 -30 658 -30 553 -30 c 0,14,15
 330 -30 330 -30 214 82 c 128,-1,16
 98 194 98 194 98 408 c 0,17,18
 98 563 98 563 159 716 c 0,19,20
 217 865 217 865 326 974 c 0,21,22
 492 1150 492 1150 719 1150 c 0,23,24
 903 1150 903 1150 1014 1036 c 0,25,26
 1127 923 1127 923 1127 729 c 0,27,28
 1127 696 1127 696 1122 644.5 c 128,-1,29
 1117 593 1117 593 1107 515 c 1,30,-1
 298 515 l 1,31,32
 285 462 285 462 285 414 c 0,33,34
 285 126 285 126 587 126 c 0,35,36
 761 126 761 126 998 240 c 1,37,-1
 961 58 l 1,11,12
848 1263 m 1,38,-1
 706 1263 l 1,39,-1
 454 1639 l 1,40,-1
 651 1639 l 1,41,-1
 848 1263 l 1,38,-1
EndSplineSet
EndChar
StartChar: ecircumflex
Encoding: 234 234 114
Width: 1234
VWidth: 3393
Flags: W
HStem: -30 156<398.97 749.089> 515 143<333 940> 991 159<543.395 860.497>
VStem: 98 187<236.753 500.761> 947.5 174.5<659.739 693.291 693.291 719.242 706.267 898.967>
Fore
940 658 m 1,0,1
 946 686 946 686 947.5 702.5 c 128,-1,2
 949 719 949 719 949 736 c 0,3,4
 949 858 949 858 885.5 924.5 c 128,-1,5
 822 991 822 991 703 991 c 256,6,7
 583 991 583 991 479 903 c 0,8,9
 373 807 373 807 333 658 c 1,10,-1
 940 658 l 1,0,1
961 58 m 1,11,12
 855 13 855 13 756.5 -8.5 c 128,-1,13
 658 -30 658 -30 553 -30 c 0,14,15
 330 -30 330 -30 214 82 c 128,-1,16
 98 194 98 194 98 408 c 0,17,18
 98 563 98 563 159 716 c 0,19,20
 217 865 217 865 326 974 c 0,21,22
 492 1150 492 1150 719 1150 c 0,23,24
 903 1150 903 1150 1014 1036 c 0,25,26
 1127 923 1127 923 1127 729 c 0,27,28
 1127 696 1127 696 1122 644.5 c 128,-1,29
 1117 593 1117 593 1107 515 c 1,30,-1
 298 515 l 1,31,32
 285 462 285 462 285 414 c 0,33,34
 285 126 285 126 587 126 c 0,35,36
 761 126 761 126 998 240 c 1,37,-1
 961 58 l 1,11,12
865 1639 m 1,38,-1
 1029 1263 l 1,39,-1
 896 1263 l 1,40,-1
 780 1503 l 1,41,-1
 553 1263 l 1,42,-1
 398 1263 l 1,43,-1
 719 1639 l 1,44,-1
 865 1639 l 1,38,-1
EndSplineSet
EndChar
StartChar: edieresis
Encoding: 235 235 115
Width: 1234
VWidth: 3393
Flags: W
HStem: -30 156<398.97 749.089> 515 143<333 940> 991 159<543.395 860.497> 1350 204<476 641 865 1032>
VStem: 98 187<236.753 500.761> 947.5 174.5<659.739 693.291 693.291 719.242 706.267 898.967>
Fore
940 658 m 1,0,1
 946 686 946 686 947.5 702.5 c 128,-1,2
 949 719 949 719 949 736 c 0,3,4
 949 858 949 858 885.5 924.5 c 128,-1,5
 822 991 822 991 703 991 c 256,6,7
 583 991 583 991 479 903 c 0,8,9
 373 807 373 807 333 658 c 1,10,-1
 940 658 l 1,0,1
961 58 m 1,11,12
 855 13 855 13 756.5 -8.5 c 128,-1,13
 658 -30 658 -30 553 -30 c 0,14,15
 330 -30 330 -30 214 82 c 128,-1,16
 98 194 98 194 98 408 c 0,17,18
 98 563 98 563 159 716 c 0,19,20
 217 865 217 865 326 974 c 0,21,22
 492 1150 492 1150 719 1150 c 0,23,24
 903 1150 903 1150 1014 1036 c 0,25,26
 1127 923 1127 923 1127 729 c 0,27,28
 1127 696 1127 696 1122 644.5 c 128,-1,29
 1117 593 1117 593 1107 515 c 1,30,-1
 298 515 l 1,31,32
 285 462 285 462 285 414 c 0,33,34
 285 126 285 126 587 126 c 0,35,36
 761 126 761 126 998 240 c 1,37,-1
 961 58 l 1,11,12
679 1554 m 1,38,-1
 641 1350 l 1,39,-1
 437 1350 l 1,40,-1
 476 1554 l 1,41,-1
 679 1554 l 1,38,-1
1069 1554 m 1,42,-1
 1032 1350 l 1,43,-1
 828 1350 l 1,44,-1
 865 1554 l 1,45,-1
 1069 1554 l 1,42,-1
EndSplineSet
EndChar
StartChar: iacute
Encoding: 237 237 116
Width: 1234
VWidth: 3393
Flags: W
HStem: 0 143<91 454 641 978> 978 142<360 618>
Fore
832 1120 m 1,0,-1
 641 143 l 1,1,-1
 1004 143 l 1,2,-1
 978 0 l 1,3,-1
 61 0 l 1,4,-1
 91 143 l 1,5,-1
 454 143 l 1,6,-1
 618 978 l 1,7,-1
 330 978 l 1,8,-1
 360 1120 l 1,9,-1
 832 1120 l 1,0,-1
1100 1639 m 1,10,-1
 703 1263 l 1,11,-1
 547 1263 l 1,12,-1
 878 1639 l 1,13,-1
 1100 1639 l 1,10,-1
EndSplineSet
EndChar
StartChar: igrave
Encoding: 236 236 117
Width: 1234
VWidth: 3393
Flags: W
HStem: 0 143<91 454 641 978 61 1004 91 91> 978 142<360 618>
Fore
832 1120 m 1,0,-1
 641 143 l 1,1,-1
 1004 143 l 1,2,-1
 978 0 l 1,3,-1
 61 0 l 1,4,-1
 91 143 l 1,5,-1
 454 143 l 1,6,-1
 618 978 l 1,7,-1
 330 978 l 1,8,-1
 360 1120 l 1,9,-1
 832 1120 l 1,0,-1
822 1263 m 1,10,-1
 676 1263 l 1,11,-1
 424 1639 l 1,12,-1
 621 1639 l 1,13,-1
 822 1263 l 1,10,-1
EndSplineSet
EndChar
StartChar: icircumflex
Encoding: 238 238 118
Width: 1234
VWidth: 3393
Flags: W
HStem: 0 143<91 454 641 978 61 1004 91 91> 978 142<360 618>
Fore
832 1120 m 1,0,-1
 641 143 l 1,1,-1
 1004 143 l 1,2,-1
 978 0 l 1,3,-1
 61 0 l 1,4,-1
 91 143 l 1,5,-1
 454 143 l 1,6,-1
 618 978 l 1,7,-1
 330 978 l 1,8,-1
 360 1120 l 1,9,-1
 832 1120 l 1,0,-1
835 1639 m 1,10,-1
 1001 1263 l 1,11,-1
 865 1263 l 1,12,-1
 751 1503 l 1,13,-1
 525 1263 l 1,14,-1
 370 1263 l 1,15,-1
 689 1639 l 1,16,-1
 835 1639 l 1,10,-1
EndSplineSet
EndChar
StartChar: idieresis
Encoding: 239 239 119
Width: 1234
VWidth: 3393
Flags: W
HStem: 0 143<91 454 641 978> 978 142<360 618> 1350 204<447 611 838 1001>
VStem: 61 981<0 1554 190 353>
Fore
832 1120 m 1,0,-1
 641 143 l 1,1,-1
 1004 143 l 1,2,-1
 978 0 l 1,3,-1
 61 0 l 1,4,-1
 91 143 l 1,5,-1
 454 143 l 1,6,-1
 618 978 l 1,7,-1
 330 978 l 1,8,-1
 360 1120 l 1,9,-1
 832 1120 l 1,0,-1
648 1554 m 1,10,-1
 611 1350 l 1,11,-1
 408 1350 l 1,12,-1
 447 1554 l 1,13,-1
 648 1554 l 1,10,-1
1042 1554 m 1,14,-1
 1001 1350 l 1,15,-1
 797 1350 l 1,16,-1
 838 1554 l 1,17,-1
 1042 1554 l 1,14,-1
EndSplineSet
EndChar
StartChar: ntilde
Encoding: 241 241 120
Width: 1234
VWidth: 3393
Flags: W
HStem: 0 21G<85 271.874 757 943.879> 988 159<628.466 866.642> 1311 127<832.015 956.903> 1463 129<555.823 682.439>
VStem: 401 124<1323.18 1468.15> 910 187<771.038 943.762> 988 122<1448.09 1592>
Fore
940 0 m 1,0,-1
 757 0 l 1,1,-1
 893 696 l 2,2,3
 893 703 893 703 896 709 c 1,4,5
 910 774 910 774 910 822 c 0,6,7
 910 988 910 988 729 988 c 0,8,9
 600 988 600 988 512 896 c 128,-1,10
 424 804 424 804 391 635 c 2,11,-1
 268 0 l 1,12,-1
 85 0 l 1,13,-1
 302 1120 l 1,14,-1
 489 1120 l 1,15,-1
 454 953 l 1,16,17
 608 1147 608 1147 804 1147 c 0,18,19
 943 1147 943 1147 1020 1074 c 128,-1,20
 1097 1001 1097 1001 1097 872 c 0,21,22
 1097 842 1097 842 1091 794.5 c 128,-1,23
 1085 747 1085 747 1075 696 c 2,24,-1
 940 0 l 1,0,-1
696 1425 m 2,25,26
 658 1463 658 1463 625 1463 c 0,27,28
 540 1463 540 1463 525 1311 c 1,29,-1
 401 1311 l 1,30,31
 437 1592 437 1592 621 1592 c 0,32,33
 664 1592 664 1592 698 1576.5 c 128,-1,34
 732 1561 732 1561 771 1524 c 2,35,-1
 819 1476 l 2,36,37
 855 1438 855 1438 890 1438 c 0,38,39
 968 1438 968 1438 988 1592 c 1,40,-1
 1110 1592 l 1,41,42
 1079 1311 1079 1311 893 1311 c 0,43,44
 845 1311 845 1311 812.5 1324 c 128,-1,45
 780 1337 780 1337 744 1377 c 2,46,-1
 696 1425 l 2,25,26
EndSplineSet
EndChar
StartChar: oacute
Encoding: 243 243 121
Width: 1234
VWidth: 3393
Flags: W
HStem: -30 156<392.006 685.208> 991 156<541.808 841.775>
VStem: 119 193<208.757 668.266> 920 197<448.906 909.463>
Fore
696 991 m 0,0,1
 529 991 529 991 421 822 c 0,2,3
 312 645 312 645 312 386 c 0,4,5
 312 126 312 126 537 126 c 0,6,7
 699 126 699 126 810 298 c 0,8,9
 920 476 920 476 920 732 c 256,10,11
 920 991 920 991 696 991 c 0,0,1
713 1147 m 0,12,13
 910 1147 910 1147 1013.5 1041.5 c 128,-1,14
 1117 936 1117 936 1117 726 c 0,15,16
 1117 590 1117 590 1075 451 c 0,17,18
 1056 383 1056 383 1027 324 c 128,-1,19
 998 265 998 265 961 207 c 0,20,21
 800 -30 800 -30 505 -30 c 0,22,23
 320 -30 320 -30 219.5 80.5 c 128,-1,24
 119 191 119 191 119 394 c 0,25,26
 119 529 119 529 158 663 c 128,-1,27
 197 797 197 797 275 913 c 0,28,29
 437 1147 437 1147 713 1147 c 0,12,13
1127 1639 m 1,30,-1
 732 1263 l 1,31,-1
 577 1263 l 1,32,-1
 910 1639 l 1,33,-1
 1127 1639 l 1,30,-1
EndSplineSet
EndChar
StartChar: ograve
Encoding: 242 242 122
Width: 1234
VWidth: 3393
Flags: W
HStem: -30 156<392.006 685.208> 991 156<541.808 841.775>
VStem: 119 193<208.757 668.266> 920 197<448.906 909.463>
Fore
696 991 m 0,0,1
 529 991 529 991 421 822 c 0,2,3
 312 645 312 645 312 386 c 0,4,5
 312 126 312 126 537 126 c 0,6,7
 699 126 699 126 810 298 c 0,8,9
 920 476 920 476 920 732 c 256,10,11
 920 991 920 991 696 991 c 0,0,1
713 1147 m 0,12,13
 910 1147 910 1147 1013.5 1041.5 c 128,-1,14
 1117 936 1117 936 1117 726 c 0,15,16
 1117 590 1117 590 1075 451 c 0,17,18
 1056 383 1056 383 1027 324 c 128,-1,19
 998 265 998 265 961 207 c 0,20,21
 800 -30 800 -30 505 -30 c 0,22,23
 320 -30 320 -30 219.5 80.5 c 128,-1,24
 119 191 119 191 119 394 c 0,25,26
 119 529 119 529 158 663 c 128,-1,27
 197 797 197 797 275 913 c 0,28,29
 437 1147 437 1147 713 1147 c 0,12,13
848 1263 m 1,30,-1
 706 1263 l 1,31,-1
 454 1639 l 1,32,-1
 651 1639 l 1,33,-1
 848 1263 l 1,30,-1
EndSplineSet
EndChar
StartChar: ocircumflex
Encoding: 244 244 123
Width: 1234
VWidth: 3393
Flags: W
HStem: -30 156<392.006 685.208> 991 156<541.808 841.775>
VStem: 119 193<208.757 668.266> 920 197<448.906 909.463>
Fore
696 991 m 0,0,1
 529 991 529 991 421 822 c 0,2,3
 312 645 312 645 312 386 c 0,4,5
 312 126 312 126 537 126 c 0,6,7
 699 126 699 126 810 298 c 0,8,9
 920 476 920 476 920 732 c 256,10,11
 920 991 920 991 696 991 c 0,0,1
713 1147 m 0,12,13
 910 1147 910 1147 1013.5 1041.5 c 128,-1,14
 1117 936 1117 936 1117 726 c 0,15,16
 1117 590 1117 590 1075 451 c 0,17,18
 1056 383 1056 383 1027 324 c 128,-1,19
 998 265 998 265 961 207 c 0,20,21
 800 -30 800 -30 505 -30 c 0,22,23
 320 -30 320 -30 219.5 80.5 c 128,-1,24
 119 191 119 191 119 394 c 0,25,26
 119 529 119 529 158 663 c 128,-1,27
 197 797 197 797 275 913 c 0,28,29
 437 1147 437 1147 713 1147 c 0,12,13
865 1639 m 1,30,-1
 1029 1263 l 1,31,-1
 896 1263 l 1,32,-1
 780 1503 l 1,33,-1
 553 1263 l 1,34,-1
 398 1263 l 1,35,-1
 719 1639 l 1,36,-1
 865 1639 l 1,30,-1
EndSplineSet
EndChar
StartChar: odieresis
Encoding: 246 246 124
Width: 1234
VWidth: 3393
Flags: W
HStem: -30 156<392.006 685.208> 991 156<541.808 841.775> 1350 204<476 641 865 1032>
VStem: 119 193<208.757 668.266> 920 197<448.906 909.463>
Fore
696 991 m 0,0,1
 529 991 529 991 421 822 c 0,2,3
 312 645 312 645 312 386 c 0,4,5
 312 126 312 126 537 126 c 0,6,7
 699 126 699 126 810 298 c 0,8,9
 920 476 920 476 920 732 c 256,10,11
 920 991 920 991 696 991 c 0,0,1
713 1147 m 0,12,13
 910 1147 910 1147 1013.5 1041.5 c 128,-1,14
 1117 936 1117 936 1117 726 c 0,15,16
 1117 590 1117 590 1075 451 c 0,17,18
 1056 383 1056 383 1027 324 c 128,-1,19
 998 265 998 265 961 207 c 0,20,21
 800 -30 800 -30 505 -30 c 0,22,23
 320 -30 320 -30 219.5 80.5 c 128,-1,24
 119 191 119 191 119 394 c 0,25,26
 119 529 119 529 158 663 c 128,-1,27
 197 797 197 797 275 913 c 0,28,29
 437 1147 437 1147 713 1147 c 0,12,13
679 1554 m 1,30,-1
 641 1350 l 1,31,-1
 437 1350 l 1,32,-1
 476 1554 l 1,33,-1
 679 1554 l 1,30,-1
1069 1554 m 1,34,-1
 1032 1350 l 1,35,-1
 828 1350 l 1,36,-1
 865 1554 l 1,37,-1
 1069 1554 l 1,34,-1
EndSplineSet
EndChar
StartChar: otilde
Encoding: 245 245 125
Width: 1234
VWidth: 3393
Flags: W
HStem: -30 156<392.006 685.208> 991 156<541.808 841.775> 1311 127<832.015 956.903> 1463 129<555.823 682.439>
VStem: 119 193<208.757 668.266> 401 124<1323.18 1468.15> 920 197<448.906 909.463> 988 122<1448.09 1592>
Fore
696 991 m 0,0,1
 529 991 529 991 421 822 c 0,2,3
 312 645 312 645 312 386 c 0,4,5
 312 126 312 126 537 126 c 0,6,7
 699 126 699 126 810 298 c 0,8,9
 920 476 920 476 920 732 c 256,10,11
 920 991 920 991 696 991 c 0,0,1
713 1147 m 0,12,13
 910 1147 910 1147 1013.5 1041.5 c 128,-1,14
 1117 936 1117 936 1117 726 c 0,15,16
 1117 590 1117 590 1075 451 c 0,17,18
 1056 383 1056 383 1027 324 c 128,-1,19
 998 265 998 265 961 207 c 0,20,21
 800 -30 800 -30 505 -30 c 0,22,23
 320 -30 320 -30 219.5 80.5 c 128,-1,24
 119 191 119 191 119 394 c 0,25,26
 119 529 119 529 158 663 c 128,-1,27
 197 797 197 797 275 913 c 0,28,29
 437 1147 437 1147 713 1147 c 0,12,13
696 1425 m 2,30,31
 658 1463 658 1463 625 1463 c 0,32,33
 540 1463 540 1463 525 1311 c 1,34,-1
 401 1311 l 1,35,36
 437 1592 437 1592 621 1592 c 0,37,38
 664 1592 664 1592 698 1576.5 c 128,-1,39
 732 1561 732 1561 771 1524 c 2,40,-1
 819 1476 l 2,41,42
 855 1438 855 1438 890 1438 c 0,43,44
 968 1438 968 1438 988 1592 c 1,45,-1
 1110 1592 l 1,46,47
 1079 1311 1079 1311 893 1311 c 0,48,49
 845 1311 845 1311 812.5 1324 c 128,-1,50
 780 1337 780 1337 744 1377 c 2,51,-1
 696 1425 l 2,30,31
EndSplineSet
EndChar
StartChar: uacute
Encoding: 250 250 126
Width: 1234
VWidth: 3393
Flags: W
HStem: -27 160<353.058 592.976> 1100 20G<271.185 462 945.07 1133>
VStem: 126 1007<249 1120 7.66425 357.947> 126 186<173.881 308.846 290.331 327.362 327.362 391.531>
Fore
275 1120 m 1,0,-1
 462 1120 l 1,1,-1
 326 428 l 2,2,3
 320 391 320 391 316 357 c 128,-1,4
 312 323 312 323 312 298 c 0,5,6
 312 133 312 133 489 133 c 0,7,8
 618 133 618 133 704 224 c 128,-1,9
 790 315 790 315 825 489 c 2,10,-1
 949 1120 l 1,11,-1
 1133 1120 l 1,12,-1
 916 0 l 1,13,-1
 732 0 l 1,14,-1
 764 169 l 1,15,16
 621 -27 621 -27 408 -27 c 0,17,18
 275 -27 275 -27 200 48 c 0,19,20
 126 119 126 119 126 249 c 0,21,22
 126 285 126 285 131 332 c 128,-1,23
 136 379 136 379 143 428 c 2,24,-1
 275 1120 l 1,0,-1
1123 1639 m 1,25,-1
 726 1263 l 1,26,-1
 570 1263 l 1,27,-1
 903 1639 l 1,28,-1
 1123 1639 l 1,25,-1
EndSplineSet
EndChar
StartChar: ugrave
Encoding: 249 249 127
Width: 1234
VWidth: 3393
Flags: W
HStem: -27 160<353.058 592.976> 1100 20G<271.185 462 945.07 1133>
VStem: 126 1007<249 1120 7.66425 357.947> 126 186<173.881 308.846 290.331 327.362 327.362 391.531>
Fore
275 1120 m 1,0,-1
 462 1120 l 1,1,-1
 326 428 l 2,2,3
 320 391 320 391 316 357 c 128,-1,4
 312 323 312 323 312 298 c 0,5,6
 312 133 312 133 489 133 c 0,7,8
 618 133 618 133 704 224 c 128,-1,9
 790 315 790 315 825 489 c 2,10,-1
 949 1120 l 1,11,-1
 1133 1120 l 1,12,-1
 916 0 l 1,13,-1
 732 0 l 1,14,-1
 764 169 l 1,15,16
 621 -27 621 -27 408 -27 c 0,17,18
 275 -27 275 -27 200 48 c 0,19,20
 126 119 126 119 126 249 c 0,21,22
 126 285 126 285 131 332 c 128,-1,23
 136 379 136 379 143 428 c 2,24,-1
 275 1120 l 1,0,-1
845 1263 m 1,25,-1
 703 1263 l 1,26,-1
 447 1639 l 1,27,-1
 648 1639 l 1,28,-1
 845 1263 l 1,25,-1
EndSplineSet
EndChar
StartChar: ucircumflex
Encoding: 251 251 128
Width: 1234
VWidth: 3393
Flags: W
HStem: -27 160<353.058 592.976> 1100 20G<271.185 462 945.07 1133>
VStem: 126 1007<249 1120 7.66425 357.947> 126 186<173.881 308.846 290.331 327.362 327.362 391.531>
Fore
275 1120 m 1,0,-1
 462 1120 l 1,1,-1
 326 428 l 2,2,3
 320 391 320 391 316 357 c 128,-1,4
 312 323 312 323 312 298 c 0,5,6
 312 133 312 133 489 133 c 0,7,8
 618 133 618 133 704 224 c 128,-1,9
 790 315 790 315 825 489 c 2,10,-1
 949 1120 l 1,11,-1
 1133 1120 l 1,12,-1
 916 0 l 1,13,-1
 732 0 l 1,14,-1
 764 169 l 1,15,16
 621 -27 621 -27 408 -27 c 0,17,18
 275 -27 275 -27 200 48 c 0,19,20
 126 119 126 119 126 249 c 0,21,22
 126 285 126 285 131 332 c 128,-1,23
 136 379 136 379 143 428 c 2,24,-1
 275 1120 l 1,0,-1
862 1639 m 1,25,-1
 1024 1263 l 1,26,-1
 893 1263 l 1,27,-1
 774 1503 l 1,28,-1
 550 1263 l 1,29,-1
 394 1263 l 1,30,-1
 713 1639 l 1,31,-1
 862 1639 l 1,25,-1
EndSplineSet
EndChar
StartChar: udieresis
Encoding: 252 252 129
Width: 1234
VWidth: 3393
Flags: W
HStem: -27 160<353.058 592.976> 1100 20G<271.185 462 945.07 1133> 1350 204<472 635 862 1029>
VStem: 126 1007<249 1120 435 602> 126 186<173.881 308.846 290.331 327.362 327.362 391.531>
Fore
275 1120 m 1,0,-1
 462 1120 l 1,1,-1
 326 428 l 2,2,3
 320 391 320 391 316 357 c 128,-1,4
 312 323 312 323 312 298 c 0,5,6
 312 133 312 133 489 133 c 0,7,8
 618 133 618 133 704 224 c 128,-1,9
 790 315 790 315 825 489 c 2,10,-1
 949 1120 l 1,11,-1
 1133 1120 l 1,12,-1
 916 0 l 1,13,-1
 732 0 l 1,14,-1
 764 169 l 1,15,16
 621 -27 621 -27 408 -27 c 0,17,18
 275 -27 275 -27 200 48 c 0,19,20
 126 119 126 119 126 249 c 0,21,22
 126 285 126 285 131 332 c 128,-1,23
 136 379 136 379 143 428 c 2,24,-1
 275 1120 l 1,0,-1
676 1554 m 1,25,-1
 635 1350 l 1,26,-1
 431 1350 l 1,27,-1
 472 1554 l 1,28,-1
 676 1554 l 1,25,-1
1065 1554 m 1,29,-1
 1029 1350 l 1,30,-1
 825 1350 l 1,31,-1
 862 1554 l 1,32,-1
 1065 1554 l 1,29,-1
EndSplineSet
EndChar
StartChar: dagger
Encoding: 8224 8224 130
Width: 1234
VWidth: 3393
Flags: W
HStem: 920 155<390 725 934 1268 358 1300 390 390> 1473 20G<841.742 1023>
Fore
1023 1493 m 1,0,-1
 934 1075 l 1,1,-1
 1300 1075 l 1,2,-1
 1268 920 l 1,3,-1
 902 920 l 1,4,-1
 664 -197 l 1,5,-1
 487 -197 l 1,6,-1
 725 920 l 1,7,-1
 358 920 l 1,8,-1
 390 1075 l 1,9,-1
 757 1075 l 1,10,-1
 846 1493 l 1,11,-1
 1023 1493 l 1,0,-1
EndSplineSet
EndChar
StartChar: degree
Encoding: 176 176 131
Width: 1234
VWidth: 3393
Flags: W
HStem: 886 128<490.158 739.204> 1392 129<493.796 741.829>
VStem: 298 130<1076.4 1326.19> 807 129<1083.06 1326.19>
Fore
618 1521 m 256,0,1
 754 1521 754 1521 842 1425 c 0,2,3
 936 1337 936 1337 936 1201 c 0,4,5
 936 1072 936 1072 842 978 c 0,6,7
 751 886 751 886 615 886 c 256,8,9
 479 886 479 886 391 978 c 0,10,11
 298 1065 298 1065 298 1201 c 256,12,13
 298 1337 298 1337 391 1428 c 256,14,15
 482 1521 482 1521 618 1521 c 256,0,1
618 1392 m 256,16,17
 537 1392 537 1392 482 1337 c 256,18,19
 428 1283 428 1283 428 1201 c 256,20,21
 428 1120 428 1120 482 1065 c 0,22,23
 540 1014 540 1014 615 1014 c 0,24,25
 696 1014 696 1014 751 1069 c 0,26,27
 807 1127 807 1127 807 1201 c 256,28,29
 807 1276 807 1276 754 1337 c 0,30,31
 699 1392 699 1392 618 1392 c 256,16,17
EndSplineSet
EndChar
StartChar: cent
Encoding: 162 162 132
Width: 1234
VWidth: 3393
Flags: W
HStem: -27 153<422.766 509 641 740.908> 991 156<577.085 709 842 985.038>
VStem: 123 192<231.611 675.628>
Fore
1056 906 m 1,0,1
 958 984 958 984 810 994 c 1,2,-1
 641 123 l 1,3,4
 771 133 771 133 920 214 c 1,5,-1
 890 41 l 1,6,7
 810 10 810 10 743 -5 c 128,-1,8
 676 -20 676 -20 615 -27 c 1,9,-1
 557 -312 l 1,10,-1
 454 -312 l 1,11,-1
 509 -27 l 1,12,13
 326 -7 326 -7 224 116 c 256,14,15
 123 237 123 237 123 431 c 0,16,17
 123 618 123 618 204 780 c 0,18,19
 288 943 288 943 428 1039 c 0,20,21
 560 1130 560 1130 736 1147 c 1,22,-1
 794 1432 l 1,23,-1
 896 1432 l 1,24,-1
 842 1147 l 1,25,26
 958 1143 958 1143 1089 1079 c 1,27,-1
 1056 906 l 1,0,1
709 991 m 1,28,29
 540 974 540 974 431 810 c 0,30,31
 315 651 315 651 315 421 c 0,32,33
 315 152 315 152 543 126 c 1,34,-1
 709 991 l 1,28,29
EndSplineSet
EndChar
StartChar: sterling
Encoding: 163 163 133
Width: 1234
VWidth: 3393
Flags: W
HStem: 0 169<23 262 462 968> 635 145<181 353 580 923> 1367 154<786.614 1124.97>
Fore
1195 1279 m 1,0,1
 1079 1367 1079 1367 953 1367 c 0,2,3
 815 1367 815 1367 739 1283 c 0,4,5
 658 1191 658 1191 625 998 c 2,6,-1
 580 780 l 1,7,-1
 949 780 l 1,8,-1
 923 635 l 1,9,-1
 553 635 l 1,10,-1
 462 169 l 1,11,-1
 998 169 l 1,12,-1
 968 0 l 1,13,-1
 -7 0 l 1,14,-1
 23 169 l 1,15,-1
 262 169 l 1,16,-1
 353 635 l 1,17,-1
 152 635 l 1,18,-1
 181 780 l 1,19,-1
 379 780 l 1,20,-1
 428 1017 l 2,21,22
 479 1279 479 1279 609 1400 c 128,-1,23
 739 1521 739 1521 968 1521 c 0,24,25
 1092 1521 1092 1521 1231 1463 c 1,26,-1
 1195 1279 l 1,0,1
EndSplineSet
EndChar
StartChar: section
Encoding: 167 167 134
Width: 1234
VWidth: 3393
Flags: W
HStem: -200 142<254.418 584.111> 1370 143<606.851 968.801>
VStem: 184 166<610.629 821.233> 350 187<1104.03 1303.33> 658 190<9.15234 216.755> 852 162<512.645 714.582>
Fore
1039 1292 m 1,0,1
 893 1370 893 1370 771 1370 c 0,2,3
 668 1370 668 1370 600 1321 c 0,4,5
 537 1269 537 1269 537 1198 c 0,6,7
 537 1120 537 1120 668 1032 c 0,8,9
 686 1021 686 1021 697.5 1012.5 c 128,-1,10
 709 1004 709 1004 719 998 c 2,11,-1
 804 940 l 2,12,13
 930 852 930 852 971 794 c 0,14,15
 1014 729 1014 729 1014 664 c 0,16,17
 1014 570 1014 570 946 476 c 0,18,19
 882 383 882 383 767 333 c 1,20,21
 848 262 848 262 848 152 c 0,22,23
 848 -7 848 -7 726 -101 c 0,24,25
 608 -200 608 -200 408 -200 c 0,26,27
 336 -200 336 -200 260 -186 c 128,-1,28
 184 -172 184 -172 101 -143 c 1,29,-1
 133 17 l 1,30,31
 288 -58 288 -58 414 -58 c 0,32,33
 522 -58 522 -58 590 -10 c 128,-1,34
 658 38 658 38 658 116 c 0,35,36
 658 214 658 214 476 336 c 2,37,-1
 462 346 l 1,38,-1
 386 398 l 2,39,40
 262 486 262 486 220 537 c 0,41,42
 184 593 184 593 184 664 c 0,43,44
 184 764 184 764 246 848.5 c 128,-1,45
 308 933 308 933 428 998 c 1,46,47
 386 1036 386 1036 368 1075 c 128,-1,48
 350 1114 350 1114 350 1168 c 0,49,50
 350 1321 350 1321 472 1415 c 0,51,52
 590 1513 590 1513 777 1513 c 0,53,54
 916 1513 916 1513 1069 1457 c 1,55,-1
 1039 1292 l 1,0,1
679 401 m 1,56,57
 852 505 852 505 852 618 c 0,58,59
 852 673 852 673 797 726 c 0,60,61
 771 754 771 754 722 793 c 128,-1,62
 673 832 673 832 597 878 c 2,63,-1
 515 930 l 1,64,65
 350 822 350 822 350 709 c 0,66,67
 350 658 350 658 391 611 c 0,68,69
 414 587 414 587 454.5 554.5 c 128,-1,70
 495 522 495 522 560 479 c 2,71,-1
 679 401 l 1,56,57
EndSplineSet
EndChar
StartChar: bullet
Encoding: 8226 8226 135
Width: 1234
VWidth: 3393
Flags: W
HStem: 466 593<674.985 881.373>
VStem: 474 609<768.484 862.172>
Fore
474 693 m 0,0,1
 474 858 474 858 610 971 c 0,2,3
 717 1059 717 1059 840.5 1059 c 128,-1,4
 964 1059 964 1059 1034 971 c 0,5,6
 1083 913 1083 913 1083 832 c 0,7,8
 1083 800 1083 800 1075 764 c 256,9,10
 1049 638 1049 638 943.5 552 c 128,-1,11
 838 466 838 466 714 466 c 256,12,13
 588 466 588 466 521 550 c 256,14,15
 474 610 474 610 474 693 c 0,0,1
EndSplineSet
EndChar
StartChar: paragraph
Encoding: 182 182 136
Width: 1234
VWidth: 3393
Flags: W
HStem: 1370 123<787 978>
VStem: 126 1017<1004 1493 1004 1004>
Fore
1143 1493 m 1,0,-1
 815 -197 l 1,1,-1
 676 -197 l 1,2,-1
 978 1370 l 1,3,-1
 787 1370 l 1,4,-1
 482 -197 l 1,5,-1
 343 -197 l 1,6,-1
 505 648 l 1,7,8
 330 651 330 651 227 751 c 0,9,10
 126 842 126 842 126 1004 c 0,11,12
 126 1218 126 1218 298 1354 c 0,13,14
 469 1493 469 1493 736 1493 c 2,15,-1
 1143 1493 l 1,0,-1
EndSplineSet
EndChar
StartChar: germandbls
Encoding: 223 223 137
Width: 1234
VWidth: 3393
Flags: W
HStem: -30 149<404.638 805.208> 1405 153<589.197 898.532>
VStem: 560 172<789.617 968.957> 906 176<213.878 454.106> 946 181<1180.72 1357.62>
Fore
275 1137 m 1,0,1
 360 1558 360 1558 761 1558 c 0,2,3
 940 1558 940 1558 1033.5 1480 c 128,-1,4
 1127 1402 1127 1402 1127 1249 c 0,5,6
 1127 1188 1127 1188 1110 1110 c 1,7,8
 940 1089 940 1089 835 1021 c 0,9,10
 732 949 732 949 732 858 c 0,11,12
 732 819 732 819 753 790 c 128,-1,13
 774 761 774 761 835 713 c 2,14,-1
 886 676 l 2,15,16
 1001 590 1001 590 1042 522 c 0,17,18
 1082 457 1082 457 1082 370 c 0,19,20
 1082 187 1082 187 953 78 c 0,21,22
 819 -30 819 -30 600 -30 c 0,23,24
 462 -30 462 -30 330 20 c 1,25,-1
 360 184 l 1,26,27
 489 119 489 119 625 119 c 0,28,29
 757 119 757 119 832 181 c 0,30,31
 906 244 906 244 906 353 c 0,32,33
 906 401 906 401 878 444 c 0,34,35
 848 492 848 492 767 550 c 2,36,-1
 706 597 l 2,37,38
 621 658 621 658 587 709 c 0,39,40
 560 764 560 764 560 822 c 0,41,42
 560 953 560 953 661 1049 c 0,43,44
 764 1140 764 1140 940 1181 c 1,45,46
 946 1215 946 1215 946 1239 c 0,47,48
 946 1405 946 1405 751 1405 c 0,49,50
 512 1405 512 1405 462 1133 c 2,51,-1
 240 0 l 1,52,-1
 55 0 l 1,53,-1
 275 1137 l 1,0,1
EndSplineSet
EndChar
StartChar: registered
Encoding: 174 174 138
Width: 1234
VWidth: 3393
Flags: W
HStem: 126 101<410.192 824.578> 703 81<492 597.209> 1017 87<492 722.315> 1256 104<402.201 832.808>
VStem: 0 101<534.473 953.592> 363 129<408 703 784 1017> 761 132<809.778 990.3> 1130 104<528.192 957.382>
Fore
600 1104 m 1,0,1
 893 1104 893 1104 893 903 c 0,2,3
 893 754 893 754 722 722 c 1,4,5
 761 713 761 713 838 593 c 2,6,-1
 953 408 l 1,7,-1
 810 408 l 1,8,-1
 703 580 l 2,9,10
 648 664 648 664 621 683 c 1,11,12
 597 703 597 703 547 703 c 2,13,-1
 492 703 l 1,14,-1
 492 408 l 1,15,-1
 363 408 l 1,16,-1
 363 1104 l 1,17,-1
 600 1104 l 1,0,1
492 1017 m 1,18,-1
 492 784 l 1,19,-1
 593 784 l 2,20,21
 686 784 686 784 723.5 811 c 128,-1,22
 761 838 761 838 761 903 c 0,23,24
 761 964 761 964 723.5 990.5 c 128,-1,25
 686 1017 686 1017 593 1017 c 2,26,-1
 492 1017 l 1,18,-1
618 1360 m 256,27,28
 872 1360 872 1360 1052 1181 c 0,29,30
 1234 991 1234 991 1234 744 c 0,31,32
 1234 489 1234 489 1052 308 c 0,33,34
 868 126 868 126 618 126 c 0,35,36
 363 126 363 126 184 308 c 0,37,38
 0 489 0 489 0 744 c 256,39,40
 0 998 0 998 184 1181 c 0,41,42
 363 1360 363 1360 618 1360 c 256,27,28
618 1256 m 0,43,44
 401 1256 401 1256 255 1107 c 0,45,46
 101 961 101 961 101 744 c 0,47,48
 101 529 101 529 255 379 c 0,49,50
 408 227 408 227 618 227 c 256,51,52
 828 227 828 227 981 379 c 0,53,54
 1130 529 1130 529 1130 744 c 256,55,56
 1130 958 1130 958 981 1107 c 256,57,58
 832 1256 832 1256 618 1256 c 0,43,44
EndSplineSet
EndChar
StartChar: copyright
Encoding: 169 169 139
Width: 1234
VWidth: 3393
Flags: W
HStem: 126 101<410.192 824.578> 370 99<489.29 796.991> 1017 100<487.237 846.989> 1256 104<402.201 832.808>
VStem: 0 101<534.473 953.592> 252 134<571.375 916.909> 1130 104<528.192 957.382>
Fore
865 964 m 1,0,1
 754 1017 754 1017 638 1017 c 256,2,3
 522 1017 522 1017 451 943 c 0,4,5
 386 875 386 875 386 744 c 256,6,7
 386 611 386 611 455.5 540 c 128,-1,8
 525 469 525 469 655 469 c 0,9,10
 713 469 713 469 764 480.5 c 128,-1,11
 815 492 815 492 865 519 c 1,12,-1
 865 414 l 1,13,14
 767 370 767 370 638 370 c 0,15,16
 457 370 457 370 353 469 c 0,17,18
 252 570 252 570 252 744 c 0,19,20
 252 920 252 920 353 1014 c 0,21,22
 462 1117 462 1117 638 1117 c 0,23,24
 767 1117 767 1117 865 1072 c 1,25,-1
 865 964 l 1,0,1
618 1256 m 0,26,27
 401 1256 401 1256 255 1107 c 0,28,29
 101 961 101 961 101 744 c 0,30,31
 101 529 101 529 255 379 c 0,32,33
 408 227 408 227 618 227 c 256,34,35
 828 227 828 227 981 379 c 0,36,37
 1130 529 1130 529 1130 744 c 256,38,39
 1130 958 1130 958 981 1107 c 256,40,41
 832 1256 832 1256 618 1256 c 0,26,27
618 1360 m 256,42,43
 872 1360 872 1360 1052 1181 c 0,44,45
 1234 991 1234 991 1234 744 c 0,46,47
 1234 489 1234 489 1052 308 c 0,48,49
 868 126 868 126 618 126 c 0,50,51
 363 126 363 126 184 308 c 0,52,53
 0 489 0 489 0 744 c 256,54,55
 0 998 0 998 184 1181 c 0,56,57
 363 1360 363 1360 618 1360 c 256,42,43
EndSplineSet
EndChar
StartChar: trademark
Encoding: 8482 8482 140
Width: 1234
VWidth: 3393
Flags: W
HStem: 916 577<460 470 1311 1322> 1402 91<317 460 573 735>
Fore
735 1402 m 1,0,-1
 573 1402 l 1,1,-1
 470 916 l 1,2,-1
 357 916 l 1,3,-1
 460 1402 l 1,4,-1
 298 1402 l 1,5,-1
 317 1493 l 1,6,-1
 754 1493 l 1,7,-1
 735 1402 l 1,0,-1
1095 1239 m 1,8,-1
 1270 1493 l 1,9,-1
 1444 1493 l 1,10,-1
 1322 916 l 1,11,-1
 1209 916 l 1,12,-1
 1311 1399 l 1,13,-1
 1091 1097 l 1,14,-1
 1033 1097 l 1,15,-1
 932 1399 l 1,16,-1
 830 916 l 1,17,-1
 717 916 l 1,18,-1
 839 1493 l 1,19,-1
 1010 1493 l 1,20,-1
 1095 1239 l 1,8,-1
EndSplineSet
EndChar
StartChar: acute
Encoding: 180 180 141
Width: 1234
VWidth: 3393
Flags: W
HStem: 1263 376<732 1127 1127 1127>
Fore
1127 1639 m 1,0,-1
 732 1263 l 1,1,-1
 577 1263 l 1,2,-1
 910 1639 l 1,3,-1
 1127 1639 l 1,0,-1
EndSplineSet
EndChar
StartChar: dieresis
Encoding: 168 168 142
Width: 1234
VWidth: 3393
Flags: W
HStem: 1350 204<476 641 865 1032 437 1069 476 476>
Fore
679 1554 m 1,0,-1
 641 1350 l 1,1,-1
 437 1350 l 1,2,-1
 476 1554 l 1,3,-1
 679 1554 l 1,0,-1
1069 1554 m 1,4,-1
 1032 1350 l 1,5,-1
 828 1350 l 1,6,-1
 865 1554 l 1,7,-1
 1069 1554 l 1,4,-1
EndSplineSet
EndChar
StartChar: notequal
Encoding: 8800 8800 143
Width: 1234
VWidth: 3393
Flags: W
HStem: 353 172<200 363 740 1222> 761 169<286 767 1141 1309>
Fore
934 930 m 1,0,-1
 1246 1246 l 1,1,-1
 1350 1143 l 1,2,-1
 1141 930 l 1,3,-1
 1345 930 l 1,4,-1
 1309 761 l 1,5,-1
 972 761 l 1,6,-1
 740 525 l 1,7,-1
 1259 525 l 1,8,-1
 1222 353 l 1,9,-1
 574 353 l 1,10,-1
 260 38 l 1,11,-1
 156 143 l 1,12,-1
 363 353 l 1,13,-1
 163 353 l 1,14,-1
 200 525 l 1,15,-1
 530 525 l 1,16,-1
 767 761 l 1,17,-1
 250 761 l 1,18,-1
 286 930 l 1,19,-1
 934 930 l 1,0,-1
EndSplineSet
EndChar
StartChar: AE
Encoding: 198 198 144
Width: 1234
VWidth: 3393
Flags: W
HStem: 0 169<713 1036> 383 170<292 567> 713 169<852 1127> 1324 169<648 751 936 1276>
Fore
1276 1324 m 1,0,-1
 936 1324 l 1,1,-1
 852 882 l 1,2,-1
 1157 882 l 1,3,-1
 1127 713 l 1,4,-1
 819 713 l 1,5,-1
 713 169 l 1,6,-1
 1069 169 l 1,7,-1
 1036 0 l 1,8,-1
 492 0 l 1,9,-1
 567 383 l 1,10,-1
 214 383 l 1,11,-1
 41 0 l 1,12,-1
 -146 0 l 1,13,-1
 557 1493 l 1,14,-1
 1311 1493 l 1,15,-1
 1276 1324 l 1,0,-1
292 553 m 1,16,-1
 600 553 l 1,17,-1
 751 1324 l 1,18,-1
 648 1324 l 1,19,-1
 292 553 l 1,16,-1
EndSplineSet
EndChar
StartChar: Oslash
Encoding: 216 216 145
Width: 1234
VWidth: 3393
Flags: W
HStem: -30 166<357.536 651.146> 1357 164<581.678 868.47>
VStem: 81 207<391.611 406.062 406.062 574.487> 940 213<769.342 843.5 908 967.615 967.615 973.515 973.515 1115.58>
Fore
323 230 m 1,0,1
 363 136 363 136 502 136 c 0,2,3
 615 136 615 136 696 217 c 128,-1,4
 777 298 777 298 838 476 c 0,5,6
 862 547 862 547 881 620 c 128,-1,7
 900 693 900 693 913 767 c 0,8,9
 930 842 930 842 935 908 c 128,-1,10
 940 974 940 974 940 1039 c 2,11,-1
 940 1117 l 1,12,-1
 323 230 l 1,0,1
906 1276 m 1,13,14
 842 1357 842 1357 729 1357 c 256,15,16
 618 1357 618 1357 536 1276 c 128,-1,17
 454 1195 454 1195 398 1017 c 0,18,19
 346 868 346 868 315 719 c 0,20,21
 302 641 302 641 295 576.5 c 128,-1,22
 288 512 288 512 288 457 c 2,23,-1
 288 421 l 1,24,25
 292 408 292 408 292 391 c 1,26,-1
 906 1276 l 1,13,14
1097 1337 m 1,27,28
 1123 1279 1123 1279 1138 1206 c 128,-1,29
 1153 1133 1153 1133 1153 1042 c 0,30,31
 1153 943 1153 943 1140 843.5 c 128,-1,32
 1127 744 1127 744 1100 635 c 0,33,34
 1072 529 1072 529 1038 441 c 128,-1,35
 1004 353 1004 353 964 275 c 0,36,37
 790 -30 790 -30 479 -30 c 0,38,39
 320 -30 320 -30 207 65 c 1,40,-1
 113 -71 l 1,41,-1
 13 -7 l 1,42,-1
 133 162 l 1,43,44
 81 282 81 282 81 447 c 0,45,46
 81 651 81 651 133 858 c 0,47,48
 184 1062 184 1062 268 1218 c 0,49,50
 444 1521 444 1521 754 1521 c 0,51,52
 910 1521 910 1521 1017 1435 c 1,53,-1
 1104 1561 l 1,54,-1
 1201 1496 l 1,55,-1
 1097 1337 l 1,27,28
EndSplineSet
EndChar
StartChar: infinity
Encoding: 8734 8734 146
Width: 1234
VWidth: 3393
Flags: W
HStem: 252 139<314.692 513.42 895.418 1095.41> 868 139<402.909 604.815 985.953 1184.04>
VStem: 162 127<446.888 604.303> 1210 130<590.67 813.188>
Fore
829 628 m 1,0,1
 856 492 856 492 891 441 c 256,2,3
 928 391 928 391 992.5 391 c 128,-1,4
 1057 391 1057 391 1116.5 456.5 c 128,-1,5
 1176 522 1176 522 1200 635 c 0,6,7
 1210 682 1210 682 1210 725 c 128,-1,8
 1210 768 1210 768 1195 804 c 256,9,10
 1168 868 1168 868 1097 868 c 0,11,12
 968 868 968 868 829 628 c 1,0,1
672 635 m 1,13,14
 645 768 645 768 610 818 c 128,-1,15
 575 868 575 868 507 868 c 128,-1,16
 439 868 439 868 380.5 802 c 128,-1,17
 322 736 322 736 300 631 c 0,18,19
 289 581 289 581 289 536 c 128,-1,20
 289 491 289 491 304 454 c 0,21,22
 335 391 335 391 403 391 c 0,23,24
 530 391 530 391 672 635 c 1,13,14
780 764 m 1,25,26
 926 1007 926 1007 1117 1007 c 0,27,28
 1231 1007 1231 1007 1298 900 c 0,29,30
 1340 823 1340 823 1340 753 c 0,31,32
 1340 509 1340 509 1186 356 c 0,33,34
 1090 252 1090 252 957 252 c 0,35,36
 879 252 879 252 823 299 c 128,-1,37
 767 346 767 346 717 482 c 1,38,39
 623 356 623 356 547.5 304 c 128,-1,40
 472 252 472 252 387 252 c 0,41,42
 261 252 261 252 202 356 c 0,43,44
 162 423 162 423 162 496.5 c 128,-1,45
 162 570 162 570 175 631 c 256,46,47
 211 800 211 800 312 906 c 0,48,49
 414 1007 414 1007 544 1007 c 0,50,51
 638 1007 638 1007 694 950 c 128,-1,52
 750 893 750 893 780 764 c 1,25,26
EndSplineSet
EndChar
StartChar: plusminus
Encoding: 177 177 147
Width: 1234
VWidth: 3393
Flags: W
HStem: 0 169<88 1147> 673 169<88 534 703 1147>
VStem: 534 169<340 673 842 1171>
Fore
1147 169 m 1,0,-1
 1147 0 l 1,1,-1
 88 0 l 1,2,-1
 88 169 l 1,3,-1
 1147 169 l 1,0,-1
703 842 m 1,4,-1
 1147 842 l 1,5,-1
 1147 673 l 1,6,-1
 703 673 l 1,7,-1
 703 340 l 1,8,-1
 534 340 l 1,9,-1
 534 673 l 1,10,-1
 88 673 l 1,11,-1
 88 842 l 1,12,-1
 534 842 l 1,13,-1
 534 1171 l 1,14,-1
 703 1171 l 1,15,-1
 703 842 l 1,4,-1
EndSplineSet
EndChar
StartChar: lessequal
Encoding: 8804 8804 148
Width: 1234
VWidth: 3393
Flags: W
HStem: 0 169<121 1143>
Fore
1198 258 m 1,0,-1
 210 587 l 1,1,-1
 246 757 l 1,2,-1
 1374 1089 l 1,3,-1
 1335 903 l 1,4,-1
 486 673 l 1,5,-1
 1236 437 l 1,6,-1
 1198 258 l 1,0,-1
1143 0 m 1,7,-1
 85 0 l 1,8,-1
 121 169 l 1,9,-1
 1179 169 l 1,10,-1
 1143 0 l 1,7,-1
EndSplineSet
EndChar
StartChar: greaterequal
Encoding: 8805 8805 149
Width: 1234
VWidth: 3393
Flags: W
HStem: 0 169<124 1147>
Fore
1036 673 m 1,0,-1
 280 903 l 1,1,-1
 319 1089 l 1,2,-1
 1308 757 l 1,3,-1
 1272 587 l 1,4,-1
 143 258 l 1,5,-1
 181 437 l 1,6,-1
 1036 673 l 1,0,-1
1183 169 m 1,7,-1
 1147 0 l 1,8,-1
 88 0 l 1,9,-1
 124 169 l 1,10,-1
 1183 169 l 1,7,-1
EndSplineSet
EndChar
StartChar: yen
Encoding: 165 165 150
Width: 1234
VWidth: 3393
Flags: W
HStem: 0 21G<346 550.733> 525 110<71 444 664 1039> 822 111<133 376 868 1100> 1473 20G<172 385.838 1048.17 1273>
Fore
645 525 m 1,0,-1
 547 0 l 1,1,-1
 346 0 l 1,2,-1
 444 525 l 1,3,-1
 48 525 l 1,4,-1
 71 635 l 1,5,-1
 469 635 l 1,6,-1
 476 673 l 1,7,-1
 418 822 l 1,8,-1
 109 822 l 1,9,-1
 133 933 l 1,10,-1
 376 933 l 1,11,-1
 172 1493 l 1,12,-1
 379 1493 l 1,13,-1
 605 832 l 1,14,-1
 1062 1493 l 1,15,-1
 1273 1493 l 1,16,-1
 868 933 l 1,17,-1
 1120 933 l 1,18,-1
 1100 822 l 1,19,-1
 787 822 l 1,20,-1
 676 673 l 1,21,-1
 664 635 l 1,22,-1
 1059 635 l 1,23,-1
 1039 525 l 1,24,-1
 645 525 l 1,0,-1
EndSplineSet
EndChar
StartChar: mu
Encoding: 181 181 151
Width: 1234
VWidth: 3393
Flags: W
HStem: -428 21G<-41 140.007> -30 163<358.916 663.487 926.5 1066.88> 1100 20G<258.085 447 970.129 1160>
Fore
262 1120 m 1,0,-1
 447 1120 l 1,1,-1
 312 424 l 2,2,3
 302 363 302 363 302 320 c 0,4,5
 302 133 302 133 512 133 c 0,6,7
 784 133 784 133 848 469 c 2,8,-1
 974 1120 l 1,9,-1
 1160 1120 l 1,10,-1
 991 258 l 2,11,12
 988 240 988 240 988 227 c 128,-1,13
 988 214 988 214 988 204 c 0,14,15
 988 143 988 143 1036 143 c 0,16,17
 1046 143 1046 143 1060.5 146 c 128,-1,18
 1075 149 1075 149 1107 162 c 1,19,-1
 1079 17 l 1,20,21
 994 -30 994 -30 930 -30 c 0,22,23
 862 -30 862 -30 823 12.5 c 128,-1,24
 784 55 784 55 784 129 c 1,25,26
 729 48 729 48 661 9 c 128,-1,27
 593 -30 593 -30 495 -30 c 0,28,29
 308 -30 308 -30 249 136 c 1,30,-1
 136 -428 l 1,31,-1
 -41 -428 l 1,32,-1
 262 1120 l 1,0,-1
EndSplineSet
EndChar
StartChar: partialdiff
Encoding: 8706 8706 152
Width: 1234
VWidth: 3393
Flags: W
HStem: -23 53<447.881 669.573> 736 74<661.006 882.982> 1208 119<865.956 1066.33>
VStem: 256 166<93.4888 257.805 209.187 306.423 306.423 353 353 390.569> 1089 144<822.22 1169.9>
Fore
974 621 m 1,0,1
 1089 917 1089 917 1089 1062.5 c 128,-1,2
 1089 1208 1089 1208 983 1208 c 0,3,4
 933 1208 933 1208 844 1150 c 0,5,6
 766 1092 766 1092 726 1092 c 128,-1,7
 686 1092 686 1092 668 1114.5 c 128,-1,8
 650 1137 650 1137 656 1168 c 0,9,10
 670 1231 670 1231 753 1276 c 0,11,12
 835 1327 835 1327 937 1327 c 0,13,14
 1117 1327 1117 1327 1189 1171 c 0,15,16
 1233 1081 1233 1081 1233 972.5 c 128,-1,17
 1233 864 1233 864 1209 754 c 0,18,19
 1137 414 1137 414 945 197 c 0,20,21
 759 -23 759 -23 542 -23 c 0,22,23
 389 -23 389 -23 309 81 c 0,24,25
 256 159 256 159 256 260 c 0,26,27
 256 304 256 304 266 353 c 0,28,29
 309 557 309 557 446 683.5 c 128,-1,30
 583 810 583 810 745 810 c 0,31,32
 848 810 848 810 902.5 764.5 c 128,-1,33
 957 719 957 719 974 621 c 1,0,1
899 495 m 0,34,35
 910 547 910 547 910 593 c 128,-1,36
 910 639 910 639 886 687.5 c 128,-1,37
 862 736 862 736 784 736 c 0,38,39
 675 736 675 736 576 606 c 128,-1,40
 477 476 477 476 434 272 c 0,41,42
 422 215 422 215 422 171 c 0,43,44
 422 30 422 30 549 30 c 0,45,46
 657 30 657 30 756.5 161 c 128,-1,47
 856 292 856 292 899 495 c 0,34,35
EndSplineSet
EndChar
StartChar: summation
Encoding: 8721 8721 153
Width: 1234
VWidth: 3393
Flags: W
HStem: -437 139<270 992> 1382 139<627 1359>
Fore
1022 -298 m 1,0,-1
 992 -437 l 1,1,-1
 50 -437 l 1,2,-1
 70 -343 l 1,3,-1
 816 577 l 1,4,-1
 446 1425 l 1,5,-1
 466 1521 l 1,6,-1
 1388 1521 l 1,7,-1
 1359 1382 l 1,8,-1
 627 1382 l 1,9,-1
 978 577 l 1,10,-1
 270 -298 l 1,11,-1
 1022 -298 l 1,0,-1
EndSplineSet
EndChar
StartChar: product
Encoding: 8719 8719 154
Width: 1234
VWidth: 3393
Flags: W
HStem: 1389 132<603 1221>
Fore
475 1521 m 1,0,-1
 1405 1521 l 1,1,-1
 989 -437 l 1,2,-1
 833 -437 l 1,3,-1
 1221 1389 l 1,4,-1
 603 1389 l 1,5,-1
 215 -437 l 1,6,-1
 59 -437 l 1,7,-1
 475 1521 l 1,0,-1
EndSplineSet
EndChar
StartChar: pi
Encoding: 960 960 155
Width: 1234
VWidth: 3393
Flags: W
HStem: -41 154<1034.6 1130.15> 953 151<81 224 404 832 1014 1153>
VStem: 224 180<0 953> 832 182<132.282 953>
Fore
1153 1104 m 1,0,-1
 1153 953 l 1,1,-1
 1014 953 l 1,2,-1
 1014 249 l 2,3,4
 1014 113 1014 113 1117 113 c 0,5,6
 1133 113 1133 113 1155.5 116 c 128,-1,7
 1178 119 1178 119 1185 119 c 1,8,-1
 1185 -13 l 1,9,10
 1110 -41 1110 -41 1039 -41 c 0,11,12
 926 -41 926 -41 878 27 c 256,13,14
 832 94 832 94 832 268 c 2,15,-1
 832 953 l 1,16,-1
 404 953 l 1,17,-1
 404 0 l 1,18,-1
 224 0 l 1,19,-1
 224 953 l 1,20,-1
 81 953 l 1,21,-1
 81 1104 l 1,22,-1
 1153 1104 l 1,0,-1
EndSplineSet
EndChar
StartChar: integral
Encoding: 8747 8747 156
Width: 1234
VWidth: 3393
Flags: W
HStem: -370 108<236.956 396.401> 1445 106<1089.68 1246.01>
Fore
236 -104 m 0,0,1
 336 -104 336 -104 323 -220 c 0,2,3
 320 -262 320 -262 338 -262 c 0,4,5
 452 -262 452 -262 543.5 150.5 c 128,-1,6
 635 563 635 563 640 590 c 0,7,8
 771 1114 771 1114 908.5 1332.5 c 128,-1,9
 1046 1551 1046 1551 1250 1551 c 0,10,11
 1331 1551 1331 1551 1368 1514 c 128,-1,12
 1405 1477 1405 1477 1405 1418 c 128,-1,13
 1405 1359 1405 1359 1358.5 1322.5 c 128,-1,14
 1312 1286 1312 1286 1254 1286 c 0,15,16
 1166 1286 1166 1286 1160 1357 c 0,17,18
 1160 1374 1160 1374 1161 1409.5 c 128,-1,19
 1162 1445 1162 1445 1149 1445 c 0,20,21
 1043 1445 1043 1445 894 825 c 0,22,23
 870 726 870 726 854.5 653 c 128,-1,24
 839 580 839 580 802.5 431 c 128,-1,25
 766 282 766 282 700.5 110.5 c 128,-1,26
 635 -61 635 -61 566 -162 c 0,27,28
 426 -370 426 -370 229 -370 c 0,29,30
 151 -370 151 -370 111 -330 c 256,31,32
 78 -298 78 -298 78 -253 c 0,33,34
 78 -239 78 -239 81 -224 c 0,35,36
 107 -104 107 -104 236 -104 c 0,0,1
EndSplineSet
EndChar
StartChar: ordfeminine
Encoding: 170 170 157
Width: 1234
VWidth: 3393
Flags: W
HStem: 469 124<249 900> 699 120<472.937 716.131> 1107 114<508.57 872> 1405 116<569.212 858.86>
VStem: 295 146<848.097 1044.74> 893 146<1221.75 1241.4 1241.4 1371.99>
Fore
729 1107 m 1,0,1
 441 1107 441 1107 441 940 c 0,2,3
 441 882 441 882 478 850.5 c 128,-1,4
 515 819 515 819 577 819 c 0,5,6
 686 819 686 819 762 884 c 128,-1,7
 838 949 838 949 865 1075 c 2,8,-1
 872 1107 l 1,9,-1
 729 1107 l 1,0,1
940 719 m 1,10,-1
 797 719 l 1,11,-1
 822 832 l 1,12,13
 709 699 709 699 534 699 c 0,14,15
 424 699 424 699 359.5 759 c 128,-1,16
 295 819 295 819 295 920 c 0,17,18
 295 1059 295 1059 408 1140 c 256,19,20
 519 1221 519 1221 719 1221 c 2,21,-1
 893 1221 l 1,22,-1
 893 1228 l 1,23,24
 896 1246 896 1246 896 1254.5 c 128,-1,25
 896 1263 896 1263 896 1269 c 0,26,27
 896 1341 896 1341 853 1373 c 128,-1,28
 810 1405 810 1405 713 1405 c 0,29,30
 570 1405 570 1405 434 1337 c 1,31,-1
 457 1466 l 1,32,33
 534 1493 534 1493 606.5 1507 c 128,-1,34
 679 1521 679 1521 744 1521 c 0,35,36
 1039 1521 1039 1521 1039 1269 c 0,37,38
 1039 1225 1039 1225 1029 1168 c 2,39,-1
 940 719 l 1,10,-1
923 593 m 1,40,-1
 900 469 l 1,41,-1
 224 469 l 1,42,-1
 249 593 l 1,43,-1
 923 593 l 1,40,-1
EndSplineSet
EndChar
StartChar: ordmasculine
Encoding: 186 186 158
Width: 1234
VWidth: 3393
Flags: W
HStem: 469 124<249 900> 699 116<528.21 773.207> 1405 116<601.058 849.003>
VStem: 308 158<878.14 1229.58> 913 152<994.344 1338.34>
Fore
635 699 m 0,0,1
 482 699 482 699 394 787 c 0,2,3
 308 875 308 875 308 1039 c 0,4,5
 308 1127 308 1127 339 1214.5 c 128,-1,6
 370 1302 370 1302 428 1370 c 0,7,8
 489 1445 489 1445 570 1483 c 128,-1,9
 651 1521 651 1521 744 1521 c 0,10,11
 896 1521 896 1521 981 1432 c 256,12,13
 1065 1344 1065 1344 1065 1181 c 0,14,15
 1065 1092 1065 1092 1034.5 1006 c 128,-1,16
 1004 920 1004 920 946 852 c 0,17,18
 822 699 822 699 635 699 c 0,0,1
466 1039 m 0,19,20
 466 933 466 933 513 874 c 128,-1,21
 560 815 560 815 648 815 c 0,22,23
 757 815 757 815 835 923 c 256,24,25
 913 1032 913 1032 913 1181 c 0,26,27
 913 1286 913 1286 864 1345.5 c 128,-1,28
 815 1405 815 1405 726 1405 c 0,29,30
 621 1405 621 1405 540 1299 c 0,31,32
 466 1195 466 1195 466 1039 c 0,19,20
923 593 m 1,33,-1
 900 469 l 1,34,-1
 224 469 l 1,35,-1
 249 593 l 1,36,-1
 923 593 l 1,33,-1
EndSplineSet
EndChar
StartChar: Omega
Encoding: 937 937 159
Width: 1234
VWidth: 3393
Flags: W
HStem: 0 172<75 320 913 1160> 1296 167<460.781 770.377>
VStem: 85 197<488.675 1075.63> 949 198<485.763 1076.61>
Fore
75 172 m 1,0,-1
 320 172 l 1,1,2
 200 302 200 302 143 451 c 0,3,4
 85 597 85 597 85 784 c 0,5,6
 85 1089 85 1089 230 1276 c 0,7,8
 373 1463 373 1463 615 1463 c 0,9,10
 858 1463 858 1463 1001 1279 c 0,11,12
 1147 1100 1147 1100 1147 784 c 0,13,14
 1147 600 1147 600 1089 447 c 0,15,16
 1032 302 1032 302 913 172 c 1,17,-1
 1160 172 l 1,18,-1
 1160 0 l 1,19,-1
 696 0 l 1,20,-1
 696 172 l 1,21,22
 819 249 819 249 882 414 c 0,23,24
 949 570 949 570 949 800 c 256,25,26
 949 1032 949 1032 862 1160 c 0,27,28
 771 1296 771 1296 618 1296 c 0,29,30
 457 1296 457 1296 373 1160 c 0,31,32
 282 1036 282 1036 282 800 c 0,33,34
 282 580 282 580 350 414 c 0,35,36
 421 249 421 249 537 172 c 1,37,-1
 537 0 l 1,38,-1
 75 0 l 1,39,-1
 75 172 l 1,0,-1
EndSplineSet
EndChar
StartChar: ae
Encoding: 230 230 160
Width: 1234
VWidth: 3393
Flags: W
HStem: -30 153<160.939 380.199 680.293 932.217> 515 143<322.319 502 696 1024> 998 149<296.762 517.995 808.266 1018.86>
VStem: -48 171<160.518 369.586> 1052 163<760.448 960.714>
Fore
502 515 m 1,0,-1
 454 515 l 2,1,2
 333 515 333 515 275 499 c 0,3,4
 220 482 220 482 187 444 c 0,5,6
 159 411 159 411 141 361.5 c 128,-1,7
 123 312 123 312 123 262 c 0,8,9
 123 204 123 204 162 162 c 0,10,11
 200 123 200 123 262 123 c 0,12,13
 350 123 350 123 401 191 c 0,14,15
 454 258 454 258 489 441 c 2,16,-1
 502 515 l 1,0,-1
1042 732 m 2,17,18
 1052 784 1052 784 1052 848 c 0,19,20
 1052 916 1052 916 1018 957 c 128,-1,21
 984 998 984 998 926 998 c 0,22,23
 757 998 757 998 713 739 c 2,24,-1
 696 658 l 1,25,-1
 1024 658 l 1,26,-1
 1042 732 l 2,17,18
668 515 m 1,27,28
 651 424 651 424 643 368 c 128,-1,29
 635 312 635 312 635 285 c 0,30,31
 635 207 635 207 682 163 c 128,-1,32
 729 119 729 119 815 119 c 0,33,34
 886 119 886 119 957.5 147.5 c 128,-1,35
 1029 176 1029 176 1082 227 c 1,36,-1
 1049 55 l 1,37,38
 926 -30 926 -30 784 -30 c 0,39,40
 679 -30 679 -30 609.5 12.5 c 128,-1,41
 540 55 540 55 515 133 c 1,42,43
 421 -30 421 -30 234 -30 c 0,44,45
 113 -30 113 -30 30 45 c 0,46,47
 -48 116 -48 116 -48 240 c 0,48,49
 -48 444 -48 444 73 551 c 128,-1,50
 194 658 194 658 418 658 c 2,51,-1
 537 658 l 1,52,-1
 553 747 l 2,53,54
 560 767 560 767 560 787 c 128,-1,55
 560 807 560 807 560 835 c 0,56,57
 560 913 560 913 519.5 955.5 c 128,-1,58
 479 998 479 998 401 998 c 0,59,60
 295 998 295 998 143 913 c 1,61,-1
 176 1079 l 1,62,63
 255 1117 255 1117 323 1132 c 128,-1,64
 391 1147 391 1147 447 1147 c 0,65,66
 621 1147 621 1147 683 1017 c 1,67,68
 729 1082 729 1082 800.5 1114.5 c 128,-1,69
 872 1147 872 1147 949 1147 c 0,70,71
 1072 1147 1072 1147 1143 1072 c 256,72,73
 1215 998 1215 998 1215 862 c 0,74,75
 1215 825 1215 825 1206.5 760.5 c 128,-1,76
 1198 696 1198 696 1181 605 c 2,77,-1
 1163 515 l 1,78,-1
 668 515 l 1,27,28
EndSplineSet
EndChar
StartChar: oslash
Encoding: 248 248 161
Width: 1234
VWidth: 3393
Flags: W
HStem: -30 156<394.829 685.208> 991 156<540.217 844.347>
VStem: 119 193<321.849 673.064> 920 197<455.343 823.637>
Fore
376 187 m 1,0,1
 437 126 437 126 537 126 c 0,2,3
 699 126 699 126 810 298 c 0,4,5
 920 476 920 476 920 732 c 0,6,7
 920 761 920 761 920 782.5 c 128,-1,8
 920 804 920 804 913 825 c 1,9,-1
 376 187 l 1,0,1
176 133 m 1,10,11
 119 224 119 224 119 391 c 0,12,13
 119 534 119 534 158 667 c 128,-1,14
 197 800 197 800 275 913 c 0,15,16
 434 1147 434 1147 726 1147 c 0,17,18
 878 1147 878 1147 971 1075 c 1,19,-1
 1082 1215 l 1,20,-1
 1175 1137 l 1,21,-1
 1052 991 l 1,22,23
 1117 893 1117 893 1117 726 c 0,24,25
 1117 590 1117 590 1075 451 c 0,26,27
 1056 383 1056 383 1027 324 c 128,-1,28
 998 265 998 265 961 207 c 0,29,30
 800 -30 800 -30 505 -30 c 0,31,32
 363 -30 363 -30 258 45 c 1,33,-1
 139 -94 l 1,34,-1
 48 -20 l 1,35,-1
 176 133 l 1,10,11
852 940 m 1,36,37
 797 991 797 991 696 991 c 0,38,39
 529 991 529 991 421 822 c 0,40,41
 312 645 312 645 312 379 c 0,42,43
 312 360 312 360 313.5 340 c 128,-1,44
 315 320 315 320 320 302 c 1,45,-1
 852 940 l 1,36,37
EndSplineSet
EndChar
StartChar: questiondown
Encoding: 191 191 162
Width: 1234
VWidth: 3393
Flags: W
HStem: -27 163<399.87 736.745> 1243 250<726 882>
VStem: 143 203<186.708 411.688>
Fore
848 1092 m 1,0,-1
 819 940 l 2,1,2
 797 842 797 842 761 780 c 0,3,4
 716 709 716 709 608 621 c 2,5,-1
 502 534 l 2,6,7
 418 462 418 462 382 406 c 128,-1,8
 346 350 346 350 346 292 c 0,9,10
 346 217 346 217 401.5 176.5 c 128,-1,11
 457 136 457 136 557 136 c 0,12,13
 635 136 635 136 733.5 171.5 c 128,-1,14
 832 207 832 207 940 275 c 1,15,-1
 903 85 l 1,16,17
 686 -27 686 -27 489 -27 c 0,18,19
 340 -27 340 -27 240 55 c 256,20,21
 143 136 143 136 143 262 c 0,22,23
 143 356 143 356 194 437 c 0,24,25
 217 479 217 479 261 524.5 c 128,-1,26
 305 570 305 570 370 625 c 2,27,-1
 476 713 l 2,28,29
 563 784 563 784 590 832 c 256,30,31
 618 878 618 878 635 971 c 2,32,-1
 655 1092 l 1,33,-1
 848 1092 l 1,0,-1
679 1243 m 1,34,-1
 726 1493 l 1,35,-1
 930 1493 l 1,36,-1
 882 1243 l 1,37,-1
 679 1243 l 1,34,-1
EndSplineSet
EndChar
StartChar: exclamdown
Encoding: 161 161 163
Width: 1234
VWidth: 3393
Flags: W
HStem: 0 21G<391 596.847> 1243 250<683 835>
VStem: 391 491<0 1493 -609.831 -484.61>
Fore
631 1243 m 1,0,-1
 683 1493 l 1,1,-1
 882 1493 l 1,2,-1
 835 1243 l 1,3,-1
 631 1243 l 1,0,-1
391 0 m 1,4,-1
 519 655 l 1,5,-1
 608 1014 l 1,6,-1
 771 1014 l 1,7,-1
 719 655 l 1,8,-1
 593 0 l 1,9,-1
 391 0 l 1,4,-1
EndSplineSet
EndChar
StartChar: logicalnot
Encoding: 172 172 164
Width: 1234
VWidth: 3393
Flags: W
HStem: 370 492<978 1147> 693 169<88 978>
VStem: 978 169<370 693>
Fore
1147 862 m 1,0,-1
 1147 370 l 1,1,-1
 978 370 l 1,2,-1
 978 693 l 1,3,-1
 88 693 l 1,4,-1
 88 862 l 1,5,-1
 1147 862 l 1,0,-1
EndSplineSet
EndChar
StartChar: radical
Encoding: 8730 8730 165
Width: 1234
VWidth: 3393
Flags: W
Fore
240 858 m 1,0,-1
 554 958 l 1,1,-1
 618 224 l 1,2,-1
 1400 1697 l 1,3,-1
 1546 1697 l 1,4,-1
 1518 1568 l 1,5,-1
 1470 1568 l 1,6,-1
 622 -41 l 1,7,-1
 496 -41 l 1,8,-1
 425 787 l 1,9,-1
 257 732 l 1,10,-1
 240 858 l 1,0,-1
EndSplineSet
EndChar
StartChar: florin
Encoding: 402 402 166
Width: 1234
VWidth: 3393
Flags: W
HStem: -428 146<30.8633 320.025> 706 142<305 557 761 1062> 1415 143<902.562 1181.93>
Fore
1201 1357 m 1,0,1
 1127 1415 1127 1415 1039 1415 c 0,2,3
 838 1415 838 1415 804 1160 c 2,4,-1
 761 848 l 1,5,-1
 1062 848 l 1,6,-1
 1062 706 l 1,7,-1
 732 706 l 1,8,-1
 635 71 l 2,9,10
 590 -194 590 -194 492 -312 c 0,11,12
 386 -428 386 -428 204 -428 c 0,13,14
 88 -428 88 -428 0 -383 c 1,15,-1
 0 -220 l 1,16,17
 98 -282 98 -282 197 -282 c 0,18,19
 386 -282 386 -282 441 17 c 2,20,-1
 557 706 l 1,21,-1
 305 706 l 1,22,-1
 305 848 l 1,23,-1
 580 848 l 1,24,-1
 631 1181 l 2,25,26
 658 1354 658 1354 754 1457 c 0,27,28
 855 1558 855 1558 1001 1558 c 0,29,30
 1097 1558 1097 1558 1201 1521 c 1,31,-1
 1201 1357 l 1,0,1
EndSplineSet
EndChar
StartChar: approxequal
Encoding: 8776 8776 167
Width: 1234
VWidth: 3393
Flags: W
HStem: 305 167<782.881 1106.55> 431 166<320.496 659.913> 676 166<864.332 1190> 797 167<399.741 741.855>
Fore
1314 787 m 1,0,1
 1145 676 1145 676 992 676 c 0,2,3
 901 676 901 676 799 726 c 1,4,5
 800.739 724.696 800.739 724.696 756 746 c 0,6,7
 652 797 652 797 548 797 c 0,8,9
 399 797 399 797 232 676 c 1,10,-1
 268 848 l 1,11,12
 438 964 438 964 603 964 c 0,13,14
 703 964 703 964 818 910 c 1,15,16
 824 906 824 906 830.5 904.5 c 128,-1,17
 837 903 837 903 845 896 c 1,18,19
 946 842 946 842 1044 842 c 0,20,21
 1183 842 1183 842 1352 964 c 1,22,-1
 1314 787 l 1,0,1
694 370 m 1,23,24
 575 431 575 431 484.5 431 c 128,-1,25
 394 431 394 431 317.5 402 c 128,-1,26
 241 373 241 373 153 305 c 1,27,-1
 190 479 l 1,28,29
 358 597 358 597 525 597 c 0,30,31
 620 597 620 597 736 543 c 0,32,33
 760 533 760 533 767 525 c 1,34,35
 867 472 867 472 965 472 c 0,36,37
 1098 472 1098 472 1274 597 c 1,38,-1
 1236 421 l 1,39,40
 1063 305 1063 305 913 305 c 0,41,42
 822 305 822 305 721 356 c 0,43,44
 697 370 697 370 694 370 c 1,23,24
EndSplineSet
EndChar
StartChar: Delta
Encoding: 8710 8710 168
Width: 1234
VWidth: 3393
Flags: W
HStem: 0 172<286 1025>
Fore
815 1425 m 1,0,-1
 1025 1425 l 1,1,-1
 1243 0 l 1,2,-1
 -7 0 l 1,3,-1
 815 1425 l 1,0,-1
286 172 m 1,4,-1
 1025 172 l 1,5,-1
 878 1221 l 1,6,-1
 286 172 l 1,4,-1
EndSplineSet
EndChar
StartChar: guillemotleft
Encoding: 171 171 169
Width: 1234
VWidth: 3393
Flags: W
HStem: 143 916<930 1107 1107 1107>
Fore
1065 848 m 1,0,-1
 713 583 l 1,1,-1
 964 320 l 1,2,-1
 930 143 l 1,3,-1
 543 560 l 1,4,-1
 557 641 l 1,5,-1
 1107 1059 l 1,6,-1
 1065 848 l 1,0,-1
597 848 m 1,7,-1
 249 583 l 1,8,-1
 495 320 l 1,9,-1
 462 143 l 1,10,-1
 75 560 l 1,11,-1
 91 641 l 1,12,-1
 641 1059 l 1,13,-1
 597 848 l 1,7,-1
EndSplineSet
EndChar
StartChar: guillemotright
Encoding: 187 187 170
Width: 1234
VWidth: 3393
Flags: W
HStem: 143 916<81 262 262 262>
Fore
126 353 m 1,0,-1
 476 615 l 1,1,-1
 224 882 l 1,2,-1
 262 1059 l 1,3,-1
 648 641 l 1,4,-1
 635 560 l 1,5,-1
 81 143 l 1,6,-1
 126 353 l 1,0,-1
593 353 m 1,7,-1
 943 615 l 1,8,-1
 693 882 l 1,9,-1
 726 1059 l 1,10,-1
 1117 641 l 1,11,-1
 1104 560 l 1,12,-1
 550 143 l 1,13,-1
 593 353 l 1,7,-1
EndSplineSet
EndChar
StartChar: ellipsis
Encoding: 8230 8230 171
Width: 1234
VWidth: 3393
Flags: W
HStem: 0 305<146 333 554 744 965 1153>
Fore
398 305 m 1,0,-1
 333 0 l 1,1,-1
 81 0 l 1,2,-1
 146 305 l 1,3,-1
 398 305 l 1,0,-1
1218 305 m 1,4,-1
 1153 0 l 1,5,-1
 900 0 l 1,6,-1
 965 305 l 1,7,-1
 1218 305 l 1,4,-1
809 305 m 1,8,-1
 744 0 l 1,9,-1
 489 0 l 1,10,-1
 554 305 l 1,11,-1
 809 305 l 1,8,-1
EndSplineSet
EndChar
StartChar: Agrave
Encoding: 192 192 173
Width: 1234
VWidth: 3393
Flags: W
HStem: 0 21G<-104 122.309 850.107 1052> 391 162<370 800> 1473 20G<631.02 888.224>
Fore
370 553 m 1,0,-1
 800 553 l 1,1,-1
 736 1327 l 1,2,-1
 370 553 l 1,0,-1
886 1493 m 1,3,-1
 1052 0 l 1,4,-1
 852 0 l 1,5,-1
 815 391 l 1,6,-1
 295 391 l 1,7,-1
 113 0 l 1,8,-1
 -104 0 l 1,9,-1
 641 1493 l 1,10,-1
 886 1493 l 1,3,-1
882 1635 m 1,11,-1
 744 1635 l 1,12,-1
 553 1901 l 1,13,-1
 732 1901 l 1,14,-1
 882 1635 l 1,11,-1
EndSplineSet
EndChar
StartChar: Atilde
Encoding: 195 195 174
Width: 1234
VWidth: 3393
Flags: W
HStem: 0 21G<-104 122.309 850.107 1052> 391 162<370 800> 1473 20G<631.02 888.224> 1670 118<842.547 1010.58> 1670 217<512 567 1032 1097> 1771 116<599.604 761.555>
VStem: 1032 125<1785.48 1887>
Fore
370 553 m 1,0,-1
 800 553 l 1,1,-1
 736 1327 l 1,2,-1
 370 553 l 1,0,-1
886 1493 m 1,3,-1
 1052 0 l 1,4,-1
 852 0 l 1,5,-1
 815 391 l 1,6,-1
 295 391 l 1,7,-1
 113 0 l 1,8,-1
 -104 0 l 1,9,-1
 641 1493 l 1,10,-1
 886 1493 l 1,3,-1
757 1738 m 1,11,-1
 754 1738 l 1,12,13
 709 1771 709 1771 676 1771 c 0,14,15
 608 1771 608 1771 567 1670 c 1,16,-1
 441 1670 l 1,17,18
 512 1887 512 1887 686 1887 c 0,19,20
 751 1887 751 1887 819 1843 c 2,21,-1
 852 1816 l 2,22,23
 882 1788 882 1788 926 1788 c 0,24,25
 1011 1788 1011 1788 1032 1887 c 1,26,-1
 1157 1887 l 1,27,28
 1097 1670 1097 1670 910 1670 c 0,29,30
 852 1670 852 1670 790 1710 c 2,31,-1
 757 1738 l 1,11,-1
EndSplineSet
EndChar
StartChar: Otilde
Encoding: 213 213 175
Width: 1234
VWidth: 3393
Flags: W
HStem: -30 166<371.2 651.674> 1357 164<582.407 864.636> 1670 118<834.663 1003.3> 1670 217<505 560 1024 1082> 1771 116<589.127 755.185>
VStem: 81 207<219.65 800.244> 943 210<792.906 1272.71> 1024 126<1784.16 1887>
Fore
502 136 m 0,0,1
 587 136 587 136 659.5 185 c 128,-1,2
 732 234 732 234 780 333 c 0,3,4
 819 408 819 408 847 494 c 128,-1,5
 875 580 875 580 900 683 c 0,6,7
 943 882 943 882 943 1079 c 0,8,9
 943 1357 943 1357 729 1357 c 0,10,11
 645 1357 645 1357 573.5 1306.5 c 128,-1,12
 502 1256 502 1256 454 1160 c 0,13,14
 379 1014 379 1014 333 807 c 0,15,16
 288 611 288 611 288 414 c 0,17,18
 288 136 288 136 502 136 c 0,0,1
1153 1021 m 0,19,20
 1153 913 1153 913 1130 784 c 128,-1,21
 1107 655 1107 655 1065 515 c 0,22,23
 1007 340 1007 340 930 220 c 0,24,25
 842 91 842 91 733.5 30.5 c 128,-1,26
 625 -30 625 -30 479 -30 c 0,27,28
 81 -30 81 -30 81 476 c 0,29,30
 81 696 81 696 169 978 c 0,31,32
 197 1069 197 1069 231 1142 c 128,-1,33
 265 1215 265 1215 302 1273 c 0,34,35
 391 1402 391 1402 499.5 1461.5 c 128,-1,36
 608 1521 608 1521 754 1521 c 0,37,38
 958 1521 958 1521 1055.5 1398.5 c 128,-1,39
 1153 1276 1153 1276 1153 1021 c 0,19,20
751 1738 m 1,40,-1
 747 1738 l 1,41,42
 703 1771 703 1771 664 1771 c 0,43,44
 597 1771 597 1771 560 1670 c 1,45,-1
 434 1670 l 1,46,47
 505 1887 505 1887 679 1887 c 0,48,49
 744 1887 744 1887 810 1843 c 2,50,-1
 845 1816 l 2,51,52
 875 1788 875 1788 920 1788 c 0,53,54
 1004 1788 1004 1788 1024 1887 c 1,55,-1
 1150 1887 l 1,56,57
 1082 1670 1082 1670 900 1670 c 0,58,59
 845 1670 845 1670 784 1710 c 2,60,-1
 751 1738 l 1,40,-1
EndSplineSet
EndChar
StartChar: OE
Encoding: 338 338 176
Width: 1234
VWidth: 3393
Flags: W
HStem: 0 169<320.828 540 736 1072> 713 169<875 1171> 1324 169<519.055 764 961 1321>
VStem: 33 197<251.786 646.36>
Fore
1072 0 m 1,0,-1
 469 0 l 2,1,2
 33 0 33 0 33 414 c 0,3,4
 33 489 33 489 42 570 c 128,-1,5
 51 651 51 651 68 744 c 256,6,7
 85 835 85 835 105.5 916.5 c 128,-1,8
 126 998 126 998 152 1069 c 0,9,10
 237 1296 237 1296 379 1399 c 0,11,12
 515 1493 515 1493 761 1493 c 2,13,-1
 1354 1493 l 1,14,-1
 1321 1324 l 1,15,-1
 961 1324 l 1,16,-1
 875 882 l 1,17,-1
 1205 882 l 1,18,-1
 1171 713 l 1,19,-1
 842 713 l 1,20,-1
 736 169 l 1,21,-1
 1107 169 l 1,22,-1
 1072 0 l 1,0,-1
703 1324 m 1,23,24
 466 1324 466 1324 370 1107 c 0,25,26
 323 994 323 994 272 747 c 0,27,28
 230 534 230 534 230 414 c 0,29,30
 230 169 230 169 479 169 c 2,31,-1
 540 169 l 1,32,-1
 764 1324 l 1,33,-1
 703 1324 l 1,23,24
EndSplineSet
EndChar
StartChar: oe
Encoding: 339 339 177
Width: 1234
VWidth: 3393
Flags: W
HStem: -30 153<207.278 425.711 736.04 984.634> 515 140<754 1082> 998 149<347.194 581.021 867.62 1083.12>
VStem: -7 176<157.851 398.343> 1110 163<752.794 966.062>
Fore
736 1021 m 1,0,1
 852 1147 852 1147 1007 1147 c 0,2,3
 1130 1147 1130 1147 1201 1072 c 256,4,5
 1273 998 1273 998 1273 862 c 0,6,7
 1273 774 1273 774 1243 605 c 2,8,-1
 1225 515 l 1,9,-1
 722 515 l 1,10,11
 706 424 706 424 696 368 c 128,-1,12
 686 312 686 312 686 285 c 0,13,14
 686 207 686 207 735 163 c 128,-1,15
 784 119 784 119 868 119 c 0,16,17
 936 119 936 119 1009 147.5 c 128,-1,18
 1082 176 1082 176 1137 227 c 1,19,-1
 1104 55 l 1,20,21
 978 -30 978 -30 838 -30 c 0,22,23
 744 -30 744 -30 676 5.5 c 128,-1,24
 608 41 608 41 573 104 c 1,25,26
 454 -30 454 -30 292 -30 c 0,27,28
 146 -30 146 -30 69.5 53 c 128,-1,29
 -7 136 -7 136 -7 292 c 0,30,31
 -7 404 -7 404 23 560 c 0,32,33
 48 679 48 679 76 773.5 c 128,-1,34
 104 868 104 868 146 940 c 0,35,36
 262 1147 262 1147 499 1147 c 0,37,38
 577 1147 577 1147 640 1113 c 128,-1,39
 703 1079 703 1079 736 1021 c 1,0,1
1082 655 m 1,40,-1
 1100 729 l 2,41,42
 1110 790 1110 790 1110 842 c 0,43,44
 1110 991 1110 991 984 991 c 0,45,46
 819 991 819 991 771 736 c 2,47,-1
 754 655 l 1,48,-1
 1082 655 l 1,40,-1
312 123 m 0,49,50
 437 123 437 123 495 262 c 0,51,52
 534 350 534 350 577 560 c 0,53,54
 593 668 593 668 604 734 c 128,-1,55
 615 800 615 800 615 835 c 0,56,57
 615 913 615 913 579 955.5 c 128,-1,58
 543 998 543 998 476 998 c 0,59,60
 343 998 343 998 285 858 c 0,61,62
 244 751 244 751 204 560 c 0,63,64
 187 472 187 472 178 401 c 128,-1,65
 169 330 169 330 169 292 c 0,66,67
 169 123 169 123 312 123 c 0,49,50
EndSplineSet
EndChar
StartChar: endash
Encoding: 8211 8211 178
Width: 1234
VWidth: 3393
Flags: W
HStem: 492 143<135 1339>
Fore
1369 635 m 1,0,-1
 1339 492 l 1,1,-1
 105 492 l 1,2,-1
 135 635 l 1,3,-1
 1369 635 l 1,0,-1
EndSplineSet
EndChar
StartChar: emdash
Encoding: 8212 8212 179
Width: 1234
VWidth: 3393
Flags: W
HStem: 492 143<135 1339>
Fore
1369 635 m 1,0,-1
 1339 492 l 1,1,-1
 105 492 l 1,2,-1
 135 635 l 1,3,-1
 1369 635 l 1,0,-1
EndSplineSet
EndChar
StartChar: quotedblleft
Encoding: 8220 8220 180
Width: 1234
VWidth: 3393
Flags: W
HStem: 968 590<879 1199 1199 1199>
Fore
879 968 m 1,0,-1
 923 1175 l 1,1,-1
 1199 1558 l 1,2,-1
 1352 1558 l 1,3,-1
 1176 1175 l 1,4,-1
 1132 968 l 1,5,-1
 879 968 l 1,0,-1
416 968 m 1,6,-1
 460 1175 l 1,7,-1
 742 1558 l 1,8,-1
 894 1558 l 1,9,-1
 716 1175 l 1,10,-1
 672 968 l 1,11,-1
 416 968 l 1,6,-1
EndSplineSet
EndChar
StartChar: quotedblright
Encoding: 8221 8221 181
Width: 1234
VWidth: 3393
Flags: W
HStem: 968 590<1031 1352 1352 1352>
Fore
1352 1558 m 1,0,-1
 1308 1350 l 1,1,-1
 1031 968 l 1,2,-1
 879 968 l 1,3,-1
 1058 1350 l 1,4,-1
 1102 1558 l 1,5,-1
 1352 1558 l 1,0,-1
891 1558 m 1,6,-1
 847 1350 l 1,7,-1
 572 968 l 1,8,-1
 416 968 l 1,9,-1
 595 1350 l 1,10,-1
 639 1558 l 1,11,-1
 891 1558 l 1,6,-1
EndSplineSet
EndChar
StartChar: quoteleft
Encoding: 8216 8216 182
Width: 1234
VWidth: 3393
Flags: W
HStem: 968 590<672 989 989 989>
Fore
672 968 m 1,0,-1
 716 1175 l 1,1,-1
 989 1558 l 1,2,-1
 1146 1558 l 1,3,-1
 966 1175 l 1,4,-1
 922 968 l 1,5,-1
 672 968 l 1,0,-1
EndSplineSet
EndChar
StartChar: quoteright
Encoding: 8217 8217 183
Width: 1234
VWidth: 3393
Flags: W
HStem: 968 590<824 1146 1146 1146>
Fore
1146 1558 m 1,0,-1
 1102 1350 l 1,1,-1
 824 968 l 1,2,-1
 672 968 l 1,3,-1
 847 1350 l 1,4,-1
 891 1558 l 1,5,-1
 1146 1558 l 1,0,-1
EndSplineSet
EndChar
StartChar: divide
Encoding: 247 247 184
Width: 1234
VWidth: 3393
Flags: W
HStem: 149 249<495 739> 557 169<88 1147> 890 247<495 739>
VStem: 495 244<149 398 890 1137>
Fore
739 398 m 1,0,-1
 739 149 l 1,1,-1
 495 149 l 1,2,-1
 495 398 l 1,3,-1
 739 398 l 1,0,-1
739 1137 m 1,4,-1
 739 890 l 1,5,-1
 495 890 l 1,6,-1
 495 1137 l 1,7,-1
 739 1137 l 1,4,-1
1147 726 m 1,8,-1
 1147 557 l 1,9,-1
 88 557 l 1,10,-1
 88 726 l 1,11,-1
 1147 726 l 1,8,-1
EndSplineSet
EndChar
StartChar: lozenge
Encoding: 9674 9674 185
Width: 1234
VWidth: 3393
Flags: W
VStem: 245 998<593 593 593 593 593 593>
Fore
356 593 m 1,0,-1
 568 -234 l 1,1,-1
 1127 593 l 1,2,-1
 918 1412 l 1,3,-1
 356 593 l 1,0,-1
1243 593 m 1,4,-1
 516 -479 l 1,5,-1
 245 593 l 1,6,-1
 970 1655 l 1,7,-1
 1243 593 l 1,4,-1
EndSplineSet
EndChar
StartChar: ydieresis
Encoding: 255 255 186
Width: 1234
VWidth: 3393
Flags: W
HStem: -428 156<-10 230.312> 1100 20G<184 369.968 1009.77 1225> 1350 204<476 641 865 1032>
Fore
787 360 m 1,0,1
 757 305 757 305 716.5 233.5 c 128,-1,2
 676 162 676 162 621 71 c 0,3,4
 543 -68 543 -68 492 -152.5 c 128,-1,5
 441 -237 441 -237 414 -275 c 0,6,7
 298 -428 298 -428 109 -428 c 2,8,-1
 -41 -428 l 1,9,-1
 -10 -272 l 1,10,-1
 98 -272 l 2,11,12
 181 -272 181 -272 237 -224 c 0,13,14
 298 -172 298 -172 356 -65 c 2,15,-1
 401 17 l 1,16,-1
 184 1120 l 1,17,-1
 366 1120 l 1,18,-1
 537 258 l 1,19,-1
 1021 1120 l 1,20,-1
 1225 1120 l 1,21,-1
 787 360 l 1,0,1
679 1554 m 1,22,-1
 641 1350 l 1,23,-1
 437 1350 l 1,24,-1
 476 1554 l 1,25,-1
 679 1554 l 1,22,-1
1069 1554 m 1,26,-1
 1032 1350 l 1,27,-1
 828 1350 l 1,28,-1
 865 1554 l 1,29,-1
 1069 1554 l 1,26,-1
EndSplineSet
EndChar
StartChar: Ydieresis
Encoding: 376 376 187
Width: 1234
VWidth: 3393
Flags: W
HStem: 0 21G<376 586.863> 1473 20G<197 405.281 1114.79 1350> 1670 202<512 676 903 1069>
Fore
398 1493 m 1,0,-1
 635 842 l 1,1,-1
 1130 1493 l 1,2,-1
 1350 1493 l 1,3,-1
 713 673 l 1,4,-1
 583 0 l 1,5,-1
 376 0 l 1,6,-1
 509 673 l 1,7,-1
 197 1493 l 1,8,-1
 398 1493 l 1,0,-1
1107 1872 m 1,9,-1
 1069 1670 l 1,10,-1
 865 1670 l 1,11,-1
 903 1872 l 1,12,-1
 1107 1872 l 1,9,-1
716 1872 m 1,13,-1
 676 1670 l 1,14,-1
 476 1670 l 1,15,-1
 512 1872 l 1,16,-1
 716 1872 l 1,13,-1
EndSplineSet
EndChar
StartChar: fraction
Encoding: 8725 8725 188
Width: 1234
VWidth: 3393
Flags: W
HStem: 1473 20G<1219.4 1424>
Fore
1424 1493 m 1,0,-1
 279 -191 l 1,1,-1
 88 -191 l 1,2,-1
 1233 1493 l 1,3,-1
 1424 1493 l 1,0,-1
EndSplineSet
EndChar
StartChar: currency
Encoding: 164 164 189
Width: 1234
VWidth: 3393
Flags: W
HStem: 302 126<519.846 788.51> 858 126<524.291 784.289>
VStem: 312 125<510.889 771.19> 868 126<508.914 774.743>
Fore
868 645 m 256,0,1
 868 732 868 732 807 794 c 0,2,3
 744 858 744 858 655 858 c 256,4,5
 567 858 567 858 502 794 c 0,6,7
 437 732 437 732 437 645 c 0,8,9
 437 550 437 550 502 489 c 0,10,11
 563 428 563 428 655 428 c 256,12,13
 747 428 747 428 807 489 c 0,14,15
 868 557 868 557 868 645 c 256,0,1
1011 1092 m 1,16,-1
 1104 998 l 1,17,-1
 936 832 l 1,18,19
 994 732 994 732 994 641 c 0,20,21
 994 547 994 547 933 454 c 1,22,-1
 1104 288 l 1,23,-1
 1007 197 l 1,24,-1
 842 363 l 1,25,26
 751 302 751 302 655 302 c 256,27,28
 560 302 560 302 462 360 c 1,29,-1
 298 197 l 1,30,-1
 204 285 l 1,31,-1
 370 451 l 1,32,33
 312 547 312 547 312 641 c 0,34,35
 312 739 312 739 373 832 c 1,36,-1
 204 998 l 1,37,-1
 298 1092 l 1,38,-1
 466 923 l 1,39,40
 557 984 557 984 655 984 c 0,41,42
 739 984 739 984 845 926 c 1,43,-1
 1011 1092 l 1,16,-1
EndSplineSet
EndChar
StartChar: guilsinglleft
Encoding: 8249 8249 190
Width: 1234
VWidth: 3393
Flags: W
HStem: 143 916<845 1040 1040 1040>
VStem: 465 575<560 1059 560 560>
Fore
999 868 m 1,0,-1
 643 600 l 1,1,-1
 886 333 l 1,2,-1
 845 143 l 1,3,-1
 465 560 l 1,4,-1
 482 641 l 1,5,-1
 1040 1059 l 1,6,-1
 999 868 l 1,0,-1
EndSplineSet
EndChar
StartChar: guilsinglright
Encoding: 8250 8250 191
Width: 1234
VWidth: 3393
Flags: W
HStem: 143 916<451 646 646 646>
VStem: 451 575<143 641 143 143>
Fore
1026 641 m 1,0,-1
 1009 560 l 1,1,-1
 451 143 l 1,2,-1
 492 333 l 1,3,-1
 850 600 l 1,4,-1
 605 868 l 1,5,-1
 646 1059 l 1,6,-1
 1026 641 l 1,0,-1
EndSplineSet
EndChar
StartChar: fi
Encoding: 64257 64257 192
Width: 1234
VWidth: 3393
Flags: W
HStem: 0 21G<237 425.254 896 1083.25> 978 142<271 445 659 1104> 1324 230<1226 1360> 1405 153<748.605 1076>
Fore
1409 1554 m 1,0,-1
 1360 1324 l 1,1,-1
 1177 1324 l 1,2,-1
 1226 1554 l 1,3,-1
 1409 1554 l 1,0,-1
1076 1405 m 1,4,-1
 896 1405 l 2,5,6
 798 1405 798 1405 747 1364 c 0,7,8
 702 1321 702 1321 681 1221 c 2,9,-1
 659 1120 l 1,10,-1
 1317 1120 l 1,11,-1
 1079 0 l 1,12,-1
 896 0 l 1,13,-1
 1104 978 l 1,14,-1
 629 978 l 1,15,-1
 421 0 l 1,16,-1
 237 0 l 1,17,-1
 445 978 l 1,18,-1
 241 978 l 1,19,-1
 271 1120 l 1,20,-1
 475 1120 l 1,21,-1
 492 1198 l 2,22,23
 531 1385 531 1385 633 1471.5 c 128,-1,24
 735 1558 735 1558 914 1558 c 2,25,-1
 1108 1558 l 1,26,-1
 1076 1405 l 1,4,-1
EndSplineSet
Ligature2: "'liga' Standard Ligatures in Latin lookup 19 subtable" f i
EndChar
StartChar: fl
Encoding: 64258 64258 193
Width: 1234
VWidth: 3393
Flags: W
HStem: 0 21G<237 425.254 896 1083.25> 978 142<271 445 659 921> 1405 153<748.605 1195>
Fore
1079 0 m 1,0,-1
 896 0 l 1,1,-1
 1195 1405 l 1,2,-1
 896 1405 l 2,3,4
 798 1405 798 1405 747 1364 c 0,5,6
 702 1321 702 1321 681 1221 c 2,7,-1
 659 1120 l 1,8,-1
 951 1120 l 1,9,-1
 921 978 l 1,10,-1
 629 978 l 1,11,-1
 421 0 l 1,12,-1
 237 0 l 1,13,-1
 445 978 l 1,14,-1
 241 978 l 1,15,-1
 271 1120 l 1,16,-1
 475 1120 l 1,17,-1
 492 1198 l 2,18,19
 531 1385 531 1385 633 1471.5 c 128,-1,20
 735 1558 735 1558 914 1558 c 2,21,-1
 1410 1558 l 1,22,-1
 1079 0 l 1,0,-1
EndSplineSet
Ligature2: "'liga' Standard Ligatures in Latin lookup 19 subtable" f l
EndChar
StartChar: daggerdbl
Encoding: 8225 8225 194
Width: 1234
VWidth: 3393
Flags: W
HStem: 224 152<242 577 786 1120> 920 155<390 725 934 1268> 1473 20G<841.742 1023>
Fore
754 224 m 1,0,-1
 664 -197 l 1,1,-1
 487 -197 l 1,2,-1
 577 224 l 1,3,-1
 210 224 l 1,4,-1
 242 376 l 1,5,-1
 609 376 l 1,6,-1
 725 920 l 1,7,-1
 358 920 l 1,8,-1
 390 1075 l 1,9,-1
 757 1075 l 1,10,-1
 846 1493 l 1,11,-1
 1023 1493 l 1,12,-1
 934 1075 l 1,13,-1
 1300 1075 l 1,14,-1
 1268 920 l 1,15,-1
 902 920 l 1,16,-1
 786 376 l 1,17,-1
 1152 376 l 1,18,-1
 1120 224 l 1,19,-1
 754 224 l 1,0,-1
EndSplineSet
EndChar
StartChar: periodcentered
Encoding: 183 183 195
Width: 1234
VWidth: 3393
Flags: W
HStem: 560 305<512 709 454 767 512 512>
Fore
767 865 m 1,0,-1
 709 560 l 1,1,-1
 454 560 l 1,2,-1
 512 865 l 1,3,-1
 767 865 l 1,0,-1
EndSplineSet
EndChar
StartChar: quotesinglbase
Encoding: 8218 8218 196
Width: 1234
VWidth: 3393
Flags: W
HStem: -288 590<496 818 818 818>
Fore
818 302 m 1,0,-1
 774 94 l 1,1,-1
 496 -288 l 1,2,-1
 343 -288 l 1,3,-1
 522 94 l 1,4,-1
 566 302 l 1,5,-1
 818 302 l 1,0,-1
EndSplineSet
EndChar
StartChar: quotedblbase
Encoding: 8222 8222 197
Width: 1234
VWidth: 3393
Flags: W
HStem: -288 590<764 1085 1085 1085>
Fore
1085 302 m 1,0,-1
 1041 94 l 1,1,-1
 764 -288 l 1,2,-1
 612 -288 l 1,3,-1
 791 94 l 1,4,-1
 835 302 l 1,5,-1
 1085 302 l 1,0,-1
624 302 m 1,6,-1
 580 94 l 1,7,-1
 305 -288 l 1,8,-1
 149 -288 l 1,9,-1
 328 94 l 1,10,-1
 372 302 l 1,11,-1
 624 302 l 1,6,-1
EndSplineSet
EndChar
StartChar: perthousand
Encoding: 8240 8240 198
Width: 1234
VWidth: 3393
Flags: W
HStem: 0 123<254.205 480.87 865.779 1098.14> 454 123<302.934 527.793 917.222 1144.3> 858 123<392.405 617.256> 1314 118<445.369 665.97>
VStem: 99 125<158.651 371.156> 237 125<1021.85 1232.64> 560 126<203.037 417.88> 713 125<167.698 353.766 1061.21 1270.39> 1179 123<206.219 416.529>
Fore
174 664 m 1,0,-1
 1308 1079 l 1,1,-1
 1329 984 l 1,2,-1
 192 567 l 1,3,-1
 174 664 l 1,0,-1
301 408 m 0,4,5
 224 337 224 337 224 255 c 0,6,7
 224 209 224 209 254 166 c 128,-1,8
 284 123 284 123 356 123 c 256,9,10
 427 123 427 123 483 169 c 256,11,12
 560 233 560 233 560 325 c 0,13,14
 560 370 560 370 528 412 c 0,15,16
 495 454 495 454 425 454 c 128,-1,17
 355 454 355 454 301 408 c 0,4,5
99 222 m 0,18,19
 99 384 99 384 231 492 c 0,20,21
 340 577 340 577 455 577 c 128,-1,22
 570 577 570 577 639 492 c 256,23,24
 686 432 686 432 686 353 c 0,25,26
 686 196 686 196 552 85 c 0,27,28
 451 0 451 0 332.5 0 c 128,-1,29
 214 0 214 0 143 81 c 0,30,31
 99 144 99 144 99 222 c 0,18,19
672 1263 m 256,32,33
 632 1314 632 1314 565.5 1314 c 128,-1,34
 499 1314 499 1314 430.5 1258 c 128,-1,35
 362 1202 362 1202 362 1106 c 0,36,37
 362 1061 362 1061 388 1029 c 0,38,39
 433 981 433 981 499 981 c 128,-1,40
 565 981 565 981 633 1037.5 c 128,-1,41
 701 1094 701 1094 701 1178 c 0,42,43
 701 1224 701 1224 672 1263 c 256,32,33
237 1082 m 0,44,45
 237 1239 237 1239 368 1350 c 0,46,47
 473 1432 473 1432 592 1432 c 256,48,49
 712 1432 712 1432 779 1350 c 0,50,51
 824 1290 824 1290 824 1212 c 0,52,53
 824 1058 824 1058 692 940 c 0,54,55
 590 858 590 858 470 858 c 256,56,57
 351 858 351 858 281 940 c 0,58,59
 237 1003 237 1003 237 1082 c 0,44,45
915 408 m 0,60,61
 838 337 838 337 838 255 c 0,62,63
 838 209 838 209 864 169 c 0,64,65
 901 123 901 123 972 123 c 256,66,67
 1043 123 1043 123 1101 169 c 0,68,69
 1179 239 1179 239 1179 324 c 0,70,71
 1179 369 1179 369 1145 411.5 c 128,-1,72
 1111 454 1111 454 1041.5 454 c 128,-1,73
 972 454 972 454 915 408 c 0,60,61
713 228 m 0,74,75
 713 382 713 382 849 492 c 256,76,77
 951 577 951 577 1069 577 c 256,78,79
 1188 577 1188 577 1255 492 c 256,80,81
 1302 432 1302 432 1302 353 c 0,82,83
 1302 196 1302 196 1168 85 c 0,84,85
 1069 0 1069 0 946 0 c 256,86,87
 825 0 825 0 761 81 c 0,88,89
 713 148 713 148 713 228 c 0,74,75
EndSplineSet
EndChar
StartChar: Acircumflex
Encoding: 194 194 199
Width: 1234
VWidth: 3393
Flags: W
HStem: 0 21G<-104 122.309 850.107 1052> 391 162<370 800> 1473 20G<631.02 888.224>
Fore
370 553 m 1,0,-1
 800 553 l 1,1,-1
 736 1327 l 1,2,-1
 370 553 l 1,0,-1
886 1493 m 1,3,-1
 1052 0 l 1,4,-1
 852 0 l 1,5,-1
 815 391 l 1,6,-1
 295 391 l 1,7,-1
 113 0 l 1,8,-1
 -104 0 l 1,9,-1
 641 1493 l 1,10,-1
 886 1493 l 1,3,-1
920 1904 m 1,11,-1
 1075 1635 l 1,12,-1
 943 1635 l 1,13,-1
 804 1816 l 1,14,-1
 593 1635 l 1,15,-1
 441 1635 l 1,16,-1
 706 1904 l 1,17,-1
 920 1904 l 1,11,-1
EndSplineSet
EndChar
StartChar: Ecircumflex
Encoding: 202 202 200
Width: 1234
VWidth: 3393
Flags: W
HStem: 0 169<288 961> 713 169<428 1049> 1324 169<512 1198>
Fore
1231 1493 m 1,0,-1
 1198 1324 l 1,1,-1
 512 1324 l 1,2,-1
 428 882 l 1,3,-1
 1079 882 l 1,4,-1
 1049 713 l 1,5,-1
 394 713 l 1,6,-1
 288 169 l 1,7,-1
 991 169 l 1,8,-1
 961 0 l 1,9,-1
 55 0 l 1,10,-1
 343 1493 l 1,11,-1
 1231 1493 l 1,0,-1
964 1904 m 1,12,-1
 1120 1635 l 1,13,-1
 988 1635 l 1,14,-1
 848 1816 l 1,15,-1
 641 1635 l 1,16,-1
 489 1635 l 1,17,-1
 751 1904 l 1,18,-1
 964 1904 l 1,12,-1
EndSplineSet
EndChar
StartChar: Aacute
Encoding: 193 193 201
Width: 1234
VWidth: 3393
Flags: W
HStem: 0 21G<-104 122.309 850.107 1052> 391 162<370 800> 1473 20G<631.02 888.224>
Fore
370 553 m 1,0,-1
 800 553 l 1,1,-1
 736 1327 l 1,2,-1
 370 553 l 1,0,-1
886 1493 m 1,3,-1
 1052 0 l 1,4,-1
 852 0 l 1,5,-1
 815 391 l 1,6,-1
 295 391 l 1,7,-1
 113 0 l 1,8,-1
 -104 0 l 1,9,-1
 641 1493 l 1,10,-1
 886 1493 l 1,3,-1
1092 1901 m 1,11,-1
 787 1635 l 1,12,-1
 628 1635 l 1,13,-1
 886 1901 l 1,14,-1
 1092 1901 l 1,11,-1
EndSplineSet
EndChar
StartChar: Edieresis
Encoding: 203 203 202
Width: 1234
VWidth: 3393
Flags: W
HStem: 0 169<288 961> 713 169<428 1049> 1324 169<512 1198> 1670 202<553 716 943 1107>
Fore
1231 1493 m 1,0,-1
 1198 1324 l 1,1,-1
 512 1324 l 1,2,-1
 428 882 l 1,3,-1
 1079 882 l 1,4,-1
 1049 713 l 1,5,-1
 394 713 l 1,6,-1
 288 169 l 1,7,-1
 991 169 l 1,8,-1
 961 0 l 1,9,-1
 55 0 l 1,10,-1
 343 1493 l 1,11,-1
 1231 1493 l 1,0,-1
1147 1872 m 1,12,-1
 1107 1670 l 1,13,-1
 903 1670 l 1,14,-1
 943 1872 l 1,15,-1
 1147 1872 l 1,12,-1
757 1872 m 1,16,-1
 716 1670 l 1,17,-1
 512 1670 l 1,18,-1
 553 1872 l 1,19,-1
 757 1872 l 1,16,-1
EndSplineSet
EndChar
StartChar: Egrave
Encoding: 200 200 203
Width: 1234
VWidth: 3393
Flags: W
HStem: 0 169<288 961> 713 169<428 1049> 1324 169<512 1198>
Fore
1231 1493 m 1,0,-1
 1198 1324 l 1,1,-1
 512 1324 l 1,2,-1
 428 882 l 1,3,-1
 1079 882 l 1,4,-1
 1049 713 l 1,5,-1
 394 713 l 1,6,-1
 288 169 l 1,7,-1
 991 169 l 1,8,-1
 961 0 l 1,9,-1
 55 0 l 1,10,-1
 343 1493 l 1,11,-1
 1231 1493 l 1,0,-1
926 1635 m 1,12,-1
 787 1635 l 1,13,-1
 597 1901 l 1,14,-1
 780 1901 l 1,15,-1
 926 1635 l 1,12,-1
EndSplineSet
EndChar
StartChar: Iacute
Encoding: 205 205 204
Width: 1234
VWidth: 3393
Flags: W
HStem: 0 169<91 404 608 890> 1324 169<346 628 832 1143>
Fore
1178 1493 m 1,0,-1
 1143 1324 l 1,1,-1
 832 1324 l 1,2,-1
 608 169 l 1,3,-1
 920 169 l 1,4,-1
 890 0 l 1,5,-1
 58 0 l 1,6,-1
 91 169 l 1,7,-1
 404 169 l 1,8,-1
 628 1324 l 1,9,-1
 312 1324 l 1,10,-1
 346 1493 l 1,11,-1
 1178 1493 l 1,0,-1
1100 1901 m 1,12,-1
 794 1635 l 1,13,-1
 631 1635 l 1,14,-1
 893 1901 l 1,15,-1
 1100 1901 l 1,12,-1
EndSplineSet
EndChar
StartChar: Icircumflex
Encoding: 206 206 205
Width: 1234
VWidth: 3393
Flags: W
HStem: 0 169<91 404 608 890> 1324 169<346 628 832 1143>
Fore
1178 1493 m 1,0,-1
 1143 1324 l 1,1,-1
 832 1324 l 1,2,-1
 608 169 l 1,3,-1
 920 169 l 1,4,-1
 890 0 l 1,5,-1
 58 0 l 1,6,-1
 91 169 l 1,7,-1
 404 169 l 1,8,-1
 628 1324 l 1,9,-1
 312 1324 l 1,10,-1
 346 1493 l 1,11,-1
 1178 1493 l 1,0,-1
923 1904 m 1,12,-1
 1082 1635 l 1,13,-1
 949 1635 l 1,14,-1
 810 1816 l 1,15,-1
 600 1635 l 1,16,-1
 447 1635 l 1,17,-1
 709 1904 l 1,18,-1
 923 1904 l 1,12,-1
EndSplineSet
EndChar
StartChar: Idieresis
Encoding: 207 207 206
Width: 1234
VWidth: 3393
Flags: W
HStem: 0 169<91 404 608 890> 1324 169<346 628 832 1143> 1670 202<512 676 903 1069>
Fore
1178 1493 m 1,0,-1
 1143 1324 l 1,1,-1
 832 1324 l 1,2,-1
 608 169 l 1,3,-1
 920 169 l 1,4,-1
 890 0 l 1,5,-1
 58 0 l 1,6,-1
 91 169 l 1,7,-1
 404 169 l 1,8,-1
 628 1324 l 1,9,-1
 312 1324 l 1,10,-1
 346 1493 l 1,11,-1
 1178 1493 l 1,0,-1
1107 1872 m 1,12,-1
 1069 1670 l 1,13,-1
 865 1670 l 1,14,-1
 903 1872 l 1,15,-1
 1107 1872 l 1,12,-1
716 1872 m 1,16,-1
 676 1670 l 1,17,-1
 476 1670 l 1,18,-1
 512 1872 l 1,19,-1
 716 1872 l 1,16,-1
EndSplineSet
EndChar
StartChar: Igrave
Encoding: 204 204 207
Width: 1234
VWidth: 3393
Flags: W
HStem: 0 169<91 404 608 890> 1324 169<346 628 832 1143>
Fore
1178 1493 m 1,0,-1
 1143 1324 l 1,1,-1
 832 1324 l 1,2,-1
 608 169 l 1,3,-1
 920 169 l 1,4,-1
 890 0 l 1,5,-1
 58 0 l 1,6,-1
 91 169 l 1,7,-1
 404 169 l 1,8,-1
 628 1324 l 1,9,-1
 312 1324 l 1,10,-1
 346 1493 l 1,11,-1
 1178 1493 l 1,0,-1
886 1635 m 1,12,-1
 747 1635 l 1,13,-1
 557 1901 l 1,14,-1
 739 1901 l 1,15,-1
 886 1635 l 1,12,-1
EndSplineSet
EndChar
StartChar: Oacute
Encoding: 211 211 208
Width: 1234
VWidth: 3393
Flags: W
HStem: -30 166<371.2 651.674> 1357 164<582.407 864.636>
VStem: 81 207<219.65 800.244> 943 210<792.906 1272.71>
Fore
502 136 m 0,0,1
 587 136 587 136 659.5 185 c 128,-1,2
 732 234 732 234 780 333 c 0,3,4
 819 408 819 408 847 494 c 128,-1,5
 875 580 875 580 900 683 c 0,6,7
 943 882 943 882 943 1079 c 0,8,9
 943 1357 943 1357 729 1357 c 0,10,11
 645 1357 645 1357 573.5 1306.5 c 128,-1,12
 502 1256 502 1256 454 1160 c 0,13,14
 379 1014 379 1014 333 807 c 0,15,16
 288 611 288 611 288 414 c 0,17,18
 288 136 288 136 502 136 c 0,0,1
1153 1021 m 0,19,20
 1153 913 1153 913 1130 784 c 128,-1,21
 1107 655 1107 655 1065 515 c 0,22,23
 1007 340 1007 340 930 220 c 0,24,25
 842 91 842 91 733.5 30.5 c 128,-1,26
 625 -30 625 -30 479 -30 c 0,27,28
 81 -30 81 -30 81 476 c 0,29,30
 81 696 81 696 169 978 c 0,31,32
 197 1069 197 1069 231 1142 c 128,-1,33
 265 1215 265 1215 302 1273 c 0,34,35
 391 1402 391 1402 499.5 1461.5 c 128,-1,36
 608 1521 608 1521 754 1521 c 0,37,38
 958 1521 958 1521 1055.5 1398.5 c 128,-1,39
 1153 1276 1153 1276 1153 1021 c 0,19,20
1085 1901 m 1,40,-1
 780 1635 l 1,41,-1
 618 1635 l 1,42,-1
 878 1901 l 1,43,-1
 1085 1901 l 1,40,-1
EndSplineSet
EndChar
StartChar: Ocircumflex
Encoding: 212 212 209
Width: 1234
VWidth: 3393
Flags: W
HStem: -30 166<371.2 651.674> 1357 164<582.407 864.636>
VStem: 81 207<219.65 800.244> 943 210<792.906 1272.71>
Fore
502 136 m 0,0,1
 587 136 587 136 659.5 185 c 128,-1,2
 732 234 732 234 780 333 c 0,3,4
 819 408 819 408 847 494 c 128,-1,5
 875 580 875 580 900 683 c 0,6,7
 943 882 943 882 943 1079 c 0,8,9
 943 1357 943 1357 729 1357 c 0,10,11
 645 1357 645 1357 573.5 1306.5 c 128,-1,12
 502 1256 502 1256 454 1160 c 0,13,14
 379 1014 379 1014 333 807 c 0,15,16
 288 611 288 611 288 414 c 0,17,18
 288 136 288 136 502 136 c 0,0,1
1153 1021 m 0,19,20
 1153 913 1153 913 1130 784 c 128,-1,21
 1107 655 1107 655 1065 515 c 0,22,23
 1007 340 1007 340 930 220 c 0,24,25
 842 91 842 91 733.5 30.5 c 128,-1,26
 625 -30 625 -30 479 -30 c 0,27,28
 81 -30 81 -30 81 476 c 0,29,30
 81 696 81 696 169 978 c 0,31,32
 197 1069 197 1069 231 1142 c 128,-1,33
 265 1215 265 1215 302 1273 c 0,34,35
 391 1402 391 1402 499.5 1461.5 c 128,-1,36
 608 1521 608 1521 754 1521 c 0,37,38
 958 1521 958 1521 1055.5 1398.5 c 128,-1,39
 1153 1276 1153 1276 1153 1021 c 0,19,20
910 1904 m 1,40,-1
 1069 1635 l 1,41,-1
 936 1635 l 1,42,-1
 797 1816 l 1,43,-1
 587 1635 l 1,44,-1
 434 1635 l 1,45,-1
 696 1904 l 1,46,-1
 910 1904 l 1,40,-1
EndSplineSet
EndChar
StartChar: Ograve
Encoding: 210 210 210
Width: 1234
VWidth: 3393
Flags: W
HStem: -30 166<371.2 651.674> 1357 164<582.407 864.636>
VStem: 81 207<219.65 800.244> 943 210<792.906 1272.71>
Fore
502 136 m 0,0,1
 587 136 587 136 659.5 185 c 128,-1,2
 732 234 732 234 780 333 c 0,3,4
 819 408 819 408 847 494 c 128,-1,5
 875 580 875 580 900 683 c 0,6,7
 943 882 943 882 943 1079 c 0,8,9
 943 1357 943 1357 729 1357 c 0,10,11
 645 1357 645 1357 573.5 1306.5 c 128,-1,12
 502 1256 502 1256 454 1160 c 0,13,14
 379 1014 379 1014 333 807 c 0,15,16
 288 611 288 611 288 414 c 0,17,18
 288 136 288 136 502 136 c 0,0,1
1153 1021 m 0,19,20
 1153 913 1153 913 1130 784 c 128,-1,21
 1107 655 1107 655 1065 515 c 0,22,23
 1007 340 1007 340 930 220 c 0,24,25
 842 91 842 91 733.5 30.5 c 128,-1,26
 625 -30 625 -30 479 -30 c 0,27,28
 81 -30 81 -30 81 476 c 0,29,30
 81 696 81 696 169 978 c 0,31,32
 197 1069 197 1069 231 1142 c 128,-1,33
 265 1215 265 1215 302 1273 c 0,34,35
 391 1402 391 1402 499.5 1461.5 c 128,-1,36
 608 1521 608 1521 754 1521 c 0,37,38
 958 1521 958 1521 1055.5 1398.5 c 128,-1,39
 1153 1276 1153 1276 1153 1021 c 0,19,20
872 1635 m 1,40,-1
 732 1635 l 1,41,-1
 543 1901 l 1,42,-1
 726 1901 l 1,43,-1
 872 1635 l 1,40,-1
EndSplineSet
EndChar
StartChar: Uacute
Encoding: 218 218 211
Width: 1234
VWidth: 3393
Flags: W
HStem: -30 166<336.658 660.919> 1473 20G<288.174 495 1025.15 1231>
VStem: 81 197<194.366 402.264>
Fore
292 1493 m 1,0,-1
 495 1493 l 1,1,-1
 320 573 l 1,2,3
 315 567 315 567 313.5 558.5 c 128,-1,4
 312 550 312 550 308 534 c 0,5,6
 278 379 278 379 278 320 c 0,7,8
 278 136 278 136 499 136 c 0,9,10
 587 136 587 136 648 163.5 c 128,-1,11
 709 191 709 191 757 255 c 0,12,13
 780 285 780 285 802.5 359.5 c 128,-1,14
 825 434 825 434 852 573 c 2,15,-1
 1029 1493 l 1,16,-1
 1231 1493 l 1,17,-1
 1056 573 l 2,18,19
 1032 466 1032 466 1011.5 384 c 128,-1,20
 991 302 991 302 964 252 c 0,21,22
 920 149 920 149 838 85 c 0,23,24
 693 -30 693 -30 479 -30 c 0,25,26
 285 -30 285 -30 183 59.5 c 128,-1,27
 81 149 81 149 81 320 c 0,28,29
 81 394 81 394 116 573 c 2,30,-1
 292 1493 l 1,0,-1
1100 1901 m 1,31,-1
 790 1635 l 1,32,-1
 631 1635 l 1,33,-1
 890 1901 l 1,34,-1
 1100 1901 l 1,31,-1
EndSplineSet
EndChar
StartChar: Ucircumflex
Encoding: 219 219 212
Width: 1234
VWidth: 3393
Flags: W
HStem: -30 166<336.658 660.919> 1473 20G<288.174 495 1025.15 1231>
VStem: 81 197<194.366 402.264>
Fore
292 1493 m 1,0,-1
 495 1493 l 1,1,-1
 320 573 l 1,2,3
 315 567 315 567 313.5 558.5 c 128,-1,4
 312 550 312 550 308 534 c 0,5,6
 278 379 278 379 278 320 c 0,7,8
 278 136 278 136 499 136 c 0,9,10
 587 136 587 136 648 163.5 c 128,-1,11
 709 191 709 191 757 255 c 0,12,13
 780 285 780 285 802.5 359.5 c 128,-1,14
 825 434 825 434 852 573 c 2,15,-1
 1029 1493 l 1,16,-1
 1231 1493 l 1,17,-1
 1056 573 l 2,18,19
 1032 466 1032 466 1011.5 384 c 128,-1,20
 991 302 991 302 964 252 c 0,21,22
 920 149 920 149 838 85 c 0,23,24
 693 -30 693 -30 479 -30 c 0,25,26
 285 -30 285 -30 183 59.5 c 128,-1,27
 81 149 81 149 81 320 c 0,28,29
 81 394 81 394 116 573 c 2,30,-1
 292 1493 l 1,0,-1
923 1904 m 1,31,-1
 1079 1635 l 1,32,-1
 946 1635 l 1,33,-1
 807 1816 l 1,34,-1
 597 1635 l 1,35,-1
 447 1635 l 1,36,-1
 709 1904 l 1,37,-1
 923 1904 l 1,31,-1
EndSplineSet
EndChar
StartChar: Ugrave
Encoding: 217 217 213
Width: 1234
VWidth: 3393
Flags: W
HStem: -30 166<336.658 660.919> 1473 20G<288.174 495 1025.15 1231>
VStem: 81 197<194.366 402.264>
Fore
292 1493 m 1,0,-1
 495 1493 l 1,1,-1
 320 573 l 1,2,3
 315 567 315 567 313.5 558.5 c 128,-1,4
 312 550 312 550 308 534 c 0,5,6
 278 379 278 379 278 320 c 0,7,8
 278 136 278 136 499 136 c 0,9,10
 587 136 587 136 648 163.5 c 128,-1,11
 709 191 709 191 757 255 c 0,12,13
 780 285 780 285 802.5 359.5 c 128,-1,14
 825 434 825 434 852 573 c 2,15,-1
 1029 1493 l 1,16,-1
 1231 1493 l 1,17,-1
 1056 573 l 2,18,19
 1032 466 1032 466 1011.5 384 c 128,-1,20
 991 302 991 302 964 252 c 0,21,22
 920 149 920 149 838 85 c 0,23,24
 693 -30 693 -30 479 -30 c 0,25,26
 285 -30 285 -30 183 59.5 c 128,-1,27
 81 149 81 149 81 320 c 0,28,29
 81 394 81 394 116 573 c 2,30,-1
 292 1493 l 1,0,-1
886 1635 m 1,31,-1
 747 1635 l 1,32,-1
 557 1901 l 1,33,-1
 736 1901 l 1,34,-1
 886 1635 l 1,31,-1
EndSplineSet
EndChar
StartChar: dotlessi
Encoding: 305 305 214
Width: 1234
VWidth: 3393
Flags: W
HStem: 0 143<91 454 641 978 61 1004 91 91> 978 142<360 618>
Fore
832 1120 m 1,0,-1
 641 143 l 1,1,-1
 1004 143 l 1,2,-1
 978 0 l 1,3,-1
 61 0 l 1,4,-1
 91 143 l 1,5,-1
 454 143 l 1,6,-1
 618 978 l 1,7,-1
 330 978 l 1,8,-1
 360 1120 l 1,9,-1
 832 1120 l 1,0,-1
EndSplineSet
EndChar
StartChar: circumflex
Encoding: 710 710 215
Width: 1234
VWidth: 3393
Flags: W
HStem: 1263 376<865 1029 865 865>
VStem: 398 631<1263 1263 1263 1263>
Fore
865 1639 m 1,0,-1
 1029 1263 l 1,1,-1
 896 1263 l 1,2,-1
 780 1503 l 1,3,-1
 553 1263 l 1,4,-1
 398 1263 l 1,5,-1
 719 1639 l 1,6,-1
 865 1639 l 1,0,-1
EndSplineSet
EndChar
StartChar: tilde
Encoding: 732 732 216
Width: 1234
VWidth: 3393
Flags: W
HStem: 1311 127<832.015 956.903> 1463 129<555.823 682.439>
VStem: 401 124<1323.18 1468.15> 988 122<1448.09 1592>
Fore
696 1425 m 2,0,1
 658 1463 658 1463 625 1463 c 0,2,3
 540 1463 540 1463 525 1311 c 1,4,-1
 401 1311 l 1,5,6
 437 1592 437 1592 621 1592 c 0,7,8
 664 1592 664 1592 698 1576.5 c 128,-1,9
 732 1561 732 1561 771 1524 c 2,10,-1
 819 1476 l 2,11,12
 855 1438 855 1438 890 1438 c 0,13,14
 968 1438 968 1438 988 1592 c 1,15,-1
 1110 1592 l 1,16,17
 1079 1311 1079 1311 893 1311 c 0,18,19
 845 1311 845 1311 812.5 1324 c 128,-1,20
 780 1337 780 1337 744 1377 c 2,21,-1
 696 1425 l 2,0,1
EndSplineSet
EndChar
StartChar: macron
Encoding: 175 175 217
Width: 1234
VWidth: 3393
Flags: W
HStem: 1382 146<469 1039 441 1069 469 469>
Fore
1069 1528 m 1,0,-1
 1039 1382 l 1,1,-1
 441 1382 l 1,2,-1
 469 1528 l 1,3,-1
 1069 1528 l 1,0,-1
EndSplineSet
EndChar
StartChar: breve
Encoding: 728 728 218
Width: 1234
VWidth: 3393
Flags: W
HStem: 1324 136<623.857 906.019>
VStem: 469 124<1493 1608.68>
Fore
593 1609 m 1,0,-1
 593 1592 l 2,1,2
 593 1460 593 1460 764 1460 c 0,3,4
 920 1460 920 1460 981 1609 c 1,5,-1
 1100 1609 l 1,6,7
 1032 1324 1032 1324 751 1324 c 0,8,9
 615 1324 615 1324 542 1386 c 128,-1,10
 469 1448 469 1448 469 1568 c 0,11,12
 469 1599 469 1599 472 1609 c 1,13,-1
 593 1609 l 1,0,-1
EndSplineSet
EndChar
StartChar: dotaccent
Encoding: 729 729 219
Width: 1234
VWidth: 3393
Flags: W
HStem: 1350 204<673 838 631 878 673 673>
Fore
878 1554 m 1,0,-1
 838 1350 l 1,1,-1
 631 1350 l 1,2,-1
 673 1554 l 1,3,-1
 878 1554 l 1,0,-1
EndSplineSet
EndChar
StartChar: ring
Encoding: 730 730 220
Width: 1234
VWidth: 3393
Flags: W
HStem: 1324 121<674.297 884.086> 1748 124<675.047 884.856>
VStem: 505 123<1490.77 1701.38> 930 126<1491.57 1702.14>
Fore
930 1599 m 256,0,1
 930 1664 930 1664 886 1703 c 0,2,3
 845 1748 845 1748 780 1748 c 0,4,5
 713 1748 713 1748 673 1703 c 0,6,7
 628 1664 628 1664 628 1599 c 0,8,9
 628 1531 628 1531 673 1490 c 0,10,11
 713 1445 713 1445 780 1445 c 0,12,13
 845 1445 845 1445 886 1490 c 0,14,15
 930 1534 930 1534 930 1599 c 256,0,1
1056 1599 m 0,16,17
 1056 1483 1056 1483 974 1402 c 0,18,19
 896 1324 896 1324 780 1324 c 0,20,21
 661 1324 661 1324 583 1402 c 256,22,23
 505 1480 505 1480 505 1599 c 0,24,25
 505 1713 505 1713 583 1791 c 0,26,27
 664 1872 664 1872 780 1872 c 0,28,29
 893 1872 893 1872 974 1791 c 256,30,31
 1056 1710 1056 1710 1056 1599 c 0,16,17
EndSplineSet
EndChar
StartChar: cedilla
Encoding: 184 184 221
Width: 1234
VWidth: 3393
Flags: W
HStem: -398 123<201.091 464.293> -20 20G<437 592.5>
VStem: 495 133<-246.095 -52.0938>
Fore
557 0 m 1,0,1
 628 -129 628 -129 628 -194 c 0,2,3
 628 -288 628 -288 557 -340 c 0,4,5
 482 -398 482 -398 366 -398 c 0,6,7
 275 -398 275 -398 184 -366 c 1,8,-1
 207 -237 l 1,9,10
 292 -275 292 -275 353 -275 c 0,11,12
 421 -275 421 -275 458 -244.5 c 128,-1,13
 495 -214 495 -214 495 -159 c 0,14,15
 495 -109 495 -109 437 0 c 1,16,-1
 557 0 l 1,0,1
EndSplineSet
EndChar
StartChar: hungarumlaut
Encoding: 733 733 222
Width: 1234
VWidth: 3393
Flags: W
HStem: 1263 376<577 878 878 878>
Fore
878 1639 m 1,0,-1
 577 1263 l 1,1,-1
 441 1263 l 1,2,-1
 689 1639 l 1,3,-1
 878 1639 l 1,0,-1
1225 1639 m 1,4,-1
 903 1263 l 1,5,-1
 767 1263 l 1,6,-1
 1029 1639 l 1,7,-1
 1225 1639 l 1,4,-1
EndSplineSet
EndChar
StartChar: ogonek
Encoding: 731 731 223
Width: 1234
VWidth: 3393
Flags: W
HStem: -398 126<382.108 542.032> -20 20G<306.5 502>
VStem: 230 146<-264.031 -121.872>
Fore
502 0 m 1,0,1
 376 -119 376 -119 376 -197 c 0,2,3
 376 -272 376 -272 469 -272 c 0,4,5
 537 -272 537 -272 600 -240 c 1,6,-1
 577 -376 l 1,7,8
 540 -383 540 -383 506 -390.5 c 128,-1,9
 472 -398 472 -398 437 -398 c 0,10,11
 340 -398 340 -398 285 -356.5 c 128,-1,12
 230 -315 230 -315 230 -244 c 0,13,14
 230 -139 230 -139 383 0 c 1,15,-1
 502 0 l 1,0,1
EndSplineSet
EndChar
StartChar: caron
Encoding: 711 711 224
Width: 1234
VWidth: 3393
Flags: W
HStem: 1263 376<472 635 472 472>
VStem: 472 632<1639 1639 1639 1639>
Fore
635 1263 m 1,0,-1
 472 1639 l 1,1,-1
 605 1639 l 1,2,-1
 722 1399 l 1,3,-1
 946 1639 l 1,4,-1
 1104 1639 l 1,5,-1
 784 1263 l 1,6,-1
 635 1263 l 1,0,-1
EndSplineSet
EndChar
StartChar: Lslash
Encoding: 321 321 225
Width: 1234
VWidth: 3393
Flags: W
HStem: 0 169<320 1007> 1473 20G<366.286 573>
Fore
573 1493 m 1,0,-1
 457 900 l 1,1,-1
 757 1110 l 1,2,-1
 832 1007 l 1,3,-1
 431 729 l 1,4,-1
 320 169 l 1,5,-1
 1039 169 l 1,6,-1
 1007 0 l 1,7,-1
 81 0 l 1,8,-1
 197 563 l 1,9,-1
 45 457 l 1,10,-1
 -30 560 l 1,11,-1
 230 739 l 1,12,-1
 370 1493 l 1,13,-1
 573 1493 l 1,0,-1
EndSplineSet
EndChar
StartChar: lslash
Encoding: 322 322 226
Width: 1234
VWidth: 3393
Flags: W
HStem: 0 156<623.958 946> 1425 143<340 628>
VStem: 398 189<195.016 346.699>
Fore
600 408 m 1,0,1
 593 370 593 370 590 345 c 128,-1,2
 587 320 587 320 587 302 c 0,3,4
 587 156 587 156 767 156 c 2,5,-1
 978 156 l 1,6,-1
 946 0 l 1,7,-1
 739 0 l 2,8,9
 398 0 398 0 398 258 c 0,10,11
 398 333 398 333 418 414 c 2,12,-1
 476 699 l 1,13,-1
 162 479 l 1,14,-1
 88 580 l 1,15,-1
 512 872 l 1,16,-1
 628 1425 l 1,17,-1
 312 1425 l 1,18,-1
 340 1568 l 1,19,-1
 842 1568 l 1,20,-1
 726 1014 l 1,21,-1
 1042 1231 l 1,22,-1
 1117 1133 l 1,23,-1
 693 842 l 1,24,-1
 600 408 l 1,0,1
EndSplineSet
EndChar
StartChar: Scaron
Encoding: 352 352 227
Width: 1234
VWidth: 3393
Flags: W
HStem: -30 166<240.477 679.985> 1357 164<549.442 977.397>
VStem: 197 189<955.721 1212.49> 848 201<291.759 571.948>
Fore
1110 1239 m 1,0,1
 943 1357 943 1357 761 1357 c 0,2,3
 593 1357 593 1357 492 1276 c 0,4,5
 386 1195 386 1195 386 1065 c 0,6,7
 386 998 386 998 437 949 c 0,8,9
 489 906 489 906 615 865 c 2,10,-1
 736 828 l 2,11,12
 900 777 900 777 974.5 694 c 128,-1,13
 1049 611 1049 611 1049 482 c 0,14,15
 1049 244 1049 244 882 109 c 0,16,17
 716 -30 716 -30 431 -30 c 0,18,19
 227 -30 227 -30 23 61 c 1,20,-1
 65 272 l 1,21,22
 262 136 262 136 479 136 c 0,23,24
 645 136 645 136 747 224 c 256,25,26
 848 312 848 312 848 447 c 0,27,28
 848 529 848 529 804 573 c 0,29,30
 767 615 767 615 628 658 c 2,31,-1
 525 693 l 2,32,33
 434 722 434 722 369.5 754.5 c 128,-1,34
 305 787 305 787 268 825 c 0,35,36
 197 896 197 896 197 1017 c 0,37,38
 197 1239 197 1239 360 1382 c 0,39,40
 522 1521 522 1521 790 1521 c 0,41,42
 953 1521 953 1521 1147 1442 c 1,43,-1
 1110 1239 l 1,0,1
658 1635 m 1,44,-1
 499 1904 l 1,45,-1
 635 1904 l 1,46,-1
 774 1723 l 1,47,-1
 984 1904 l 1,48,-1
 1137 1904 l 1,49,-1
 872 1635 l 1,50,-1
 658 1635 l 1,44,-1
EndSplineSet
EndChar
StartChar: scaron
Encoding: 353 353 228
Width: 1234
VWidth: 3393
Flags: W
HStem: -30 156<280.309 699.182> 994 153<532.352 952.114>
VStem: 265 182<723.005 917.049> 807 191<220.409 419.252>
Fore
1042 903 m 1,0,1
 893 994 893 994 736 994 c 0,2,3
 597 994 597 994 522 943.5 c 128,-1,4
 447 893 447 893 447 800 c 0,5,6
 447 703 447 703 673 645 c 0,7,8
 683 641 683 641 693 641 c 1,9,-1
 764 621 l 2,10,11
 998 560 998 560 998 376 c 256,12,13
 998 194 998 194 855 81 c 0,14,15
 709 -30 709 -30 472 -30 c 0,16,17
 315 -30 315 -30 116 41 c 1,18,-1
 152 230 l 1,19,20
 340 126 340 126 505 126 c 0,21,22
 638 126 638 126 722 184 c 0,23,24
 807 244 807 244 807 336 c 0,25,26
 807 434 807 434 611 489 c 0,27,28
 605 492 605 492 597.5 492 c 128,-1,29
 590 492 590 492 583 495 c 1,30,-1
 515 512 l 2,31,32
 265 577 265 577 265 777 c 0,33,34
 265 946 265 946 398 1049 c 0,35,36
 534 1147 534 1147 754 1147 c 0,37,38
 936 1147 936 1147 1079 1082 c 1,39,-1
 1042 903 l 1,0,1
635 1263 m 1,40,-1
 472 1639 l 1,41,-1
 605 1639 l 1,42,-1
 722 1399 l 1,43,-1
 946 1639 l 1,44,-1
 1104 1639 l 1,45,-1
 784 1263 l 1,46,-1
 635 1263 l 1,40,-1
EndSplineSet
EndChar
StartChar: Zcaron
Encoding: 381 381 229
Width: 1234
VWidth: 3393
Flags: W
HStem: 0 169<265 1007> 1324 169<305 1001>
Fore
1276 1493 m 1,0,-1
 1246 1341 l 1,1,-1
 265 169 l 1,2,-1
 1042 169 l 1,3,-1
 1007 0 l 1,4,-1
 -7 0 l 1,5,-1
 23 152 l 1,6,-1
 1001 1324 l 1,7,-1
 272 1324 l 1,8,-1
 305 1493 l 1,9,-1
 1276 1493 l 1,0,-1
658 1635 m 1,10,-1
 499 1904 l 1,11,-1
 635 1904 l 1,12,-1
 774 1723 l 1,13,-1
 984 1904 l 1,14,-1
 1137 1904 l 1,15,-1
 872 1635 l 1,16,-1
 658 1635 l 1,10,-1
EndSplineSet
EndChar
StartChar: zcaron
Encoding: 382 382 230
Width: 1234
VWidth: 3393
Flags: W
HStem: 0 146<315 916> 974 146<320 896>
Fore
1133 1120 m 1,0,-1
 1104 953 l 1,1,-1
 315 146 l 1,2,-1
 943 146 l 1,3,-1
 916 0 l 1,4,-1
 78 0 l 1,5,-1
 113 169 l 1,6,-1
 896 974 l 1,7,-1
 292 974 l 1,8,-1
 320 1120 l 1,9,-1
 1133 1120 l 1,0,-1
635 1263 m 1,10,-1
 472 1639 l 1,11,-1
 605 1639 l 1,12,-1
 722 1399 l 1,13,-1
 946 1639 l 1,14,-1
 1104 1639 l 1,15,-1
 784 1263 l 1,16,-1
 635 1263 l 1,10,-1
EndSplineSet
EndChar
StartChar: brokenbar
Encoding: 166 166 231
Width: 1234
VWidth: 3393
Flags: W
VStem: 529 174<-350 408 676 1432>
Fore
703 676 m 1,0,-1
 529 676 l 1,1,-1
 529 1432 l 1,2,-1
 703 1432 l 1,3,-1
 703 676 l 1,0,-1
703 -350 m 1,4,-1
 529 -350 l 1,5,-1
 529 408 l 1,6,-1
 703 408 l 1,7,-1
 703 -350 l 1,4,-1
EndSplineSet
EndChar
StartChar: Eth
Encoding: 208 208 232
Width: 1234
VWidth: 3393
Flags: W
HStem: 0 166<227 585.078> 709 149<30 129 363 600> 1327 166<454 798.579>
VStem: 926 204<775.777 1201.62>
Fore
326 166 m 1,0,1
 509 166 509 166 621 227 c 0,2,3
 736 295 736 295 800 431 c 0,4,5
 828 489 828 489 850 558.5 c 128,-1,6
 872 628 872 628 890 706 c 0,7,8
 906 787 906 787 916 860 c 128,-1,9
 926 933 926 933 926 1001 c 0,10,11
 926 1178 926 1178 842 1253 c 0,12,13
 764 1327 764 1327 567 1327 c 2,14,-1
 454 1327 l 1,15,-1
 363 858 l 1,16,-1
 631 858 l 1,17,-1
 600 709 l 1,18,-1
 336 709 l 1,19,-1
 227 166 l 1,20,-1
 326 166 l 1,0,1
587 1493 m 1,21,22
 1130 1493 1130 1493 1130 994 c 0,23,24
 1130 832 1130 832 1089 658 c 0,25,26
 1069 570 1069 570 1040 495.5 c 128,-1,27
 1011 421 1011 421 978 353 c 0,28,29
 868 159 868 159 716 81 c 0,30,31
 563 0 563 0 295 0 c 2,32,-1
 -7 0 l 1,33,-1
 129 709 l 1,34,-1
 3 709 l 1,35,-1
 30 858 l 1,36,-1
 159 858 l 1,37,-1
 282 1493 l 1,38,-1
 587 1493 l 1,21,22
EndSplineSet
EndChar
StartChar: eth
Encoding: 240 240 233
Width: 1234
VWidth: 3393
Flags: W
HStem: -30 156<393.536 690.323> 943 149<544.29 766.272 731.987 801.526> 1480 20G<1038.32 1109.65> 1538 20G<499 726.973>
VStem: 119 193<211.32 646.266> 913 194<415.664 860.825>
Fore
872 1327 m 1,0,1
 998 1153 998 1153 1049 1007 c 0,2,3
 1079 933 1079 933 1093 858.5 c 128,-1,4
 1107 784 1107 784 1107 709 c 0,5,6
 1107 421 1107 421 961 207 c 0,7,8
 804 -30 804 -30 515 -30 c 0,9,10
 323 -30 323 -30 221 78.5 c 128,-1,11
 119 187 119 187 119 391 c 0,12,13
 119 515 119 515 156.5 638 c 128,-1,14
 194 761 194 761 265 865 c 0,15,16
 350 981 350 981 457 1039 c 0,17,18
 577 1100 577 1100 709 1100 c 0,19,20
 716 1100 716 1100 731.5 1098.5 c 128,-1,21
 747 1097 747 1097 774 1092 c 2,22,-1
 804 1092 l 1,23,24
 771 1163 771 1163 693 1273 c 1,25,-1
 398 1181 l 1,26,-1
 366 1273 l 1,27,-1
 641 1357 l 1,28,-1
 499 1558 l 1,29,-1
 713 1558 l 1,30,-1
 815 1412 l 1,31,-1
 1104 1500 l 1,32,-1
 1130 1408 l 1,33,-1
 872 1327 l 1,0,1
875 910 m 1,34,35
 804 943 804 943 713 943 c 0,36,37
 537 943 537 943 424 787 c 0,38,39
 312 635 312 635 312 379 c 0,40,41
 312 262 312 262 370 194 c 128,-1,42
 428 126 428 126 534 126 c 0,43,44
 703 126 703 126 804 288 c 0,45,46
 913 447 913 447 913 706 c 0,47,48
 913 828 913 828 875 910 c 1,34,35
EndSplineSet
EndChar
StartChar: Yacute
Encoding: 221 221 234
Width: 1234
VWidth: 3393
Flags: W
HStem: 0 21G<376 586.863> 1473 20G<197 405.281 1114.79 1350>
Fore
398 1493 m 1,0,-1
 635 842 l 1,1,-1
 1130 1493 l 1,2,-1
 1350 1493 l 1,3,-1
 713 673 l 1,4,-1
 583 0 l 1,5,-1
 376 0 l 1,6,-1
 509 673 l 1,7,-1
 197 1493 l 1,8,-1
 398 1493 l 1,0,-1
1100 1901 m 1,9,-1
 794 1635 l 1,10,-1
 631 1635 l 1,11,-1
 893 1901 l 1,12,-1
 1100 1901 l 1,9,-1
EndSplineSet
EndChar
StartChar: yacute
Encoding: 253 253 235
Width: 1234
VWidth: 3393
Flags: W
HStem: -428 156<-10 230.312> 1100 20G<184 369.968 1009.77 1225>
Fore
787 360 m 1,0,1
 757 305 757 305 716.5 233.5 c 128,-1,2
 676 162 676 162 621 71 c 0,3,4
 543 -68 543 -68 492 -152.5 c 128,-1,5
 441 -237 441 -237 414 -275 c 0,6,7
 298 -428 298 -428 109 -428 c 2,8,-1
 -41 -428 l 1,9,-1
 -10 -272 l 1,10,-1
 98 -272 l 2,11,12
 181 -272 181 -272 237 -224 c 0,13,14
 298 -172 298 -172 356 -65 c 2,15,-1
 401 17 l 1,16,-1
 184 1120 l 1,17,-1
 366 1120 l 1,18,-1
 537 258 l 1,19,-1
 1021 1120 l 1,20,-1
 1225 1120 l 1,21,-1
 787 360 l 1,0,1
1127 1639 m 1,22,-1
 732 1263 l 1,23,-1
 577 1263 l 1,24,-1
 910 1639 l 1,25,-1
 1127 1639 l 1,22,-1
EndSplineSet
EndChar
StartChar: Thorn
Encoding: 222 222 236
Width: 1234
VWidth: 3393
Flags: W
HStem: 0 21G<51 258.88> 366 156<356 781.684> 1059 159<495 877.398> 1473 20G<339.088 547>
VStem: 953 207<681.865 989.718>
Fore
255 0 m 1,0,-1
 51 0 l 1,1,-1
 343 1493 l 1,2,-1
 547 1493 l 1,3,-1
 495 1218 l 1,4,-1
 736 1218 l 2,5,6
 943 1218 943 1218 1051.5 1132 c 128,-1,7
 1160 1046 1160 1046 1160 875 c 0,8,9
 1160 641 1160 641 998 502 c 0,10,11
 842 366 842 366 557 366 c 2,12,-1
 326 366 l 1,13,-1
 255 0 l 1,0,-1
356 522 m 1,14,-1
 590 522 l 2,15,16
 754 522 754 522 855 615 c 0,17,18
 953 706 953 706 953 858 c 0,19,20
 953 1059 953 1059 699 1059 c 2,21,-1
 462 1059 l 1,22,-1
 356 522 l 1,14,-1
EndSplineSet
EndChar
StartChar: thorn
Encoding: 254 254 237
Width: 1234
VWidth: 3393
Flags: W
HStem: -428 21G<-3 187.783> -30 156<432.502 718.062> 991 156<596.627 863.278>
VStem: 936 194<491.577 914.784>
Fore
184 -428 m 1,0,-1
 -3 -428 l 1,1,-1
 386 1568 l 1,2,-1
 570 1568 l 1,3,-1
 454 978 l 1,4,5
 583 1147 583 1147 787 1147 c 0,6,7
 949 1147 949 1147 1039.5 1043.5 c 128,-1,8
 1130 940 1130 940 1130 754 c 0,9,10
 1130 608 1130 608 1089 466 c 0,11,12
 1069 394 1069 394 1043 331 c 128,-1,13
 1017 268 1017 268 981 210 c 0,14,15
 825 -30 825 -30 580 -30 c 0,16,17
 383 -30 383 -30 292 143 c 1,18,-1
 184 -428 l 1,0,-1
570 126 m 0,19,20
 736 126 736 126 832 302 c 0,21,22
 855 350 855 350 874 400.5 c 128,-1,23
 893 451 893 451 906 509 c 0,24,25
 936 628 936 628 936 736 c 0,26,27
 936 991 936 991 729 991 c 0,28,29
 557 991 557 991 457 815 c 0,30,31
 434 767 434 767 416 717.5 c 128,-1,32
 398 668 398 668 383 611 c 0,33,34
 353 499 353 499 353 383 c 0,35,36
 353 262 353 262 409.5 194 c 128,-1,37
 466 126 466 126 570 126 c 0,19,20
EndSplineSet
EndChar
StartChar: minus
Encoding: 8722 8722 238
Width: 1234
VWidth: 3393
Flags: W
HStem: 557 169<242 1265>
Fore
1301 726 m 1,0,-1
 1265 557 l 1,1,-1
 206 557 l 1,2,-1
 242 726 l 1,3,-1
 1301 726 l 1,0,-1
EndSplineSet
EndChar
StartChar: multiply
Encoding: 215 215 239
Width: 1234
VWidth: 3393
Flags: W
HStem: 172 938<265 968 265 265>
VStem: 149 933<991 991 991 991>
Fore
502 641 m 1,0,-1
 149 991 l 1,1,-1
 265 1110 l 1,2,-1
 618 761 l 1,3,-1
 968 1110 l 1,4,-1
 1082 991 l 1,5,-1
 732 641 l 1,6,-1
 1082 292 l 1,7,-1
 968 172 l 1,8,-1
 618 525 l 1,9,-1
 268 172 l 1,10,-1
 149 292 l 1,11,-1
 502 641 l 1,0,-1
EndSplineSet
EndChar
StartChar: onesuperior
Encoding: 185 185 240
Width: 1234
VWidth: 3393
Flags: W
HStem: 668 112<370 577 719 903 350 923 370 370> 1483 20G<592.27 858>
Fore
577 780 m 1,0,-1
 693 1392 l 1,1,-1
 462 1350 l 1,2,-1
 482 1466 l 1,3,-1
 722 1503 l 1,4,-1
 858 1503 l 1,5,-1
 719 780 l 1,6,-1
 923 780 l 1,7,-1
 903 668 l 1,8,-1
 350 668 l 1,9,-1
 370 780 l 1,10,-1
 577 780 l 1,0,-1
EndSplineSet
EndChar
StartChar: twosuperior
Encoding: 178 178 241
Width: 1234
VWidth: 3393
Flags: W
HStem: 668 116<492 865> 1415 106<579.134 814.012>
VStem: 308 683<668 1317 668 668> 845 146<1204 1386.74>
Fore
890 784 m 1,0,-1
 865 668 l 1,1,-1
 308 668 l 1,2,-1
 330 780 l 1,3,-1
 499 920 l 1,4,-1
 534 946 l 2,5,6
 845 1201 845 1201 845 1302 c 0,7,8
 845 1354 845 1354 808 1384.5 c 128,-1,9
 771 1415 771 1415 709 1415 c 0,10,11
 658 1415 658 1415 597.5 1398.5 c 128,-1,12
 537 1382 537 1382 451 1337 c 1,13,-1
 476 1466 l 1,14,15
 638 1521 638 1521 736 1521 c 0,16,17
 855 1521 855 1521 923 1466.5 c 128,-1,18
 991 1412 991 1412 991 1317 c 0,19,20
 991 1178 991 1178 683 933 c 2,21,-1
 661 920 l 1,22,-1
 492 784 l 1,23,-1
 890 784 l 1,0,-1
EndSplineSet
EndChar
StartChar: threesuperior
Encoding: 179 179 242
Width: 1234
VWidth: 3393
Flags: W
HStem: 655 106<397.57 707.682> 1062 106<550 741.986> 1415 106<485.082 817.475>
VStem: 774 149<823.032 1029.02> 838 146<1220.24 1389.2>
Fore
774 1117 m 1,0,1
 845 1107 845 1107 884 1060.5 c 128,-1,2
 923 1014 923 1014 923 943 c 0,3,4
 923 815 923 815 819 732 c 0,5,6
 719 655 719 655 540 655 c 0,7,8
 408 655 408 655 288 696 c 1,9,-1
 312 815 l 1,10,11
 379 787 379 787 430.5 774 c 128,-1,12
 482 761 482 761 534 761 c 0,13,14
 645 761 645 761 709.5 806.5 c 128,-1,15
 774 852 774 852 774 930 c 0,16,17
 774 1062 774 1062 600 1062 c 2,18,-1
 529 1062 l 1,19,-1
 550 1168 l 1,20,-1
 621 1168 l 2,21,22
 719 1168 719 1168 778.5 1208.5 c 128,-1,23
 838 1249 838 1249 838 1314 c 0,24,25
 838 1415 838 1415 664 1415 c 0,26,27
 580 1415 580 1415 462 1370 c 1,28,-1
 482 1486 l 1,29,30
 621 1521 621 1521 732 1521 c 0,31,32
 852 1521 852 1521 918 1471.5 c 128,-1,33
 984 1422 984 1422 984 1331 c 0,34,35
 984 1253 984 1253 928 1193 c 128,-1,36
 872 1133 872 1133 774 1117 c 1,0,1
EndSplineSet
EndChar
StartChar: onequarter
Encoding: 188 188 243
Width: 1234
VWidth: 3393
Flags: W
HStem: -85 108<557 800 961 1056> 825 111<113 320 457 645> 1506 21G<207.448 313.524>
Fore
320 936 m 1,0,-1
 434 1548 l 1,1,-1
 204 1506 l 1,2,-1
 224 1622 l 1,3,-1
 466 1659 l 1,4,-1
 600 1659 l 1,5,-1
 457 936 l 1,6,-1
 664 936 l 1,7,-1
 645 825 l 1,8,-1
 91 825 l 1,9,-1
 113 936 l 1,10,-1
 320 936 l 1,0,-1
48 615 m 1,11,-1
 1107 872 l 1,12,-1
 1133 764 l 1,13,-1
 71 505 l 1,14,-1
 48 615 l 1,11,-1
1065 567 m 1,15,-1
 961 23 l 1,16,-1
 1075 23 l 1,17,-1
 1056 -85 l 1,18,-1
 936 -85 l 1,19,-1
 903 -272 l 1,20,-1
 764 -272 l 1,21,-1
 800 -85 l 1,22,-1
 414 -85 l 1,23,-1
 437 33 l 1,24,-1
 903 567 l 1,25,-1
 1065 567 l 1,15,-1
557 23 m 1,26,-1
 822 23 l 1,27,-1
 900 418 l 1,28,-1
 557 23 l 1,26,-1
EndSplineSet
Ligature2: "'frac' Diagonal Fractions in Latin lookup 0 subtable" one fraction four
Ligature2: "'frac' Diagonal Fractions in Latin lookup 0 subtable" one slash four
EndChar
StartChar: onehalf
Encoding: 189 189 244
Width: 1234
VWidth: 3393
Flags: W
HStem: -272 116<648 1017> 479 104<680.004 967.668> 825 111<113 320 457 645> 1506 21G<207.448 313.524>
VStem: 998 149<266.697 451.113>
Fore
320 936 m 1,0,-1
 434 1548 l 1,1,-1
 204 1506 l 1,2,-1
 224 1622 l 1,3,-1
 466 1659 l 1,4,-1
 600 1659 l 1,5,-1
 457 936 l 1,6,-1
 664 936 l 1,7,-1
 645 825 l 1,8,-1
 91 825 l 1,9,-1
 113 936 l 1,10,-1
 320 936 l 1,0,-1
48 615 m 1,11,-1
 1107 872 l 1,12,-1
 1133 764 l 1,13,-1
 71 505 l 1,14,-1
 48 615 l 1,11,-1
1042 -156 m 1,15,-1
 1017 -272 l 1,16,-1
 462 -272 l 1,17,-1
 482 -159 l 1,18,-1
 651 -20 l 1,19,-1
 686 7 l 2,20,21
 998 258 998 258 998 366 c 0,22,23
 998 418 998 418 962 448.5 c 128,-1,24
 926 479 926 479 862 479 c 0,25,26
 764 479 764 479 605 401 c 1,27,-1
 631 525 l 1,28,29
 790 583 790 583 893 583 c 0,30,31
 1011 583 1011 583 1079 527.5 c 128,-1,32
 1147 472 1147 472 1147 376 c 0,33,34
 1147 237 1147 237 838 -3 c 2,35,-1
 819 -20 l 1,36,-1
 648 -156 l 1,37,-1
 1042 -156 l 1,15,-1
EndSplineSet
Ligature2: "'frac' Diagonal Fractions in Latin lookup 0 subtable" one fraction two
Ligature2: "'frac' Diagonal Fractions in Latin lookup 0 subtable" one slash two
EndChar
StartChar: threequarters
Encoding: 190 190 245
Width: 1234
VWidth: 3393
Flags: W
HStem: -85 108<557 800 961 1056> 810 106<171.277 480.29> 1218 106<323 514.986> 1571 106<259.124 590.475>
VStem: 547 149<978.916 1185.28> 611 146<1376.89 1545.93>
Fore
547 1273 m 1,0,1
 618 1263 618 1263 657 1217 c 128,-1,2
 696 1171 696 1171 696 1100 c 0,3,4
 696 971 696 971 590 890 c 0,5,6
 492 810 492 810 312 810 c 0,7,8
 181 810 181 810 61 852 c 1,9,-1
 85 971 l 1,10,11
 152 943 152 943 203.5 929.5 c 128,-1,12
 255 916 255 916 305 916 c 0,13,14
 418 916 418 916 482.5 961.5 c 128,-1,15
 547 1007 547 1007 547 1085 c 0,16,17
 547 1218 547 1218 373 1218 c 2,18,-1
 302 1218 l 1,19,-1
 323 1324 l 1,20,-1
 394 1324 l 2,21,22
 492 1324 492 1324 551.5 1364.5 c 128,-1,23
 611 1405 611 1405 611 1470 c 0,24,25
 611 1571 611 1571 437 1571 c 0,26,27
 353 1571 353 1571 234 1528 c 1,28,-1
 258 1642 l 1,29,30
 394 1677 394 1677 505 1677 c 0,31,32
 625 1677 625 1677 691 1627 c 128,-1,33
 757 1577 757 1577 757 1486 c 0,34,35
 757 1408 757 1408 701 1348.5 c 128,-1,36
 645 1289 645 1289 547 1273 c 1,0,1
48 615 m 1,37,-1
 1107 872 l 1,38,-1
 1133 764 l 1,39,-1
 71 505 l 1,40,-1
 48 615 l 1,37,-1
1065 567 m 1,41,-1
 961 23 l 1,42,-1
 1075 23 l 1,43,-1
 1056 -85 l 1,44,-1
 936 -85 l 1,45,-1
 903 -272 l 1,46,-1
 764 -272 l 1,47,-1
 800 -85 l 1,48,-1
 414 -85 l 1,49,-1
 437 33 l 1,50,-1
 903 567 l 1,51,-1
 1065 567 l 1,41,-1
557 23 m 1,52,-1
 822 23 l 1,53,-1
 900 418 l 1,54,-1
 557 23 l 1,52,-1
EndSplineSet
Ligature2: "'frac' Diagonal Fractions in Latin lookup 0 subtable" three fraction four
Ligature2: "'frac' Diagonal Fractions in Latin lookup 0 subtable" three slash four
EndChar
StartChar: dcroat
Encoding: 273 273 255
Width: 1234
VWidth: 3393
Flags: W
HStem: -30 156<386.022 644.079> 991 156<531.926 815.873> 1286 122<709 1017 1225 1395> 1538 20G<1065 1256>
VStem: 119 196<198.596 631.922>
Fore
686 991 m 0,0,1
 509 991 509 991 418 819 c 0,2,3
 370 729 370 729 342.5 614 c 128,-1,4
 315 499 315 499 315 383 c 0,5,6
 315 126 315 126 519 126 c 0,7,8
 696 126 696 126 787 305 c 0,9,10
 842 398 842 398 865 509 c 0,11,12
 882 567 882 567 887.5 623 c 128,-1,13
 893 679 893 679 893 736 c 0,14,15
 893 858 893 858 838.5 924.5 c 128,-1,16
 784 991 784 991 686 991 c 0,0,1
1017 1286 m 1,17,-1
 686 1286 l 1,18,-1
 709 1408 l 1,19,-1
 1039 1408 l 1,20,-1
 1069 1558 l 1,21,-1
 1256 1558 l 1,22,-1
 1225 1408 l 1,23,-1
 1415 1408 l 1,24,-1
 1395 1286 l 1,25,-1
 1201 1286 l 1,26,-1
 949 0 l 1,27,-1
 767 0 l 1,28,-1
 794 143 l 1,29,30
 658 -30 658 -30 466 -30 c 0,31,32
 305 -30 305 -30 210 75 c 0,33,34
 119 184 119 184 119 370 c 0,35,36
 119 512 119 512 159 658 c 0,37,38
 181 729 181 729 205.5 792 c 128,-1,39
 230 855 230 855 268 910 c 0,40,41
 424 1147 424 1147 673 1147 c 0,42,43
 872 1147 872 1147 953 978 c 1,44,-1
 1017 1286 l 1,17,-1
EndSplineSet
EndChar
StartChar: sfthyphen
Encoding: 173 173 256
Width: 1234
VWidth: 3393
Flags: W
HStem: 479 166<336 825 302 858 336 336>
Fore
858 645 m 1,0,-1
 825 479 l 1,1,-1
 302 479 l 1,2,-1
 336 645 l 1,3,-1
 858 645 l 1,0,-1
EndSplineSet
EndChar
StartChar: periodcentered
Encoding: 8729 8729 257
Width: 1234
VWidth: 3393
Flags: W
HStem: 560 305<676 863 611 928 676 676>
Fore
928 865 m 1,0,-1
 863 560 l 1,1,-1
 611 560 l 1,2,-1
 676 865 l 1,3,-1
 928 865 l 1,0,-1
EndSplineSet
EndChar
StartChar: Euro
Encoding: 8364 8364 258
Width: 1234
VWidth: 3393
Flags: W
HStem: -30 163<630.228 979.718> 543 112<224 325 543 831> 842 107<287 383 616 1027> 1360 161<877.684 1218.23>
VStem: 323 201<250.395 503.954 498.423 509.485 509.485 543>
Fore
1324 1231 m 1,0,1
 1208 1360 1208 1360 1050 1360 c 0,2,3
 755 1360 755 1360 616 949 c 1,4,-1
 1098 949 l 1,5,-1
 1027 842 l 1,6,-1
 583 842 l 1,7,8
 576 822 576 822 573.5 811 c 2,9,-1
 556 729 l 2,10,11
 534 613 534 613 543 655 c 1,12,-1
 903 655 l 1,13,-1
 831 543 l 1,14,-1
 529 543 l 1,15,16
 524 496 524 496 524 454 c 0,17,18
 524 133 524 133 789 133 c 0,19,20
 954 133 954 133 1118 262 c 1,21,-1
 1074 55 l 1,22,23
 917 -30 917 -30 751 -30 c 0,24,25
 323 -30 323 -30 323 476 c 0,26,27
 323 509 323 509 325 543 c 1,28,-1
 153 543 l 1,29,-1
 224 655 l 1,30,-1
 343 655 l 1,31,32
 347 673 347 673 346 686 c 1,33,-1
 372 810 l 1,34,35
 379 825 379 825 383 842 c 1,36,-1
 217 842 l 1,37,-1
 287 949 l 1,38,-1
 412 949 l 1,39,40
 631 1521 631 1521 1080 1521 c 0,41,42
 1248 1521 1248 1521 1368 1438 c 1,43,-1
 1324 1231 l 1,0,1
EndSplineSet
EndChar
StartChar: c6459
Encoding: 65539 -1 259
Width: 1234
VWidth: 3393
Flags: W
HStem: 1296 204<454 618 848 1011 418 1049 454 454>
Fore
1049 1500 m 1,0,-1
 1011 1296 l 1,1,-1
 807 1296 l 1,2,-1
 848 1500 l 1,3,-1
 1049 1500 l 1,0,-1
658 1500 m 1,4,-1
 618 1296 l 1,5,-1
 418 1296 l 1,6,-1
 454 1500 l 1,7,-1
 658 1500 l 1,4,-1
EndSplineSet
EndChar
StartChar: c6460
Encoding: 65540 -1 260
Width: 1234
VWidth: 3393
Flags: W
HStem: 1263 265<736 1042 1042 1042>
Fore
1042 1528 m 1,0,-1
 736 1263 l 1,1,-1
 577 1263 l 1,2,-1
 835 1528 l 1,3,-1
 1042 1528 l 1,0,-1
EndSplineSet
EndChar
StartChar: c6461
Encoding: 65541 -1 261
Width: 1234
VWidth: 3393
Flags: W
HStem: 1296 119<788.917 959.6> 1296 217<462 515 981 1046> 1399 114<549.296 709.08>
VStem: 981 126<1415.97 1513>
Fore
706 1364 m 1,0,-1
 703 1364 l 1,1,2
 658 1399 658 1399 625 1399 c 0,3,4
 560 1399 560 1399 515 1296 c 1,5,-1
 391 1296 l 1,6,7
 462 1513 462 1513 635 1513 c 0,8,9
 699 1513 699 1513 767 1466 c 2,10,-1
 800 1442 l 2,11,12
 832 1415 832 1415 875 1415 c 0,13,14
 961 1415 961 1415 981 1513 c 1,15,-1
 1107 1513 l 1,16,17
 1046 1296 1046 1296 858 1296 c 0,18,19
 800 1296 800 1296 739 1337 c 2,20,-1
 706 1364 l 1,0,-1
EndSplineSet
EndChar
StartChar: c6468
Encoding: 65542 -1 262
Width: 1234
VWidth: 3393
Flags: W
HStem: 1263 265<502 832 502 502>
Fore
832 1263 m 1,0,-1
 693 1263 l 1,1,-1
 502 1528 l 1,2,-1
 683 1528 l 1,3,-1
 832 1263 l 1,0,-1
EndSplineSet
EndChar
StartChar: c6470
Encoding: 65543 -1 263
Width: 1234
VWidth: 3393
Flags: W
HStem: 1263 268<865 1024 865 865>
VStem: 391 633<1263 1263 1263 1263>
Fore
865 1531 m 1,0,-1
 1024 1263 l 1,1,-1
 893 1263 l 1,2,-1
 754 1442 l 1,3,-1
 543 1263 l 1,4,-1
 391 1263 l 1,5,-1
 655 1531 l 1,6,-1
 865 1531 l 1,0,-1
EndSplineSet
EndChar
StartChar: c6472
Encoding: 65544 -1 264
Width: 1234
VWidth: 3393
Flags: W
HStem: 1263 268<441 600 441 441>
VStem: 441 638<1531 1531 1531 1531>
Fore
600 1263 m 1,0,-1
 441 1531 l 1,1,-1
 580 1531 l 1,2,-1
 719 1350 l 1,3,-1
 926 1531 l 1,4,-1
 1079 1531 l 1,5,-1
 815 1263 l 1,6,-1
 600 1263 l 1,0,-1
EndSplineSet
EndChar
StartChar: c6477
Encoding: 65545 -1 265
Width: 1234
VWidth: 3393
Flags: W
HStem: 505 367<71 1107 1107 1107>
Fore
48 615 m 1,0,-1
 1107 872 l 1,1,-1
 1133 764 l 1,2,-1
 71 505 l 1,3,-1
 48 615 l 1,0,-1
EndSplineSet
EndChar
StartChar: c6478
Encoding: 65546 -1 266
Width: 1234
VWidth: 3393
Flags: W
HStem: 852 112<418 661 822 920 275 940 418 418> 1483 20G<746.382 926>
Fore
926 1503 m 1,0,-1
 822 964 l 1,1,-1
 940 964 l 1,2,-1
 920 852 l 1,3,-1
 800 852 l 1,4,-1
 767 668 l 1,5,-1
 628 668 l 1,6,-1
 661 852 l 1,7,-1
 275 852 l 1,8,-1
 298 974 l 1,9,-1
 764 1503 l 1,10,-1
 926 1503 l 1,0,-1
418 964 m 1,11,-1
 686 964 l 1,12,-1
 761 1354 l 1,13,-1
 418 964 l 1,11,-1
EndSplineSet
EndChar
StartChar: c6475
Encoding: 65547 -1 267
Width: 1234
VWidth: 3393
Flags: W
HStem: 1286 129<613.734 899.143> 1286 245<489 567>
VStem: 451 628<1415 1442.5 1531 1531 1531 1531>
Fore
567 1531 m 1,0,1
 583 1470 583 1470 620.5 1442.5 c 128,-1,2
 658 1415 658 1415 736 1415 c 0,3,4
 903 1415 903 1415 958 1531 c 1,5,-1
 1079 1531 l 1,6,7
 1042 1415 1042 1415 953 1350 c 0,8,9
 858 1286 858 1286 732 1286 c 0,10,11
 489 1286 489 1286 451 1531 c 1,12,-1
 567 1531 l 1,0,1
EndSplineSet
EndChar
StartChar: c6476
Encoding: 65548 -1 268
Width: 1234
VWidth: 3393
Flags: W
HStem: 1296 204<661 825 621 865 661 661>
Fore
865 1500 m 1,0,-1
 825 1296 l 1,1,-1
 621 1296 l 1,2,-1
 661 1500 l 1,3,-1
 865 1500 l 1,0,-1
EndSplineSet
EndChar
StartChar: uni0E01
Encoding: 3585 3585 270
Width: 1234
VWidth: 3393
Flags: W
HStem: 0 21G<214 367.242 974 1131.25> 1195 129<674.527 1092.38>
VStem: 1161 165<902.285 936 936 945.513 945.513 984.845 965.179 1117.84>
Fore
872 1195 m 2,0,1
 692 1195 692 1195 510 1046 c 2,2,-1
 484 1023.5 l 2,3,4
 470 1011 470 1011 461 998 c 1,5,-1
 704 998 l 1,6,-1
 679 878 l 1,7,8
 610 858 610 858 565 798.5 c 128,-1,9
 520 739 520 739 507 679 c 2,10,-1
 363 0 l 1,11,-1
 214 0 l 1,12,-1
 360 686 l 2,13,14
 374 754 374 754 408.5 796 c 128,-1,15
 443 838 443 838 499 878 c 1,16,-1
 300 878 l 1,17,-1
 341 1072 l 1,18,19
 480 1188 480 1188 607.5 1256 c 128,-1,20
 735 1324 735 1324 906 1324 c 0,21,22
 1106.68 1324 1106.68 1324 1230 1233.5 c 0,23,24
 1336 1155.71 1336 1155.71 1336 1021 c 0,25,26
 1336 981 1336 981 1326 936 c 2,27,-1
 1127 0 l 1,28,-1
 974 0 l 1,29,-1
 1161 878 l 2,30,31
 1174 937 1174 937 1174 984 c 0,32,33
 1174 1076 1174 1076 1114 1135.5 c 128,-1,34
 1054 1195 1054 1195 882 1195 c 2,35,-1
 872 1195 l 2,0,1
EndSplineSet
EndChar
StartChar: uni0E02
Encoding: 3586 3586 271
Width: 1234
VWidth: 3393
Flags: W
HStem: 0 129<638 957> 764 91<509.175 639.619> 1039 91<599.518 665.93> 1208 116<635.843 865.998>
VStem: 361 137<876.471 982.911> 673 109<890.636 1024.86> 905 142<899.776 1162.79>
Fore
555 437 m 2,0,1
 572 519 572 519 623 588.5 c 128,-1,2
 674 658 674 658 728.5 724 c 128,-1,3
 783 790 783 790 844 874.5 c 128,-1,4
 905 959 905 959 905 1053 c 0,5,6
 905 1104 905 1104 872.5 1156 c 128,-1,7
 840 1208 840 1208 749 1208 c 128,-1,8
 658 1208 658 1208 599 1123 c 1,9,10
 616 1130 616 1130 651 1130 c 0,11,12
 729 1130 729 1130 755.5 1089 c 128,-1,13
 782 1048 782 1048 782 1016 c 0,14,15
 782 888 782 888 705 826 c 128,-1,16
 628 764 628 764 541 764 c 128,-1,17
 454 764 454 764 407.5 809 c 128,-1,18
 361 854 361 854 361 912 c 0,19,20
 361 934 361 934 366 958 c 0,21,22
 398 1110 398 1110 507.5 1217 c 128,-1,23
 617 1324 617 1324 773 1324 c 128,-1,24
 929 1324 929 1324 988 1250.5 c 128,-1,25
 1047 1177 1047 1177 1047 1069 c 128,-1,26
 1047 961 1047 961 984.5 869 c 128,-1,27
 922 777 922 777 895 743 c 2,28,-1
 794 612 l 2,29,30
 720 515 720 515 710 466 c 2,31,-1
 638 129 l 1,32,-1
 957 129 l 1,33,-1
 1209 1311 l 1,34,-1
 1358 1311 l 1,35,-1
 1079 0 l 1,36,-1
 462 0 l 1,37,-1
 555 437 l 2,0,1
615 1039 m 256,38,39
 577 1039 577 1039 537.5 1009.5 c 128,-1,40
 498 980 498 980 498 921 c 0,41,42
 498 904 498 904 513 879.5 c 128,-1,43
 528 855 528 855 567 855 c 128,-1,44
 606 855 606 855 639.5 895.5 c 128,-1,45
 673 936 673 936 673 968 c 128,-1,46
 673 1000 673 1000 662.5 1019.5 c 128,-1,47
 652 1039 652 1039 615 1039 c 256,38,39
EndSplineSet
EndChar
StartChar: uni0E03
Encoding: 3587 3587 272
Width: 1234
VWidth: 3393
Flags: W
HStem: 0 129<624 963> 706 104<492.614 593.878> 961 111<510.899 631.939> 1168 143<531.653 652.381 859.482 956.599>
VStem: 357 129<826.364 1006.13> 633 115<832.064 959.052>
Fore
526 421 m 2,0,1
 544 502 544 502 602.5 585 c 128,-1,2
 661 668 661 668 729.5 750 c 128,-1,3
 798 832 798 832 857 916.5 c 128,-1,4
 916 1001 916 1001 934 1085 c 0,5,6
 940 1114 940 1114 930.5 1141 c 128,-1,7
 921 1168 921 1168 893.5 1168 c 128,-1,8
 866 1168 866 1168 857 1162 c 2,9,10
 823 1138 l 2,11,12
 798 1120 798 1120 780 1108.5 c 128,-1,13
 762 1097 762 1097 719.5 1097 c 128,-1,14
 677 1097 677 1097 649 1132.5 c 128,-1,15
 621 1168 621 1168 590 1168 c 0,16,17
 536 1168 536 1168 518 1082 c 2,18,-1
 510 1046 l 1,19,20
 564 1072 564 1072 629 1072 c 128,-1,21
 694 1072 694 1072 721 1028.5 c 128,-1,22
 748 985 748 985 748 951 c 0,23,24
 748 828 748 828 669.5 767 c 128,-1,25
 591 706 591 706 522 706 c 0,26,27
 357 706 357 706 357 904 c 0,28,29
 357 1077 357 1077 437.5 1194 c 128,-1,30
 518 1311 518 1311 612 1311 c 0,31,32
 664 1311 664 1311 711.5 1268 c 128,-1,33
 759 1225 759 1225 772 1225 c 128,-1,34
 785 1225 785 1225 802 1239 c 128,-1,35
 819 1253 819 1253 853 1285 c 128,-1,36
 887 1317 887 1317 935 1317 c 128,-1,37
 983 1317 983 1317 1031.5 1284 c 128,-1,38
 1080 1251 1080 1251 1080 1136 c 128,-1,39
 1080 1021 1080 1021 1009.5 914 c 128,-1,40
 939 807 939 807 907.5 766.5 c 2,41,-1
 789 610.5 l 2,42,43
 702 495 702 495 689 431 c 2,44,-1
 624 129 l 1,45,-1
 963 129 l 1,46,-1
 1215 1311 l 1,47,-1
 1364 1311 l 1,48,-1
 1085 0 l 1,49,-1
 437 0 l 1,50,-1
 526 421 l 2,0,1
633 912 m 128,-1,52
 633 961 633 961 567.5 961 c 128,-1,53
 502 961 502 961 488 893 c 0,54,55
 486 882 486 882 486 867.5 c 128,-1,56
 486 853 486 853 497 831.5 c 128,-1,57
 508 810 508 810 539 810 c 128,-1,58
 570 810 570 810 601.5 836.5 c 128,-1,51
 633 863 633 863 633 912 c 128,-1,52
EndSplineSet
EndChar
StartChar: uni0E04
Encoding: 3588 3588 273
Width: 1234
VWidth: 3393
Flags: W
HStem: 0 21G<237 408.348 949 1104.24> 512 116<694.571 851.42> 838 115<730.837 876.989> 1198 124<645.128 1078.54>
VStem: 243 148<0 23 333 507.385 507.385 819.944> 885 121<664.01 818.805> 949 151<31.3284 930.241> 1153 156<941.737 1103.56>
Fore
248 182 m 2,0,-1
 243 475 l 2,1,2
 243 1037 243 1037 453.5 1179.5 c 128,-1,3
 664 1322 664 1322 892 1322 c 0,4,5
 1225 1322 1225 1322 1267 1199.5 c 128,-1,6
 1309 1077 1309 1077 1309 1030.5 c 128,-1,7
 1309 984 1309 984 1298 933 c 2,8,-1
 1100 0 l 1,9,-1
 949 0 l 1,10,-1
 1142 910 l 2,11,12
 1153 960 1153 960 1153 1001 c 0,13,14
 1153 1087 1153 1087 1092.5 1142.5 c 128,-1,15
 1032 1198 1032 1198 855.5 1198 c 128,-1,16
 679 1198 679 1198 573.5 1115 c 128,-1,17
 468 1032 468 1032 424 824 c 0,18,19
 397 694 397 694 394 591 c 128,-1,20
 391 488 391 488 391 425 c 2,21,-1
 391 333 l 1,22,-1
 445.5 473.5 l 2,23,24
 500 614 500 614 557 723 c 128,-1,25
 614 832 614 832 650 876 c 0,26,27
 712 953 712 953 822 953 c 0,28,29
 1006 953 1006 953 1006 802 c 0,30,31
 1006 677 1006 677 922 594.5 c 128,-1,32
 838 512 838 512 752 512 c 128,-1,33
 666 512 666 512 619 563 c 1,34,-1
 532.5 378.5 l 2,35,36
 446 194 446 194 409 23 c 2,37,-1
 404 0 l 1,38,-1
 237 0 l 1,39,40
 248 92 248 92 248 182 c 2,0,-1
774 628 m 0,41,42
 816 628 816 628 850.5 667.5 c 128,-1,43
 885 707 885 707 885 748.5 c 128,-1,44
 885 790 885 790 874.5 814 c 128,-1,45
 864 838 864 838 817.5 838 c 128,-1,46
 771 838 771 838 731 796.5 c 128,-1,47
 691 755 691 755 691 696 c 0,48,49
 691 628 691 628 774 628 c 0,41,42
EndSplineSet
EndChar
StartChar: uni0E05
Encoding: 3589 3589 274
Width: 1234
VWidth: 3393
Flags: W
HStem: 0 21G<265 419.75 991 1144.24> 509 126<729.971 873.119> 822 121<756.011 898.25> 1168 149<591.159 758.111 1135 1168.4>
VStem: 260.5 148.5<475.578 529.969 502.774 832.635> 904 132<666.452 818.595> 991 149<30.9135 912.989> 1195 151<936.832 1079.66>
Fore
900 1069 m 1,0,1
 850 1069 850 1069 810.5 1103 c 128,-1,2
 771 1137 771 1137 747.5 1152.5 c 128,-1,3
 724 1168 724 1168 681.5 1168 c 128,-1,4
 639 1168 639 1168 596.5 1134 c 128,-1,5
 554 1100 554 1100 521 1050.5 c 0,6,7
 409 882.5 409 882.5 409 633 c 0,8,9
 409 533 409 533 427 350 c 1,10,-1
 565 679 l 2,11,12
 615.375 797.38 615.375 797.38 658.687 846.69 c 0,13,14
 743.284 943 743.284 943 848.642 943 c 128,-1,15
 954 943 954 943 995 900.5 c 128,-1,16
 1036 858 1036 858 1036 798 c 0,17,18
 1036 671.316 1036 671.316 932.5 578.5 c 0,19,20
 855 509 855 509 770 509 c 128,-1,21
 685 509 685 509 656 560 c 1,22,-1
 411 0 l 1,23,-1
 265 0 l 1,24,25
 275 77 275 77 275 131 c 128,-1,26
 275 185 275 185 270.5 254 c 128,-1,27
 266 323 266 323 260.5 426 c 128,-1,28
 255 529 255 529 255 634 c 128,-1,29
 255 739 255 739 275.5 834.5 c 128,-1,30
 296 930 296 930 335.5 1011 c 128,-1,31
 375 1092 375 1092 435 1160 c 0,32,33
 573.529 1317 573.529 1317 737 1317 c 0,34,35
 769 1317 769 1317 788 1300 c 128,-1,36
 807 1283 807 1283 823.5 1261 c 0,37,38
 865.5 1205 865.5 1205 912.25 1205 c 128,-1,39
 959 1205 959 1205 994.5 1222 c 128,-1,40
 1030 1239 1030 1239 1062.5 1261 c 2,41,-1
 1118.5 1300 l 2,42,43
 1142 1317 1142 1317 1162.5 1317 c 128,-1,44
 1183 1317 1183 1317 1192.5 1308 c 2,45,-1
 1219 1283 l 2,46,47
 1303 1208 1303 1208 1324.5 1143 c 128,-1,48
 1346 1078 1346 1078 1346 1024.5 c 128,-1,49
 1346 971 1346 971 1333 910 c 2,50,-1
 1140 0 l 1,51,-1
 991 0 l 1,52,-1
 1181 893 l 2,53,54
 1195 963 1195 963 1195 1001.5 c 128,-1,55
 1195 1040 1195 1040 1191.5 1072 c 128,-1,56
 1188 1104 1188 1104 1169 1133.5 c 128,-1,57
 1150 1163 1150 1163 1109 1163 c 1,58,-1
 900 1069 l 1,0,1
762.5 791.5 m 0,59,60
 718 750.985 718 750.985 718 694 c 0,61,62
 718 676 718 676 737 655.5 c 128,-1,63
 756 635 756 635 795 635 c 128,-1,64
 834 635 834 635 869 669 c 128,-1,65
 904 703 904 703 904 739 c 0,66,67
 904 822 904 822 836 822 c 0,68,69
 796 822 796 822 762.5 791.5 c 0,59,60
EndSplineSet
EndChar
